<svg width="16" height="17" viewBox="0 0 16 17" fill="none" xmlns="http://www.w3.org/2000/svg">
<path d="M0 0V10H2V6H4L9.41 11.41L5.83 15L7.24 16.41L10.83 12.83L14.41 16.41L15.82 15L12.24 11.41L15.82 7.83L14.41 6.41L10.83 10L6.83 6H7C7.79565 6 8.55871 5.68393 9.12132 5.12132C9.68393 4.55871 10 3.79565 10 3C10 2.20435 9.68393 1.44129 9.12132 0.87868C8.55871 0.316071 7.79565 0 7 0H0ZM2 2H7C7.26522 2 7.51957 2.10536 7.70711 2.29289C7.89464 2.48043 8 2.73478 8 3C8 3.26522 7.89464 3.51957 7.70711 3.70711C7.51957 3.89464 7.26522 4 7 4H2V2Z" fill="#C0C0C0"/>
</svg>
