<svg width="15" height="14" viewBox="0 0 15 14" fill="none" xmlns="http://www.w3.org/2000/svg">
<path d="M4.6665 11C3.93317 11 3.33984 11.6 3.33984 12.3334C3.33984 13.0667 3.93317 13.6667 4.6665 13.6667C5.39984 13.6667 5.99984 13.0667 5.99984 12.3334C5.99984 11.6 5.39984 11 4.6665 11ZM11.3332 11C10.5998 11 10.0065 11.6 10.0065 12.3334C10.0065 13.0667 10.5998 13.6667 11.3332 13.6667C12.0665 13.6667 12.6665 13.0667 12.6665 12.3334C12.6665 11.6 12.0665 11 11.3332 11ZM10.3665 7.66671C10.8665 7.66671 11.3065 7.39337 11.5332 6.98004L13.9198 2.65337C14.1665 2.21337 13.8465 1.66671 13.3398 1.66671H3.47317L2.8465 0.333374H0.666504V1.66671H1.99984L4.39984 6.72671L3.49984 8.35337C3.01317 9.24671 3.65317 10.3334 4.6665 10.3334H12.6665V9.00004H4.6665L5.39984 7.66671H10.3665ZM4.1065 3.00004H12.2065L10.3665 6.33337H5.6865L4.1065 3.00004Z" fill="#313436"/>
</svg>
