<svg width="20" height="24" viewBox="0 0 20 24" fill="none" xmlns="http://www.w3.org/2000/svg">
<path fill-rule="evenodd" clip-rule="evenodd" d="M10.0066 0H10.094L10.4706 0.191346C10.7218 0.318911 10.8876 0.40246 10.9685 0.441994C11.0491 0.481792 11.3237 0.610411 11.7921 0.828113C12.2607 1.04582 12.5028 1.15572 12.5184 1.15783C12.5341 1.15994 12.6585 1.21186 12.8916 1.3128C13.1248 1.41401 13.3042 1.48886 13.4297 1.5371C13.5551 1.58559 13.7369 1.65148 13.9745 1.73503C14.2121 1.81858 14.3623 1.87156 14.4249 1.89343C14.4877 1.91531 14.5662 1.94193 14.6604 1.9725C14.7545 2.00334 14.8755 2.04076 15.0234 2.08478C15.1715 2.12879 15.3598 2.18151 15.5883 2.24318C15.817 2.30459 16.039 2.35967 16.2541 2.40791C16.4693 2.4564 16.6083 2.48724 16.6711 2.50042C16.734 2.5136 16.9335 2.55102 17.2697 2.61243C17.6059 2.6741 17.8166 2.71153 17.9019 2.72471C17.9869 2.73789 18.1955 2.77083 18.5273 2.82354C18.859 2.87652 19.0272 2.90288 19.0316 2.90288C19.0361 2.90288 19.1975 2.93345 19.5157 2.99512C19.8341 3.0568 19.9943 3.08869 19.9966 3.0908L20 3.09422L19.9799 4.07705C19.9664 4.73226 19.9327 5.57909 19.879 6.617C19.825 7.65491 19.7825 8.3805 19.7512 8.79376C19.7199 9.20729 19.6839 9.56126 19.6435 9.85592C19.6033 10.1506 19.5561 10.43 19.5024 10.6938C19.4484 10.9576 19.3902 11.2238 19.3274 11.4921C19.2648 11.7604 19.2087 11.9955 19.1594 12.1979C19.1101 12.4001 19.0517 12.6178 18.9844 12.851C18.9172 13.084 18.877 13.2248 18.8634 13.2733C18.8501 13.3215 18.8298 13.3832 18.8029 13.458C18.7761 13.5326 18.7448 13.6251 18.7088 13.735C18.673 13.8449 18.617 14.0033 18.5406 14.21C18.4644 14.4166 18.4016 14.5816 18.3523 14.7047C18.303 14.828 18.2425 14.9754 18.1707 15.1467C18.099 15.3183 18.0072 15.5249 17.8951 15.7668C17.7829 16.0088 17.7156 16.1495 17.6932 16.1891C17.6708 16.2286 17.5892 16.3728 17.4478 16.6213C17.3067 16.8696 17.2214 17.0169 17.1922 17.0633C17.1633 17.1094 17.0936 17.2259 16.9838 17.4128C16.874 17.5996 16.8023 17.7185 16.7687 17.7691C16.735 17.8197 16.6834 17.8988 16.614 18.0066C16.5444 18.1144 16.4883 18.1979 16.4458 18.2572C16.4033 18.3165 16.354 18.3869 16.2979 18.4683C16.2419 18.5498 16.1881 18.6244 16.1365 18.6926C16.0849 18.7609 16.0447 18.8181 16.0155 18.8642C15.9863 18.9103 15.9438 18.9696 15.8877 19.0424C15.8316 19.1149 15.7779 19.1873 15.7263 19.2601C15.6746 19.3326 15.6186 19.4074 15.558 19.4844C15.4975 19.5613 15.4462 19.6272 15.4034 19.6823C15.3609 19.7371 15.2701 19.8415 15.1311 19.9954C14.9921 20.1494 14.8286 20.3254 14.6403 20.5233C14.452 20.7213 14.2859 20.8905 14.1424 21.0312C13.999 21.172 13.9038 21.2611 13.8566 21.2985C13.8096 21.3359 13.6998 21.4303 13.5272 21.5821C13.3545 21.7339 13.2492 21.8261 13.2111 21.8591C13.173 21.8923 13.0789 21.9735 12.9287 22.1034C12.7784 22.2331 12.6799 22.3166 12.6327 22.354C12.5857 22.3915 12.532 22.4352 12.4715 22.4858C12.411 22.5364 12.3267 22.6058 12.2193 22.6938C12.1116 22.7815 12.0297 22.8466 11.9736 22.8883C11.9178 22.9302 11.8638 22.9674 11.8124 23.0006C11.7608 23.0335 11.6666 23.0907 11.53 23.1719C11.3931 23.2533 11.3034 23.3084 11.2608 23.3369C11.2183 23.3656 11.1701 23.3951 11.1164 23.426C11.0624 23.4568 11.0066 23.4918 10.9481 23.5316C10.89 23.5712 10.8472 23.5996 10.8203 23.6173C10.7935 23.635 10.7353 23.6658 10.6456 23.7096C10.5559 23.7536 10.4482 23.8042 10.3227 23.8614C10.1973 23.9186 10.1097 23.956 10.0604 23.9736L9.98657 24L9.90572 23.9802C9.852 23.9671 9.79384 23.9449 9.73098 23.9141C9.66813 23.8835 9.56277 23.8305 9.41489 23.7559C9.26702 23.6811 9.18174 23.635 9.15931 23.6173C9.13688 23.5996 9.07977 23.5612 8.9877 23.5019C8.8959 23.4426 8.82653 23.3985 8.77932 23.3698C8.73238 23.3414 8.64032 23.2863 8.50366 23.2051C8.367 23.1237 8.27285 23.0665 8.22121 23.0335C8.16957 23.0006 8.11585 22.9631 8.05978 22.9212C8.0037 22.8796 7.93981 22.83 7.86809 22.7729C7.79637 22.7157 7.70118 22.6376 7.58225 22.5388C7.46359 22.4397 7.36031 22.3541 7.27294 22.2813C7.18557 22.2088 7.05778 22.0989 6.88956 21.9516C6.72161 21.8043 6.6139 21.7117 6.56695 21.6746C6.51975 21.6372 6.41673 21.5491 6.25738 21.4105C6.0983 21.2721 6.00988 21.1938 5.99189 21.1765C5.97389 21.1588 5.89435 21.0808 5.753 20.9421C5.6119 20.8038 5.51332 20.7047 5.45725 20.6454C5.40118 20.5861 5.27782 20.454 5.08743 20.2495C4.89679 20.045 4.78256 19.9198 4.74448 19.8734C4.70614 19.8273 4.65033 19.7593 4.57626 19.6689C4.5022 19.5787 4.44404 19.5063 4.40127 19.4512C4.35876 19.3964 4.31625 19.3392 4.27374 19.2799C4.23097 19.2203 4.18611 19.1589 4.13916 19.0951C4.09196 19.0313 4.04945 18.9741 4.01137 18.9235C3.97329 18.8729 3.94069 18.8278 3.91383 18.7883C3.88697 18.7488 3.84994 18.6971 3.80299 18.6333C3.75579 18.5696 3.71536 18.5124 3.68172 18.4618C3.64808 18.4112 3.60348 18.3453 3.54741 18.2638C3.49134 18.1824 3.44856 18.1186 3.41962 18.0725C3.39041 18.0264 3.3432 17.9539 3.27826 17.8548C3.21332 17.7559 3.17081 17.6877 3.15047 17.6503C3.13039 17.6128 3.07432 17.5185 2.98251 17.3667C2.89045 17.2148 2.82995 17.116 2.80074 17.0699C2.77179 17.0235 2.69876 16.8973 2.58219 16.6904C2.46561 16.4837 2.37824 16.3277 2.32008 16.222C2.26166 16.1166 2.21028 16.0175 2.16543 15.9252C2.12057 15.833 2.05772 15.6944 1.97713 15.5096C1.89628 15.3248 1.85586 15.2302 1.85586 15.226C1.85586 15.2215 1.81569 15.1203 1.73484 14.9224C1.65426 14.7244 1.5914 14.5684 1.54655 14.454C1.50169 14.3396 1.4391 14.166 1.35825 13.933C1.27766 13.6997 1.19681 13.4514 1.11623 13.1873C1.03564 12.9235 0.945923 12.6025 0.847341 12.2243C0.748497 11.8461 0.679124 11.5646 0.6387 11.3798C0.598537 11.1951 0.542465 10.9268 0.470745 10.5749C0.399025 10.2233 0.356253 9.99218 0.342953 9.88227C0.329391 9.77237 0.300181 9.43606 0.255324 8.87309C0.210727 8.31012 0.181517 7.88553 0.167956 7.59982C0.154655 7.31386 0.139007 7.0105 0.121011 6.68948C0.103016 6.36846 0.0782402 5.84292 0.0469441 5.11285C0.0156481 4.38278 0 3.86593 0 3.56257V3.1074L0.0435537 3.08421C0.0727633 3.06892 0.152307 3.05021 0.282447 3.02807C0.412325 3.00619 0.591756 2.97747 0.820217 2.94241C1.04894 2.90709 1.39633 2.8499 1.86264 2.77083C2.32895 2.69176 2.66303 2.63457 2.86463 2.59925C3.06649 2.5642 3.33329 2.50911 3.66503 2.43426C3.99677 2.35967 4.28365 2.2893 4.52593 2.22315C4.76795 2.15726 4.97633 2.09585 5.15133 2.03866C5.32607 1.98146 5.46273 1.93745 5.56157 1.90661C5.66015 1.87577 5.7543 1.84494 5.84402 1.81436C5.93347 1.78353 6.1129 1.71764 6.38179 1.61643C6.65093 1.51522 6.90313 1.41296 7.13837 1.30964C7.37387 1.20633 7.49932 1.15335 7.51496 1.15124C7.53087 1.14913 7.64406 1.09958 7.85479 1.00286C8.06525 0.906128 8.2559 0.818098 8.4262 0.739029C8.59676 0.659697 8.76472 0.580628 8.93059 0.501559C9.09646 0.422227 9.30275 0.318911 9.54947 0.191346L9.91928 0H10.0066Z" fill="#629CFF"/>
<path fill-rule="evenodd" clip-rule="evenodd" d="M9.9316 1.3335H10.0067L10.3304 1.50033C10.546 1.61155 10.6887 1.68456 10.7581 1.71909C10.8274 1.75361 11.0632 1.86589 11.4659 2.05566C11.8686 2.24542 12.0764 2.34136 12.09 2.3432C12.1035 2.34531 12.2105 2.39038 12.4108 2.47841C12.6111 2.5667 12.7652 2.6318 12.8729 2.67424C12.9809 2.71641 13.1368 2.77387 13.341 2.84661C13.5452 2.91962 13.6743 2.96574 13.7283 2.98472C13.7821 3.00396 13.8496 3.02688 13.9305 3.05377C14.0113 3.08065 14.1154 3.11333 14.2426 3.15155C14.3696 3.19003 14.5316 3.23589 14.728 3.28966C14.9244 3.34342 15.115 3.39139 15.2999 3.43356C15.4851 3.47573 15.6043 3.50262 15.6583 3.51421C15.7122 3.52555 15.8836 3.55823 16.1726 3.61199C16.4615 3.6655 16.6425 3.69818 16.7158 3.70978C16.7891 3.72111 16.9683 3.7501 17.2533 3.79596C17.5384 3.84208 17.6828 3.86501 17.6865 3.86501C17.6904 3.86501 17.8292 3.8919 18.1027 3.94566C18.3763 3.99917 18.514 4.0271 18.5158 4.02895L18.5187 4.03185L18.5015 4.88922C18.4898 5.46062 18.4611 6.19886 18.4147 7.1042C18.3685 8.00927 18.332 8.64208 18.3049 9.00264C18.278 9.36319 18.2472 9.67209 18.2125 9.92906C18.1778 10.186 18.1374 10.4296 18.091 10.6597C18.0448 10.8897 17.9948 11.1219 17.9408 11.3557C17.8871 11.5898 17.8388 11.7951 17.7963 11.9714C17.754 12.1477 17.704 12.3378 17.6461 12.541C17.5884 12.7442 17.5538 12.867 17.542 12.9092C17.5305 12.9513 17.5133 13.0051 17.4901 13.0702C17.4669 13.1356 17.44 13.2159 17.4093 13.3119C17.3785 13.4078 17.3302 13.5459 17.2648 13.7262C17.1993 13.9065 17.1453 14.0501 17.1031 14.1577C17.0606 14.2649 17.0087 14.3935 16.9469 14.543C16.8853 14.6927 16.8063 14.873 16.7101 15.0838C16.6138 15.2949 16.5559 15.4177 16.5366 15.452C16.5173 15.4865 16.4472 15.6123 16.3256 15.8289C16.2044 16.0458 16.1311 16.1742 16.106 16.2145C16.081 16.2548 16.0213 16.3563 15.9271 16.5194C15.8327 16.6823 15.7709 16.7859 15.7422 16.8302C15.7133 16.8742 15.6689 16.9432 15.6092 17.0371C15.5495 17.1312 15.5013 17.2039 15.4647 17.2558C15.4282 17.3075 15.3857 17.3689 15.3375 17.4398C15.2895 17.511 15.2433 17.5761 15.199 17.6356C15.1546 17.6949 15.12 17.7447 15.0949 17.7851C15.0699 17.8254 15.0334 17.877 14.9851 17.9403C14.9369 18.0038 14.8907 18.0671 14.8464 18.1303C14.802 18.1936 14.7541 18.2587 14.7019 18.3259C14.65 18.3931 14.6057 18.4506 14.5691 18.4985C14.5324 18.5465 14.4544 18.6374 14.335 18.7718C14.2155 18.906 14.0749 19.0594 13.9132 19.232C13.7513 19.4047 13.6089 19.5523 13.4855 19.6751C13.3622 19.7979 13.2803 19.8754 13.2399 19.9081C13.1994 19.9407 13.105 20.0232 12.9569 20.1555C12.8085 20.2879 12.718 20.3682 12.6851 20.397C12.6525 20.426 12.5714 20.4969 12.4426 20.6099C12.3135 20.723 12.2287 20.796 12.1883 20.8287C12.1479 20.8611 12.1015 20.8996 12.0496 20.9436C11.9974 20.9879 11.9254 21.0482 11.8328 21.1249C11.7402 21.2016 11.6701 21.2583 11.6218 21.2947C11.5739 21.331 11.5274 21.3637 11.4831 21.3924C11.439 21.4212 11.3579 21.471 11.2406 21.5419C11.1229 21.613 11.046 21.6608 11.0095 21.6858C10.9727 21.7108 10.9312 21.7367 10.8851 21.7635C10.8389 21.7904 10.7907 21.821 10.7406 21.8555C10.6905 21.8901 10.654 21.9151 10.6308 21.9304C10.6079 21.9457 10.5578 21.9725 10.4806 22.0108C10.4036 22.0492 10.3111 22.0933 10.2034 22.1431C10.0954 22.1931 10.0203 22.2256 9.97802 22.2411L9.91438 22.264L9.84501 22.2467C9.79885 22.2353 9.74878 22.2161 9.69479 22.1892C9.64081 22.1623 9.55031 22.1165 9.42304 22.0511C9.29603 21.986 9.22274 21.9457 9.20344 21.9304C9.1844 21.9151 9.13511 21.8814 9.05609 21.8297C8.97733 21.7778 8.91761 21.7396 8.87718 21.7145C8.83676 21.6897 8.75773 21.6418 8.64011 21.5709C8.52275 21.4997 8.44164 21.4499 8.39757 21.4212C8.35323 21.3924 8.30681 21.3598 8.25882 21.3234C8.21058 21.287 8.15581 21.2438 8.094 21.194C8.03245 21.1442 7.95056 21.0759 7.84859 20.9897C7.74635 20.9033 7.65768 20.8287 7.58257 20.7652C7.50746 20.7019 7.39766 20.6062 7.25318 20.4776C7.10869 20.3493 7.01637 20.2686 6.97595 20.2359C6.93552 20.2035 6.84685 20.1266 6.71019 20.0058C6.57327 19.8851 6.49738 19.8169 6.48173 19.8016C6.46634 19.7863 6.39801 19.7183 6.27674 19.5973C6.15547 19.4766 6.07071 19.3902 6.02246 19.3385C5.97421 19.2866 5.86833 19.1717 5.70454 18.9932C5.54076 18.8151 5.4427 18.7057 5.40984 18.6654C5.37724 18.625 5.32899 18.5657 5.26536 18.4869C5.20198 18.4084 5.15191 18.3451 5.11513 18.2972C5.07862 18.2492 5.04211 18.1994 5.00534 18.1475C4.96883 18.0958 4.93023 18.042 4.8898 17.9864C4.84938 17.9308 4.81287 17.881 4.78001 17.837C4.74715 17.7927 4.71924 17.7534 4.69629 17.7189C4.67308 17.6844 4.64126 17.6393 4.60084 17.5837C4.56041 17.5281 4.52573 17.4783 4.49678 17.4343C4.46809 17.39 4.42949 17.3325 4.38124 17.2616C4.33326 17.1907 4.29648 17.1351 4.27145 17.0948C4.24641 17.0545 4.20599 16.9912 4.15017 16.9048C4.09436 16.8186 4.05759 16.759 4.04038 16.7266C4.0229 16.6939 3.97492 16.6114 3.89589 16.4791C3.81687 16.3468 3.76497 16.2606 3.73993 16.2203C3.7149 16.18 3.65231 16.0698 3.55216 15.8895C3.45201 15.7092 3.3769 15.573 3.32657 15.481C3.27649 15.389 3.23242 15.3026 3.19382 15.2219C3.15522 15.1415 3.10123 15.0206 3.03186 14.8595C2.96275 14.6985 2.92806 14.616 2.92806 14.6123C2.92806 14.6083 2.89338 14.5201 2.824 14.3474C2.75463 14.1751 2.70064 14.0388 2.66205 13.9392C2.62371 13.8393 2.56972 13.6877 2.50035 13.4845C2.43098 13.2813 2.3616 13.0647 2.29223 12.8343C2.22286 12.6042 2.14592 12.3243 2.06116 11.9943C1.9764 11.6646 1.91668 11.4192 1.88199 11.2579C1.84731 11.0969 1.79932 10.8631 1.73751 10.5561C1.67596 10.2493 1.63919 10.0479 1.62771 9.95199C1.61624 9.85605 1.5912 9.56271 1.5526 9.07169C1.514 8.58094 1.48897 8.21063 1.47749 7.9613C1.46602 7.71224 1.45245 7.44735 1.43707 7.16745C1.42168 6.88755 1.40056 6.42921 1.37343 5.79245C1.34657 5.15568 1.33301 4.70499 1.33301 4.44037V4.04345L1.37056 4.02341C1.3956 4.00997 1.46393 3.99363 1.57581 3.97439C1.68744 3.95515 1.84157 3.93038 2.03795 3.89954C2.23459 3.86897 2.53295 3.81915 2.9338 3.7501C3.33439 3.68105 3.62127 3.63123 3.7947 3.6004C3.96814 3.56982 4.19738 3.52186 4.48243 3.45649C4.76749 3.39139 5.01395 3.32998 5.22206 3.27253C5.43018 3.21507 5.60935 3.1613 5.75957 3.11149C5.90979 3.06168 6.02715 3.0232 6.11192 2.99631C6.19668 2.96943 6.27778 2.94255 6.35472 2.91593C6.43166 2.88904 6.58579 2.83132 6.81712 2.74329C7.04819 2.655 7.26491 2.56591 7.46703 2.47578C7.66941 2.38564 7.77712 2.33951 7.79069 2.33767C7.80425 2.33582 7.90153 2.2926 8.08252 2.20826C8.26352 2.12366 8.4273 2.04696 8.57361 1.97791C8.72018 1.90912 8.86466 1.84006 9.00706 1.77101C9.14972 1.70196 9.3268 1.61182 9.53883 1.50059L9.85649 1.33376H9.9316V1.3335Z" fill="#1B875A" stroke="white" stroke-width="0.666667"/>
<path d="M9.43091 4.90362C9.17793 5.18322 9.13799 5.74243 9.35102 5.95547C9.56406 6.1685 9.40428 6.3549 8.89833 6.46142C7.63345 6.72771 6.96772 8.07248 7.54025 9.1909C7.75328 9.60365 8.44563 10.0297 9.17793 10.1895C9.604 10.2827 9.604 10.2827 9.604 11.0682C9.604 11.8405 9.604 11.8538 9.08473 12.1201C8.43232 12.4396 8.1394 12.8524 8.1394 13.3983C8.1394 13.9442 8.65867 14.5833 9.27114 14.8096L9.73714 14.9694V15.8615V16.7669L9.24451 16.8068C8.73855 16.8601 8.76518 16.9 9.5108 17.1663C9.80372 17.2861 9.87029 17.3793 9.87029 17.7788C9.87029 18.4046 10.11 18.3779 10.2165 17.7255C10.283 17.3128 10.3896 17.1796 10.7224 17.0065C11.8542 16.4739 11.8009 14.5433 10.6425 14.1705C10.4561 14.1173 10.4029 13.9575 10.4029 13.3717C10.4029 12.7592 10.4428 12.6527 10.6558 12.6527C11.0153 12.6527 11.7743 12.3065 12.0272 12.0269C12.1471 11.8937 12.3202 11.6141 12.4001 11.4011C12.693 10.6022 11.974 9.57702 10.9621 9.3773L10.536 9.2841V8.23225C10.536 7.06057 10.6292 6.92743 11.3615 7.1804C11.8542 7.35349 12.6663 7.15377 12.6663 6.86085C12.6663 6.60788 11.761 6.22176 11.3482 6.30164C10.8023 6.42147 10.5893 6.22176 10.7757 5.80901C10.9621 5.40957 10.8023 4.87699 10.4694 4.74384C10.07 4.59738 9.64394 4.66396 9.43091 4.90362ZM9.47085 8.19231C9.47085 9.16427 9.45754 9.1909 9.13799 9.1909C8.69861 9.1909 8.27255 8.75152 8.27255 8.28551C8.27255 7.8195 8.83176 7.26029 9.37765 7.20703C9.43091 7.19372 9.47085 7.64641 9.47085 8.19231ZM11.3349 10.5224C11.761 10.9484 11.6278 11.3479 10.9088 11.734C10.5094 11.947 10.4029 11.734 10.4961 10.9484C10.5893 10.1762 10.8423 10.0297 11.3349 10.5224ZM9.604 13.3983C9.604 14.0507 9.44422 14.1306 9.11136 13.6246C8.93827 13.3717 8.95159 13.3051 9.19125 13.0654C9.35102 12.9057 9.49748 12.7858 9.53743 12.7858C9.57737 12.7858 9.604 13.0654 9.604 13.3983ZM10.7757 15.5952C10.8023 15.9281 10.7357 16.1278 10.536 16.3142C10.2697 16.5538 10.2697 16.5538 10.2697 15.7949C10.2697 15.1425 10.2964 15.036 10.5094 15.0759C10.6692 15.1026 10.749 15.2623 10.7757 15.5952Z" fill="white"/>
</svg>
