<svg width="14" height="16" viewBox="0 0 14 16" fill="none" xmlns="http://www.w3.org/2000/svg">
<path fill-rule="evenodd" clip-rule="evenodd" d="M7.00466 0H7.06581L7.32943 0.127564C7.50524 0.212607 7.62134 0.268307 7.67794 0.294663C7.73435 0.321195 7.92658 0.40694 8.25446 0.552076C8.58252 0.697211 8.75194 0.770481 8.76289 0.771887C8.77385 0.773292 8.86093 0.807907 9.02414 0.875203C9.18735 0.942675 9.31295 0.992576 9.40076 1.02473C9.48857 1.05706 9.61581 1.10099 9.78213 1.15669C9.94844 1.21239 10.0536 1.2477 10.0974 1.26229C10.1414 1.27687 10.1964 1.29462 10.2623 1.315C10.3282 1.33556 10.4129 1.36051 10.5164 1.38985C10.6201 1.4192 10.7519 1.45434 10.9118 1.49545C11.0719 1.53639 11.2273 1.57312 11.3779 1.60527C11.5285 1.6376 11.6258 1.65816 11.6698 1.66694C11.7138 1.67573 11.8535 1.70068 12.0888 1.74162C12.3241 1.78274 12.4716 1.80769 12.5313 1.81647C12.5908 1.82526 12.7369 1.84722 12.9691 1.88236C13.2013 1.91768 13.3191 1.93525 13.3222 1.93525C13.3253 1.93525 13.4383 1.95563 13.661 1.99675C13.8839 2.03787 13.996 2.05913 13.9976 2.06053L14 2.06282L13.9859 2.71803C13.9764 3.15484 13.9529 3.71939 13.9153 4.41133C13.8775 5.10327 13.8477 5.587 13.8258 5.86251C13.8039 6.13819 13.7787 6.37417 13.7504 6.57061C13.7223 6.76706 13.6893 6.95331 13.6517 7.12919C13.6139 7.30507 13.5732 7.48254 13.5292 7.66141C13.4854 7.84028 13.4461 7.99701 13.4116 8.13196C13.3771 8.26672 13.3362 8.41186 13.2891 8.56736C13.242 8.72269 13.2139 8.81652 13.2044 8.84885C13.1951 8.881 13.1809 8.92212 13.162 8.97202C13.1432 9.02174 13.1213 9.08342 13.0961 9.15669C13.0711 9.22996 13.0319 9.33556 12.9784 9.47331C12.9251 9.61107 12.8811 9.72106 12.8466 9.80312C12.8121 9.88535 12.7697 9.98357 12.7195 10.0978C12.6693 10.2122 12.6051 10.3499 12.5266 10.5112C12.4481 10.6725 12.401 10.7664 12.3853 10.7927C12.3696 10.8191 12.3124 10.9152 12.2135 11.0809C12.1147 11.2464 12.055 11.3446 12.0346 11.3755C12.0143 11.4063 11.9655 11.4839 11.8887 11.6085C11.8118 11.7331 11.7616 11.8123 11.7381 11.8461C11.7145 11.8798 11.6784 11.9325 11.6298 12.0044C11.5811 12.0763 11.5418 12.132 11.5121 12.1715C11.4823 12.211 11.4478 12.2579 11.4086 12.3122C11.3693 12.3665 11.3317 12.4163 11.2956 12.4618C11.2594 12.5073 11.2313 12.5454 11.2108 12.5761C11.1904 12.6069 11.1606 12.6464 11.1214 12.6949C11.0821 12.7432 11.0445 12.7916 11.0084 12.8401C10.9722 12.8884 10.933 12.9383 10.8906 12.9896C10.8483 13.0409 10.8123 13.0848 10.7824 13.1215C10.7526 13.1581 10.6891 13.2277 10.5918 13.3303C10.4945 13.4329 10.38 13.5503 10.2482 13.6822C10.1164 13.8142 10.0001 13.927 9.8997 14.0208C9.79929 14.1146 9.73265 14.174 9.69961 14.199C9.66675 14.2239 9.58989 14.2868 9.46904 14.3881C9.34818 14.4893 9.27443 14.5508 9.24777 14.5727C9.22112 14.5949 9.15522 14.649 9.05006 14.7356C8.94491 14.8221 8.8759 14.8778 8.84286 14.9027C8.80999 14.9277 8.77239 14.9568 8.73003 14.9906C8.68768 15.0243 8.62871 15.0705 8.5535 15.1292C8.4781 15.1877 8.42078 15.2311 8.38153 15.2589C8.34246 15.2868 8.30467 15.3116 8.2687 15.3337C8.23256 15.3557 8.16665 15.3938 8.07099 15.4479C7.97515 15.5022 7.91235 15.5389 7.88259 15.5579C7.85283 15.5771 7.81906 15.5967 7.78145 15.6173C7.74366 15.6379 7.70459 15.6612 7.6637 15.6878C7.62299 15.7141 7.59305 15.7331 7.57424 15.7449C7.55544 15.7566 7.51473 15.7772 7.45193 15.8064C7.38913 15.8357 7.31373 15.8694 7.22592 15.9076C7.13811 15.9457 7.07677 15.9707 7.04226 15.9824L6.9906 16L6.934 15.9868C6.8964 15.978 6.85569 15.9633 6.81169 15.9427C6.76769 15.9223 6.69394 15.887 6.59043 15.8373C6.48691 15.7874 6.42722 15.7566 6.41152 15.7449C6.39582 15.7331 6.35584 15.7074 6.29139 15.6679C6.22713 15.6284 6.17857 15.599 6.14553 15.5799C6.11267 15.5609 6.04822 15.5242 5.95256 15.4701C5.8569 15.4158 5.79099 15.3776 5.75485 15.3557C5.7187 15.3337 5.68109 15.3088 5.64184 15.2808C5.60259 15.2531 5.55787 15.22 5.50766 15.1819C5.45746 15.1438 5.39082 15.0918 5.30758 15.0259C5.22451 14.9598 5.15222 14.9027 5.09106 14.8542C5.0299 14.8059 4.94045 14.7326 4.82269 14.6344C4.70513 14.5362 4.62973 14.4745 4.59687 14.4497C4.56382 14.4248 4.49171 14.3661 4.38017 14.2737C4.26881 14.1814 4.20692 14.1292 4.19432 14.1176C4.18173 14.1059 4.12605 14.0539 4.0271 13.9614C3.92833 13.8692 3.85932 13.8031 3.82007 13.7636C3.78082 13.724 3.69447 13.636 3.5612 13.4997C3.42775 13.3633 3.34779 13.2799 3.32114 13.2489C3.2943 13.2182 3.25523 13.1729 3.20339 13.1126C3.15154 13.0525 3.11083 13.0042 3.08089 12.9674C3.05113 12.9309 3.02137 12.8928 2.99162 12.8532C2.96168 12.8135 2.93028 12.7726 2.89741 12.7301C2.86437 12.6875 2.83461 12.6494 2.80796 12.6157C2.78131 12.5819 2.75849 12.5519 2.73968 12.5255C2.72088 12.4992 2.69495 12.4647 2.66209 12.4222C2.62905 12.3797 2.60075 12.3416 2.5772 12.3078C2.55365 12.2741 2.52244 12.2302 2.48319 12.1759C2.44393 12.1216 2.41399 12.0791 2.39373 12.0483C2.37328 12.0176 2.34024 11.9693 2.29478 11.9032C2.24933 11.8373 2.21957 11.7918 2.20533 11.7668C2.19127 11.7419 2.15202 11.679 2.08776 11.5778C2.02332 11.4766 1.98096 11.4107 1.96052 11.3799C1.94025 11.349 1.88913 11.2648 1.80753 11.1269C1.72592 10.9891 1.66477 10.8851 1.62406 10.8147C1.58316 10.7444 1.5472 10.6783 1.5158 10.6168C1.4844 10.5553 1.4404 10.4629 1.38399 10.3397C1.3274 10.2166 1.2991 10.1535 1.2991 10.1507C1.2991 10.1477 1.27098 10.0802 1.21439 9.94825C1.15798 9.8163 1.11398 9.71228 1.08258 9.63602C1.05118 9.55976 1.00737 9.44397 0.950774 9.28864C0.894363 9.13314 0.837769 8.96763 0.781358 8.79157C0.724947 8.61568 0.662146 8.40167 0.593138 8.14953C0.523948 7.89739 0.475387 7.70973 0.44709 7.58656C0.418976 7.46339 0.379725 7.28452 0.329521 7.04994C0.279317 6.81555 0.249377 6.66145 0.240067 6.58818C0.230574 6.51491 0.210127 6.29071 0.178727 5.9154C0.147509 5.54008 0.127062 5.25702 0.117569 5.06655C0.108258 4.87591 0.0973046 4.67367 0.084708 4.45965C0.0721113 4.24564 0.0547681 3.89528 0.0328609 3.40857C0.0109537 2.92185 0 2.57729 0 2.37505V2.0716L0.0304876 2.05614C0.0509343 2.04595 0.106615 2.03347 0.197713 2.01871C0.288628 2.00413 0.414229 1.98498 0.574152 1.96161C0.734257 1.93806 0.977428 1.89993 1.30385 1.84722C1.63026 1.79451 1.86412 1.75638 2.00524 1.73284C2.14654 1.70947 2.3333 1.67274 2.56552 1.62284C2.79774 1.57312 2.99855 1.5262 3.16815 1.4821C3.33757 1.43817 3.48343 1.39723 3.60593 1.3591C3.72825 1.32098 3.82391 1.29163 3.8931 1.27107C3.96211 1.25052 4.02801 1.22996 4.09081 1.20958C4.15343 1.18902 4.27903 1.14509 4.46725 1.07762C4.65565 1.01015 4.83219 0.941972 4.99686 0.873095C5.16171 0.804217 5.24952 0.7689 5.26047 0.767494C5.27161 0.766088 5.35084 0.733055 5.49835 0.66857C5.64568 0.604085 5.77913 0.545399 5.89834 0.492686C6.01773 0.439798 6.1353 0.387085 6.25141 0.334373C6.36752 0.281485 6.51193 0.212607 6.68463 0.127564L6.9435 0H7.00466Z" fill="#629CFF"/>
<path fill-rule="evenodd" clip-rule="evenodd" d="M6.95212 0.888672H7.00469L7.23125 0.999895C7.38223 1.07404 7.48209 1.12272 7.53065 1.14573C7.57921 1.16875 7.74425 1.2436 8.02612 1.37011C8.30799 1.49662 8.45349 1.56058 8.46299 1.56181C8.47248 1.56322 8.54733 1.59326 8.68754 1.65195C8.82774 1.71081 8.93564 1.75421 9.01103 1.7825C9.08661 1.81061 9.19578 1.84892 9.33873 1.89741C9.48167 1.94608 9.57204 1.97683 9.60983 1.98948C9.64744 2.00231 9.69472 2.0176 9.75132 2.03552C9.80791 2.05344 9.88075 2.07523 9.96984 2.10071C10.0587 2.12636 10.1721 2.15693 10.3096 2.19278C10.4471 2.22862 10.5805 2.2606 10.7099 2.28872C10.8396 2.31683 10.923 2.33475 10.9608 2.34248C10.9986 2.35004 11.1185 2.37183 11.3208 2.40767C11.5231 2.44334 11.6498 2.46513 11.7011 2.47286C11.7524 2.48041 11.8778 2.49974 12.0773 2.53031C12.2769 2.56106 12.378 2.57635 12.3805 2.57635C12.3833 2.57635 12.4804 2.59427 12.6719 2.63012C12.8634 2.66579 12.9598 2.68441 12.9611 2.68564L12.9631 2.68757L12.951 3.25915C12.9428 3.64009 12.9228 4.13225 12.8903 4.73581C12.8579 5.33919 12.8324 5.76106 12.8134 6.00143C12.7946 6.2418 12.7731 6.44773 12.7488 6.61905C12.7245 6.79036 12.6962 6.95272 12.6637 7.10611C12.6314 7.2595 12.5963 7.4143 12.5585 7.57016C12.5209 7.72619 12.4872 7.86306 12.4574 7.98061C12.4278 8.09816 12.3928 8.22485 12.3523 8.36032C12.3119 8.49579 12.2876 8.57767 12.2794 8.60578C12.2714 8.6339 12.2593 8.66974 12.2431 8.71314C12.2268 8.75672 12.208 8.81031 12.1865 8.87426C12.1649 8.93822 12.1312 9.03029 12.0853 9.15048C12.0395 9.27066 12.0017 9.36642 11.9722 9.43811C11.9424 9.50963 11.9061 9.59537 11.8628 9.695C11.8197 9.7948 11.7644 9.91498 11.697 10.0556C11.6297 10.1963 11.5891 10.2782 11.5756 10.301C11.5621 10.324 11.513 10.4078 11.4279 10.5523C11.3431 10.6969 11.2918 10.7825 11.2742 10.8093C11.2567 10.8362 11.2149 10.9039 11.149 11.0126C11.0829 11.1212 11.0396 11.1903 11.0196 11.2198C10.9993 11.2491 10.9683 11.2952 10.9265 11.3577C10.8846 11.4205 10.8509 11.4689 10.8253 11.5036C10.7998 11.538 10.77 11.5789 10.7362 11.6262C10.7026 11.6736 10.6703 11.717 10.6393 11.7568C10.6083 11.7963 10.584 11.8295 10.5664 11.8564C10.5489 11.8833 10.5234 11.9177 10.4896 11.9599C10.4558 12.0022 10.4235 12.0444 10.3925 12.0866C10.3614 12.1287 10.3278 12.1721 10.2913 12.2169C10.255 12.2617 10.224 12.3 10.1984 12.332C10.1727 12.364 10.1181 12.4246 10.0345 12.5142C9.95085 12.6037 9.85245 12.7059 9.73927 12.821C9.6259 12.9361 9.52622 13.0345 9.43987 13.1164C9.35352 13.1983 9.29619 13.2499 9.26789 13.2717C9.2396 13.2935 9.17351 13.3485 9.06982 13.4367C8.96594 13.5249 8.90259 13.5785 8.87959 13.5977C8.85677 13.617 8.79999 13.6642 8.70981 13.7396C8.61944 13.815 8.56011 13.8637 8.53181 13.8855C8.50352 13.9071 8.47102 13.9327 8.43469 13.9621C8.39818 13.9916 8.34779 14.0318 8.28298 14.083C8.21817 14.1341 8.16906 14.1719 8.13529 14.1961C8.1017 14.2204 8.0692 14.2422 8.03817 14.2613C8.00732 14.2805 7.95054 14.3137 7.86839 14.3609C7.78605 14.4084 7.7322 14.4402 7.70664 14.4569C7.6809 14.4736 7.65187 14.4908 7.61956 14.5087C7.58724 14.5266 7.55347 14.547 7.51842 14.57C7.48337 14.593 7.45781 14.6097 7.44156 14.6199C7.4255 14.6301 7.39045 14.648 7.33641 14.6735C7.28255 14.6992 7.21774 14.7285 7.14235 14.7617C7.06677 14.7951 7.01419 14.8167 6.98461 14.8271L6.94007 14.8424L6.89151 14.8308C6.85919 14.8232 6.82414 14.8104 6.78635 14.7925C6.74856 14.7745 6.68521 14.744 6.59613 14.7004C6.50722 14.657 6.45592 14.6301 6.44241 14.6199C6.42908 14.6097 6.39458 14.5872 6.33926 14.5528C6.28413 14.5182 6.24232 14.4927 6.21403 14.476C6.18573 14.4595 6.13041 14.4275 6.04808 14.3803C5.96593 14.3328 5.90915 14.2996 5.8783 14.2805C5.84726 14.2613 5.81477 14.2395 5.78118 14.2153C5.7474 14.191 5.70906 14.1622 5.6658 14.129C5.62271 14.0958 5.56539 14.0503 5.49401 13.9928C5.42245 13.9352 5.36037 13.8855 5.3078 13.8431C5.25522 13.8009 5.17836 13.7372 5.07722 13.6514C4.97609 13.5659 4.91146 13.5121 4.88316 13.4903C4.85487 13.4687 4.79279 13.4174 4.69713 13.3369C4.60129 13.2564 4.54816 13.2109 4.53721 13.2007C4.52644 13.1905 4.47861 13.1452 4.39372 13.0646C4.30883 12.9841 4.2495 12.9264 4.21572 12.892C4.18195 12.8574 4.10783 12.7808 3.99318 12.6618C3.87853 12.5431 3.80989 12.4701 3.78689 12.4433C3.76407 12.4164 3.73029 12.3768 3.68575 12.3243C3.64139 12.2719 3.60634 12.2298 3.58059 12.1978C3.55504 12.1658 3.52948 12.1326 3.50374 12.098C3.47818 12.0635 3.45116 12.0277 3.42286 11.9906C3.39457 11.9536 3.36901 11.9203 3.346 11.891C3.323 11.8615 3.30347 11.8353 3.2874 11.8123C3.27115 11.7893 3.24888 11.7592 3.22059 11.7221C3.19229 11.6851 3.16801 11.6519 3.14774 11.6225C3.12766 11.593 3.10064 11.5547 3.06687 11.5074C3.03328 11.4602 3.00754 11.4231 2.99001 11.3962C2.97249 11.3693 2.94419 11.3272 2.90512 11.2695C2.86605 11.2121 2.84031 11.1724 2.82826 11.1507C2.81603 11.129 2.78244 11.074 2.72713 10.9858C2.67181 10.8975 2.63548 10.8401 2.61795 10.8132C2.60043 10.7863 2.55661 10.7129 2.48651 10.5927C2.41641 10.4725 2.36383 10.3817 2.3286 10.3203C2.29354 10.259 2.26269 10.2014 2.23567 10.1476C2.20865 10.094 2.17086 10.0134 2.1223 9.90602C2.07392 9.79867 2.04964 9.74367 2.04964 9.74121C2.04964 9.73857 2.02536 9.67971 1.9768 9.56462C1.92824 9.44971 1.89045 9.35887 1.86343 9.29245C1.8366 9.22586 1.79881 9.12482 1.75025 8.98935C1.70168 8.85388 1.65312 8.70945 1.60456 8.55588C1.556 8.40249 1.50215 8.21588 1.44281 7.9959C1.38348 7.77609 1.34168 7.6125 1.31739 7.50497C1.29311 7.39761 1.25952 7.24176 1.21626 7.03706C1.17317 6.83253 1.14743 6.69829 1.1394 6.63433C1.13137 6.57038 1.11384 6.37481 1.08682 6.04747C1.0598 5.7203 1.04228 5.47343 1.03424 5.30721C1.02621 5.14116 1.01672 4.96458 1.00595 4.77798C0.995176 4.59137 0.980389 4.28582 0.961402 3.86131C0.942599 3.43679 0.933105 3.13633 0.933105 2.95992V2.6953L0.959394 2.68195C0.97692 2.67299 1.02475 2.6621 1.10307 2.64927C1.1812 2.63644 1.2891 2.61993 1.42657 2.59937C1.56422 2.57899 1.77307 2.54578 2.05366 2.49974C2.33407 2.45371 2.53489 2.4205 2.65629 2.39994C2.77769 2.37956 2.93816 2.34758 3.1377 2.304C3.33724 2.2606 3.50976 2.21966 3.65544 2.18136C3.80113 2.14305 3.92655 2.10721 4.0317 2.074C4.13686 2.04079 4.21901 2.01514 4.27834 1.99722C4.33767 1.97929 4.39445 1.96137 4.4483 1.94362C4.50216 1.9257 4.61005 1.88722 4.77198 1.82854C4.93373 1.76967 5.08544 1.71028 5.22692 1.65019C5.36859 1.5901 5.44399 1.55935 5.45348 1.55812C5.46297 1.55689 5.53107 1.52807 5.65777 1.47185C5.78446 1.41545 5.89911 1.36431 6.00153 1.31828C6.10413 1.27242 6.20526 1.22638 6.30494 1.18035C6.4048 1.13431 6.52876 1.07422 6.67718 1.00007L6.89954 0.888848H6.95212V0.888672Z" fill="#1B875A" stroke="white" stroke-width="0.888889"/>
<path d="M6.60574 3.26875C6.42866 3.45516 6.40069 3.82796 6.54982 3.96998C6.69894 4.11201 6.5871 4.23628 6.23293 4.30729C5.34751 4.48481 4.88151 5.38132 5.28227 6.12694C5.4314 6.40211 5.91605 6.68615 6.42866 6.79267C6.7269 6.8548 6.7269 6.8548 6.7269 7.37851C6.7269 7.89333 6.7269 7.90221 6.36341 8.07974C5.90673 8.29277 5.70168 8.56794 5.70168 8.93187C5.70168 9.2958 6.06517 9.72186 6.4939 9.87276L6.8201 9.97928V10.574V11.1776L6.47526 11.2042C6.12109 11.2397 6.13973 11.2663 6.66166 11.4439C6.8667 11.5238 6.9133 11.5859 6.9133 11.8522C6.9133 12.2694 7.08107 12.2516 7.15563 11.8167C7.20223 11.5415 7.27679 11.4528 7.5098 11.3374C8.30201 10.9823 8.26473 9.69523 7.45387 9.4467C7.32339 9.41119 7.28611 9.30467 7.28611 8.91411C7.28611 8.5058 7.31407 8.43479 7.46319 8.43479C7.71484 8.43479 8.24609 8.20401 8.42317 8.0176C8.50705 7.92884 8.62822 7.74244 8.68414 7.60041C8.88918 7.06783 8.38589 6.38435 7.67756 6.25121L7.37931 6.18907V5.48784C7.37931 4.70672 7.44455 4.61796 7.95716 4.78661C8.30201 4.902 8.87054 4.76886 8.87054 4.57358C8.87054 4.40493 8.23677 4.14751 7.94784 4.20077C7.56572 4.28066 7.41659 4.14751 7.54708 3.87234C7.67756 3.60605 7.56572 3.251 7.33271 3.16224C7.05311 3.0646 6.75486 3.10898 6.60574 3.26875ZM6.6337 5.46121C6.6337 6.10919 6.62438 6.12694 6.40069 6.12694C6.09313 6.12694 5.79488 5.83402 5.79488 5.52335C5.79488 5.21267 6.18633 4.83987 6.56846 4.80436C6.60574 4.79549 6.6337 5.09728 6.6337 5.46121ZM7.93852 7.01457C8.23677 7.29862 8.14357 7.56491 7.64028 7.82232C7.36067 7.96434 7.28611 7.82232 7.35135 7.29862C7.41659 6.78379 7.59368 6.68615 7.93852 7.01457ZM6.7269 8.93187C6.7269 9.36681 6.61506 9.42007 6.38205 9.08277C6.26089 8.91411 6.27021 8.86973 6.43798 8.70996C6.54982 8.60344 6.65234 8.52356 6.6803 8.52356C6.70826 8.52356 6.7269 8.70996 6.7269 8.93187ZM7.54708 10.3965C7.56572 10.6184 7.51912 10.7515 7.37931 10.8758C7.19291 11.0356 7.19291 11.0356 7.19291 10.5296C7.19291 10.0947 7.21155 10.0237 7.36067 10.0503C7.47251 10.068 7.52844 10.1746 7.54708 10.3965Z" fill="white"/>
</svg>
