<svg width="24" height="24" viewBox="0 0 24 24" fill="none" xmlns="http://www.w3.org/2000/svg">
<path fill-rule="evenodd" clip-rule="evenodd" d="M0.913585 7.34521C2.77081 2.89904 7.14651 1.77856e-07 12.0002 1.77856e-07C15.1825 -0.000545054 18.2347 1.25252 20.4852 3.48347C22.7357 5.71442 24 8.74047 24 11.8958C24.0008 16.7082 21.0777 21.0472 16.5937 22.8894C12.1098 24.7316 6.94811 23.7142 3.51575 20.3116C0.083396 16.909 -0.943639 11.7914 0.913585 7.34521ZM8.50016 6.70181C8.50016 5.96334 7.83835 5.36475 7.02093 5.36475C6.20559 5.36475 5.54378 5.96334 5.54378 6.70181C5.54378 7.44029 6.20352 8.03888 7.02093 8.03888C7.83835 8.03888 8.50016 7.44029 8.50016 6.70181ZM8.50853 16.8018H5.59156V9.24424H8.50853V16.8018ZM15.5022 16.8018H18.4337H18.4358V12.0007C18.4358 11.0051 18.2097 10.2687 17.7512 9.79149C17.2927 9.31426 16.662 9.07564 15.8528 9.07564C15.3268 9.05978 14.8048 9.17134 14.3321 9.40065C13.8502 9.67186 13.4299 10.0388 13.0977 10.4785V9.24432H10.3757V16.8018H13.2989V13.1835C13.2989 12.4841 13.4089 12.009 13.6288 11.7436C13.8358 11.4828 14.1552 11.3348 14.4898 11.3445C14.7702 11.3291 15.0433 11.4367 15.2367 11.6387C15.4137 11.8362 15.5022 12.1722 15.5022 12.6466V16.8018Z" fill="#313436"/>
</svg>
