<svg width="24" height="24" viewBox="0 0 24 24" fill="none" xmlns="http://www.w3.org/2000/svg">
<path d="M13.5199 3.33716C12.27 2.08748 10.2444 2.08748 8.99421 3.33716L3.33765 8.99396C2.08797 10.2439 2.08797 12.2695 3.33765 13.5196C4.58733 14.7688 6.61341 14.7688 7.86309 13.5196L13.5199 7.8626C14.7691 6.61292 14.7691 4.5866 13.5199 3.33716ZM6.73173 12.3883C6.10773 13.0118 5.09301 13.0125 4.46877 12.3883C3.84453 11.764 3.84477 10.7493 4.46877 10.1248L6.73125 7.86236L8.99445 10.1253L6.73173 12.3883ZM12.3888 6.73124L10.1258 8.9942L7.86285 6.731L10.1253 4.46828C10.7496 3.84404 11.7643 3.84404 12.3888 4.46828C13.013 5.09276 13.013 6.10652 12.3888 6.73124Z" fill="#313436"/>
<path d="M16.8 8.80029C14.1485 8.80029 12 10.9488 12 13.6003C12 16.2518 14.1485 18.4003 16.8 18.4003C19.4515 18.4003 21.6 16.2518 21.6 13.6003C21.6 10.9488 19.4515 8.80029 16.8 8.80029ZM13.6001 13.6003C13.6001 12.1113 14.622 10.871 15.9991 10.5137V16.6872C14.622 16.3301 13.6001 15.0893 13.6001 13.6003ZM17.5992 16.6869V10.5132C18.9773 10.8698 19.9999 12.1104 19.9999 13.6003C19.9999 15.0902 18.9773 16.3308 17.5992 16.6869Z" fill="#313436"/>
<path d="M8.80051 15.2002C7.03291 15.2002 5.60059 16.6313 5.60059 18.4001C5.60035 20.1672 7.03291 21.6 8.80051 21.6C10.5681 21.6 12.0004 20.1672 12.0004 18.4001C12.0004 16.6313 10.5681 15.2002 8.80051 15.2002ZM8.80051 20.0002C7.91683 20.0002 7.20043 19.2838 7.20043 18.4001C7.20043 17.5157 7.91683 16.8 8.80051 16.8C9.68419 16.8 10.4006 17.5157 10.4006 18.4001C10.4003 19.2838 9.68419 20.0002 8.80051 20.0002Z" fill="#313436"/>
</svg>
