<svg width="175" height="42" viewBox="0 0 175 42" fill="none" xmlns="http://www.w3.org/2000/svg">
<path d="M21.2988 29.8442C22.229 29.2877 22.4543 28.4637 22.3444 27.8714C22.242 27.3334 21.8928 26.9458 21.4219 26.819C21.3844 27.8248 21.3411 28.8344 21.2988 29.8442Z" fill="#00683D"/>
<path d="M18.6763 23.537C18.6255 24.0355 19.0172 24.5662 19.628 24.8308C19.7517 24.8616 19.8497 24.8854 19.933 24.9031C19.9107 24.1622 19.8845 23.3554 19.8552 22.4767C19.1458 22.6961 18.7221 23.0712 18.6763 23.537Z" fill="#00683D"/>
<path d="M19.2272 11.1156C17.9531 11.2309 17.1374 12.2745 17.101 13.174C17.0621 14.1291 17.8355 14.8318 19.1629 15.0534L19.1867 15.0604C19.3581 15.1019 19.5005 15.1182 19.6316 15.1223C19.5943 13.8633 19.5576 12.5166 19.514 11.0774C19.4199 11.0921 19.3249 11.1022 19.2272 11.1156Z" fill="#00683D"/>
<path d="M21.6602 20.3386C21.8139 20.3242 21.9522 20.3016 22.0723 20.2746C23.4557 19.8924 23.9937 19.093 23.9089 18.4705C23.8319 17.9204 23.2236 17.2807 21.7659 17.2188C21.7314 18.2535 21.6955 19.2917 21.6602 20.3386Z" fill="#00683D"/>
<path d="M24.4495 11.1899C23.9043 11.1899 23.4384 11.0029 22.9128 10.7802C22.5976 10.7524 22.2429 10.8077 21.9868 10.8036C21.9332 12.2872 21.8833 13.7686 21.8333 15.2277C23.0807 15.3607 23.9167 15.6512 24.5198 16.1623C25.7208 17.1264 25.916 18.1567 25.8657 18.8512C25.792 19.8836 25.113 20.9251 24.1318 21.5051L24.1144 21.5155C23.1497 21.9998 22.4003 22.2244 21.5907 22.2615C21.5603 23.1877 21.5255 24.1158 21.4902 25.0482C22.7124 25.2183 23.1154 25.7302 23.5753 26.3146L23.6065 26.3546L23.6142 26.3683C24.0992 27.1233 24.187 28.1795 23.8461 29.1828C23.5314 30.1092 22.9059 30.8261 22.1645 31.1085C21.8786 31.2401 21.5667 31.3341 21.234 31.3832C21.2064 32.0128 21.1775 32.6444 21.1474 33.2773L21.1352 33.5572L20.3339 33.5842L20.3041 33.3037C20.2677 32.9701 20.226 32.362 20.1799 31.4069C18.7678 31.2867 17.6772 30.4767 17.6772 30.4767C17.6772 30.4767 19.4523 30.5748 20.1305 30.2872C20.0894 29.3414 20.0477 28.1688 19.9947 26.7226C19.5128 26.6896 19.059 26.5651 18.5155 26.3217L18.5022 26.3157L18.4882 26.3072C17.6661 25.8313 16.8099 24.8318 16.7561 23.6729C16.726 23.0239 16.9399 22.074 18.1318 21.2312C18.611 20.9107 19.1434 20.6934 19.7946 20.5512C19.7628 19.5064 19.7283 18.372 19.6905 17.1471C18.4606 17.1193 17.6645 16.7502 16.893 16.394L16.7934 16.3465L16.7785 16.3395C15.8154 15.7687 15.1356 14.6506 15.0486 13.4947C14.981 12.6178 15.2095 11.3218 16.6816 10.1247C17.2038 9.68366 18.1152 9.39011 19.4622 9.22929L19.4449 8.63483C19.0918 8.30529 18.892 7.85501 18.892 7.38102C18.892 6.4115 19.7209 5.62133 20.7394 5.62133C21.759 5.62133 22.5891 6.4115 22.5891 7.38102C22.5891 7.84057 22.3983 8.16329 22.0654 8.49064L22.0486 8.9401C22.0486 8.9401 22.6622 9.12463 22.912 9.1309C23.2156 9.07229 23.5121 8.95318 23.7942 8.95318C25.3195 8.95318 26.6036 10.412 26.6036 10.412C26.6036 10.412 25.3733 11.1899 24.4495 11.1899ZM28.3124 10.6265V0.000198364H13.0229V10.6265H0V26.5651H13.0229V37.1921H28.3124V26.5651H42.1474V10.6265H28.3124Z" fill="#00683D"/>
<path d="M67.2635 18.4982V23.8179C67.2635 24.6563 67.0714 25.2867 66.6855 25.706C66.2993 26.1252 65.7895 26.3367 65.1571 26.3367C64.5443 26.3367 64.0475 26.1252 63.6647 25.706C63.284 25.2867 63.0958 24.6563 63.0958 23.8179V17.4423C63.0958 16.4387 63.0599 15.6556 62.9906 15.0993C62.9221 14.5411 62.7333 14.0845 62.4275 13.7269C62.1197 13.3726 61.6345 13.1946 60.9731 13.1946C59.6474 13.1946 58.7757 13.6435 58.3545 14.5411C57.9327 15.4414 57.7227 16.7293 57.7227 18.4096V23.8179C57.7227 24.6459 57.5325 25.2742 57.1529 25.7C56.7715 26.1235 56.2708 26.3367 55.6475 26.3367C55.0331 26.3367 54.5304 26.1235 54.1404 25.7C53.7479 25.2742 53.5547 24.6459 53.5547 23.8179V12.372C53.5547 11.6222 53.7297 11.0503 54.0797 10.6589C54.4311 10.2694 54.8934 10.0726 55.4684 10.0726C56.021 10.0726 56.4836 10.255 56.8559 10.6219C57.2255 10.9898 57.411 11.4943 57.411 12.1392V12.5195C58.1135 11.6892 58.8654 11.0781 59.6664 10.6889C60.468 10.2972 61.3579 10.1026 62.3367 10.1026C63.3566 10.1026 64.2319 10.3027 64.9639 10.7031C65.6973 11.1029 66.2993 11.7075 66.7741 12.5195C67.4553 11.7007 68.1884 11.0918 68.9704 10.6949C69.7518 10.3002 70.6163 10.1026 71.5653 10.1026C72.6736 10.1026 73.6278 10.318 74.4296 10.7475C75.2304 11.1782 75.8282 11.7931 76.2252 12.5936C76.5721 13.317 76.7449 14.4536 76.7449 16.0083V23.8179C76.7449 24.6563 76.5528 25.2867 76.1658 25.706C75.781 26.1252 75.2718 26.3367 74.6369 26.3367C74.0244 26.3367 73.5221 26.1235 73.1318 25.7C72.7423 25.2742 72.5455 24.6459 72.5455 23.8179V17.091C72.5455 16.2307 72.509 15.5425 72.4359 15.0263C72.3603 14.507 72.1599 14.0742 71.8344 13.7209C71.5074 13.3696 71.0133 13.1946 70.3503 13.1946C69.8161 13.1946 69.3083 13.3511 68.8307 13.6632C68.3507 13.9763 67.9762 14.3958 67.709 14.9221C67.4117 15.5962 67.2635 16.7881 67.2635 18.4982Z" fill="#00683D"/>
<path d="M84.0611 16.915H91.405C91.304 15.5478 90.9317 14.5246 90.2833 13.8459C89.6357 13.1688 88.7853 12.8276 87.7251 12.8276C86.717 12.8276 85.8873 13.1721 85.2406 13.8612C84.5903 14.5502 84.1975 15.5671 84.0611 16.915ZM91.9822 19.1868H84.0611C84.0689 20.0945 84.2557 20.8958 84.6157 21.5881C84.977 22.2826 85.4584 22.8051 86.0549 23.1573C86.6547 23.5097 87.3144 23.6847 88.0367 23.6847C88.5203 23.6847 88.9636 23.628 89.3636 23.5168C89.7644 23.4045 90.1522 23.2273 90.5303 22.9894C90.9057 22.7506 91.2507 22.4928 91.5679 22.2186C91.8845 21.9466 92.2952 21.5748 92.8004 21.1051C93.0074 20.9299 93.3033 20.8413 93.6894 20.8413C94.104 20.8413 94.4419 20.9547 94.6986 21.1793C94.9553 21.4047 95.0836 21.7209 95.0836 22.1311C95.0836 22.4928 94.9415 22.9153 94.6533 23.3996C94.366 23.8829 93.9362 24.3451 93.3557 24.7924C92.7766 25.2345 92.0501 25.6033 91.1751 25.8971C90.2987 26.1896 89.2929 26.3357 88.156 26.3357C85.5519 26.3357 83.5306 25.6033 82.0864 24.1391C80.6426 22.674 79.9199 20.6849 79.9199 18.1751C79.9199 16.9932 80.0993 15.897 80.4532 14.8863C80.8107 13.8756 81.3296 13.0083 82.0119 12.286C82.6937 11.5637 83.5347 11.0093 84.5348 10.622C85.5332 10.2366 86.6417 10.0441 87.859 10.0441C89.4395 10.0441 90.7983 10.3737 91.9309 11.0341C93.0634 11.6904 93.9122 12.5444 94.4758 13.588C95.04 14.635 95.3218 15.7002 95.3218 16.785C95.3218 17.7897 95.0295 18.4397 94.4455 18.7406C93.8622 19.0383 93.0405 19.1868 91.9822 19.1868Z" fill="#00683D"/>
<path d="M101.865 18.1749C101.865 19.2598 102.036 20.1819 102.377 20.9464C102.719 21.7055 103.185 22.2814 103.779 22.6668C104.373 23.0512 105.022 23.245 105.724 23.245C106.436 23.245 107.086 23.0615 107.676 22.6957C108.264 22.328 108.734 21.7676 109.085 21.0102C109.435 20.2538 109.61 19.3094 109.61 18.1749C109.61 17.1117 109.435 16.1958 109.085 15.4272C108.734 14.6629 108.258 14.0764 107.659 13.6694C107.063 13.2644 106.406 13.0619 105.694 13.0619C104.953 13.0619 104.29 13.2677 103.706 13.685C103.122 14.0993 102.669 14.6956 102.347 15.4735C102.027 16.2504 101.865 17.1498 101.865 18.1749ZM109.834 24.0507V23.6549C109.291 24.2698 108.753 24.7708 108.224 25.1548C107.693 25.5435 107.121 25.836 106.502 26.0349C105.886 26.2358 105.209 26.3367 104.477 26.3367C103.508 26.3367 102.609 26.1339 101.784 25.728C100.957 25.3241 100.242 24.746 99.6388 23.9918C99.0365 23.2409 98.5797 22.3558 98.2678 21.3408C97.9556 20.3252 97.7988 19.2249 97.7988 18.0441C97.7988 15.5428 98.418 13.5953 99.6543 12.1973C100.892 10.8001 102.519 10.1015 104.536 10.1015C105.703 10.1015 106.689 10.3005 107.488 10.6963C108.29 11.092 109.072 11.6988 109.834 12.5195V6.61405C109.834 5.79526 109.999 5.1749 110.33 4.7546C110.662 4.33403 111.134 4.12498 111.747 4.12498C112.361 4.12498 112.834 4.31768 113.166 4.70418C113.497 5.0885 113.663 5.65925 113.663 6.40908V24.0507C113.663 24.813 113.482 25.3849 113.127 25.7662C112.771 26.1461 112.312 26.3367 111.747 26.3367C111.193 26.3367 110.735 26.138 110.375 25.7436C110.016 25.3486 109.834 24.7841 109.834 24.0507Z" fill="#00683D"/>
<path d="M127.815 24.5048L124.24 18.7024L122.044 20.7534V23.9329C122.044 24.7056 121.838 25.299 121.431 25.7141C121.017 26.1295 120.545 26.3367 120.011 26.3367C119.389 26.3367 118.899 26.1303 118.543 25.7215C118.186 25.3115 118.01 24.7056 118.01 23.9051V6.85091C118.01 5.96071 118.181 5.28366 118.526 4.8192C118.875 4.35666 119.368 4.1247 120.011 4.1247C120.634 4.1247 121.129 4.33403 121.495 4.75433C121.862 5.17463 122.044 5.79499 122.044 6.61514V16.315L126.6 11.5966C127.164 11.0103 127.593 10.6104 127.89 10.3951C128.189 10.1819 128.548 10.0737 128.973 10.0737C129.479 10.0737 129.898 10.2324 130.234 10.5485C130.572 10.8658 130.738 11.2668 130.738 11.7437C130.738 12.33 130.19 13.1109 129.091 14.0867L126.942 16.0348L131.096 22.4823C131.403 22.9615 131.622 23.3264 131.756 23.5745C131.89 23.8239 131.956 24.0618 131.956 24.2842C131.956 24.9199 131.78 25.4206 131.429 25.7874C131.078 26.1543 130.616 26.3367 130.042 26.3367C129.547 26.3367 129.167 26.2056 128.899 25.9401C128.633 25.6784 128.271 25.1993 127.815 24.5048Z" fill="#00683D"/>
<path d="M143.958 18.2935C143.368 18.5078 142.504 18.7353 141.37 18.9744C140.239 19.2156 139.454 19.3895 139.018 19.5007C138.582 19.6133 138.168 19.8349 137.773 20.1614C137.378 20.4888 137.18 20.9453 137.18 21.5324C137.18 22.1362 137.411 22.6538 137.877 23.077C138.343 23.5003 138.949 23.7138 139.701 23.7138C140.502 23.7138 141.242 23.5415 141.92 23.1934C142.597 22.8473 143.094 22.4014 143.411 21.853C143.776 21.2481 143.958 20.25 143.958 18.864V18.2935ZM144.227 24.0804C143.248 24.8337 142.299 25.396 141.385 25.7733C140.47 26.1483 139.444 26.3367 138.307 26.3367C137.269 26.3367 136.355 26.135 135.569 25.7288C134.783 25.3238 134.177 24.7738 133.751 24.0804C133.326 23.3861 133.113 22.636 133.113 21.8232C133.113 20.7311 133.464 19.7975 134.169 19.0248C134.869 18.2543 135.832 17.7361 137.061 17.4734C137.317 17.4145 137.957 17.2817 138.974 17.0765C139.993 16.8715 140.867 16.6829 141.593 16.5131C142.321 16.3419 143.109 16.1348 143.958 15.8898C143.91 14.8357 143.695 14.0611 143.315 13.5675C142.934 13.075 142.144 12.8277 140.946 12.8277C139.92 12.8277 139.146 12.9689 138.627 13.251C138.107 13.5364 137.662 13.96 137.289 14.5277C136.92 15.0933 136.659 15.4662 136.505 15.6477C136.352 15.8279 136.022 15.9197 135.517 15.9197C135.062 15.9197 134.669 15.7766 134.337 15.4869C134.006 15.1993 133.841 14.8306 133.841 14.3814C133.841 13.6768 134.093 12.9937 134.599 12.3303C135.103 11.6658 135.888 11.1196 136.957 10.6889C138.026 10.2594 139.355 10.044 140.946 10.044C142.728 10.044 144.129 10.2512 145.145 10.6663C146.165 11.0814 146.885 11.7377 147.307 12.638C147.727 13.5364 147.937 14.7275 147.937 16.2122C147.937 17.1498 147.934 17.9463 147.929 18.6004C147.923 19.2568 147.917 19.9832 147.907 20.7845C147.907 21.5346 148.033 22.3188 148.285 23.1357C148.538 23.9506 148.662 24.4761 148.662 24.71C148.662 25.121 148.469 25.4939 148.077 25.8311C147.686 26.1666 147.243 26.3367 146.748 26.3367C146.333 26.3367 145.921 26.1429 145.518 25.7566C145.111 25.3712 144.682 24.8128 144.227 24.0804Z" fill="#00683D"/>
<path d="M156.069 20.5632V23.9051C156.069 24.7163 155.874 25.3238 155.488 25.728C155.104 26.135 154.615 26.3367 154.02 26.3367C153.437 26.3367 152.958 26.1303 152.58 25.7226C152.204 25.3115 152.016 24.7059 152.016 23.9051V12.7689C152.016 10.9713 152.676 10.0737 153.993 10.0737C154.665 10.0737 155.148 10.2839 155.446 10.7034C155.741 11.1228 155.905 11.7437 155.934 12.5628C156.42 11.7437 156.915 11.1228 157.426 10.7034C157.935 10.2839 158.615 10.0737 159.467 10.0737C160.316 10.0737 161.143 10.2839 161.944 10.7034C162.744 11.1228 163.145 11.68 163.145 12.3723C163.145 12.8618 162.977 13.2644 162.634 13.5808C162.293 13.9003 161.923 14.0589 161.529 14.0589C161.38 14.0589 161.022 13.9695 160.453 13.7869C159.882 13.6056 159.381 13.516 158.946 13.516C158.352 13.516 157.869 13.6694 157.492 13.9774C157.117 14.2846 156.824 14.742 156.616 15.3468C156.41 15.9546 156.266 16.6728 156.187 17.5093C156.109 18.3448 156.069 19.3617 156.069 20.5632Z" fill="#00683D"/>
<path d="M165.947 10.4251H166.395V8.02267C166.395 7.37751 166.411 6.87162 166.447 6.50502C166.48 6.13924 166.575 5.82497 166.736 5.56004C166.895 5.28692 167.121 5.06451 167.417 4.89361C167.715 4.7238 168.047 4.63794 168.412 4.63794C168.926 4.63794 169.391 4.82847 169.808 5.2087C170.083 5.46327 170.258 5.77345 170.334 6.13924C170.407 6.50502 170.445 7.02508 170.445 7.69886V10.4251H171.93C172.501 10.4251 172.94 10.5578 173.242 10.8279C173.545 11.0969 173.694 11.4409 173.694 11.8593C173.694 12.3968 173.478 12.774 173.05 12.9905C172.619 13.2036 172.003 13.311 171.2 13.311H170.445V20.6659C170.445 21.2912 170.465 21.7725 170.511 22.1094C170.555 22.4463 170.675 22.7186 170.868 22.9296C171.061 23.1397 171.375 23.2458 171.809 23.2458C172.046 23.2458 172.369 23.2027 172.774 23.119C173.18 23.0378 173.496 22.9956 173.724 22.9956C174.051 22.9956 174.343 23.1253 174.604 23.3829C174.868 23.6424 175 23.964 175 24.3431C175 24.9891 174.643 25.4824 173.931 25.8248C173.218 26.1658 172.196 26.3367 170.859 26.3367C169.594 26.3367 168.634 26.1254 167.98 25.706C167.33 25.2867 166.9 24.7059 166.698 23.964C166.495 23.2221 166.395 22.2291 166.395 20.9884V13.311H165.859C165.274 13.311 164.833 13.1739 164.523 12.9019C164.217 12.6288 164.064 12.2807 164.064 11.8593C164.064 11.4409 164.225 11.0969 164.546 10.8279C164.868 10.5578 165.336 10.4251 165.947 10.4251Z" fill="#00683D"/>
<path d="M116.911 35.8147C116.911 35.3532 116.839 34.9572 116.697 34.6257C116.554 34.2946 116.356 34.04 116.103 33.8628C115.849 33.6856 115.569 33.5965 115.261 33.5965C114.773 33.5965 114.361 33.787 114.025 34.1673C113.69 34.5478 113.523 35.1076 113.523 35.8468C113.523 36.5435 113.689 37.0851 114.022 37.4716C114.355 37.8584 114.769 38.0519 115.261 38.0519C115.556 38.0519 115.829 37.9674 116.08 37.7984C116.33 37.6297 116.532 37.3762 116.684 37.0387C116.835 36.7013 116.911 36.2933 116.911 35.8147ZM113.438 33.2697V33.4815C113.771 33.0756 114.117 32.7774 114.476 32.5875C114.836 32.3972 115.242 32.3018 115.697 32.3018C116.242 32.3018 116.744 32.4408 117.203 32.7188C117.661 32.9963 118.024 33.4024 118.29 33.9364C118.556 34.4706 118.689 35.1033 118.689 35.834C118.689 36.3723 118.613 36.867 118.459 37.3179C118.305 37.7687 118.094 38.1467 117.826 38.4526C117.557 38.7581 117.24 38.9928 116.875 39.1577C116.509 39.322 116.117 39.4041 115.697 39.4041C115.191 39.4041 114.765 39.3038 114.421 39.1026C114.077 38.902 113.75 38.6074 113.438 38.2181V40.8465C113.438 41.6157 113.155 42 112.587 42C112.254 42 112.034 41.9008 111.925 41.7024C111.817 41.5037 111.764 41.2139 111.764 40.8337V33.2828C111.764 32.9494 111.837 32.7006 111.984 32.5362C112.131 32.3716 112.332 32.289 112.587 32.289C112.838 32.289 113.043 32.3738 113.201 32.5425C113.359 32.7112 113.438 32.9541 113.438 33.2697Z" fill="#00683D"/>
<path d="M121.844 30.7509V33.3468C122.069 33.0906 122.288 32.8875 122.503 32.7382C122.717 32.5885 122.954 32.4765 123.213 32.4013C123.473 32.3266 123.752 32.2893 124.051 32.2893C124.501 32.2893 124.9 32.3833 125.249 32.5714C125.597 32.7594 125.87 33.0328 126.069 33.3918C126.196 33.6011 126.28 33.8353 126.323 34.0936C126.366 34.3523 126.388 34.6505 126.388 34.9879V38.3402C126.388 38.6907 126.307 38.9557 126.144 39.1353C125.982 39.3144 125.767 39.4041 125.499 39.4041C124.915 39.4041 124.622 39.0497 124.622 38.3402V35.3851C124.622 34.8255 124.538 34.3948 124.369 34.0936C124.2 33.7925 123.88 33.6417 123.409 33.6417C123.092 33.6417 122.808 33.7306 122.555 33.9078C122.302 34.0852 122.113 34.3275 121.987 34.6352C121.892 34.8958 121.844 35.3594 121.844 36.0261V38.3402C121.844 38.6861 121.765 38.95 121.607 39.1318C121.449 39.3133 121.229 39.4041 120.948 39.4041C120.364 39.4041 120.072 39.0497 120.072 38.3402V30.7509C120.072 30.3963 120.148 30.1305 120.302 29.9528C120.456 29.7757 120.671 29.6871 120.948 29.6871C121.229 29.6871 121.449 29.7767 121.607 29.9564C121.765 30.1354 121.844 30.4004 121.844 30.7509Z" fill="#00683D"/>
<path d="M132.503 35.8852C132.243 35.9793 131.866 36.0785 131.37 36.1834C130.874 36.2881 130.531 36.3652 130.341 36.414C130.151 36.4633 129.969 36.5593 129.796 36.7026C129.623 36.8457 129.536 37.0455 129.536 37.3017C129.536 37.5667 129.638 37.7921 129.841 37.9783C130.044 38.1639 130.311 38.2565 130.64 38.2565C130.99 38.2565 131.314 38.1813 131.611 38.029C131.907 37.878 132.124 37.6823 132.263 37.4429C132.423 37.1777 132.503 36.7422 132.503 36.1352V35.8852ZM132.62 38.4171C132.191 38.7464 131.777 38.9928 131.377 39.1577C130.976 39.322 130.527 39.4041 130.029 39.4041C129.575 39.4041 129.176 39.3155 128.832 39.1383C128.488 38.9611 128.223 38.7205 128.037 38.4171C127.851 38.1137 127.758 37.7847 127.758 37.4299C127.758 36.9512 127.911 36.5435 128.218 36.2058C128.526 35.8683 128.947 35.6415 129.484 35.5263C129.597 35.5006 129.876 35.4431 130.322 35.3532C130.767 35.2635 131.15 35.1815 131.467 35.1068C131.786 35.0318 132.131 34.9408 132.503 34.8339C132.481 34.3725 132.387 34.034 132.221 33.8181C132.054 33.6022 131.709 33.4945 131.185 33.4945C130.735 33.4945 130.396 33.5564 130.169 33.6802C129.942 33.8042 129.748 33.9901 129.585 34.2381C129.423 34.4859 129.308 34.6494 129.241 34.7285C129.174 34.8075 129.03 34.8467 128.809 34.8467C128.61 34.8467 128.438 34.7838 128.294 34.6576C128.148 34.5317 128.076 34.3703 128.076 34.1741C128.076 33.8661 128.186 33.567 128.407 33.2765C128.628 32.9857 128.972 32.7464 129.439 32.5586C129.906 32.3705 130.488 32.2764 131.185 32.2764C131.964 32.2764 132.576 32.3672 133.022 32.549C133.468 32.7305 133.782 33.0181 133.966 33.4109C134.151 33.8042 134.242 34.3256 134.242 34.9749C134.242 35.3851 134.241 35.7334 134.239 36.0199C134.237 36.3061 134.234 36.6244 134.229 36.9749C134.229 37.3039 134.285 37.6468 134.395 38.0033C134.505 38.3604 134.56 38.5902 134.56 38.6929C134.56 38.8723 134.475 39.0358 134.304 39.1833C134.133 39.3305 133.94 39.4041 133.723 39.4041C133.541 39.4041 133.361 39.3198 133.184 39.1508C133.007 38.9821 132.819 38.7376 132.62 38.4171Z" fill="#00683D"/>
<path d="M137.799 36.879V38.3402C137.799 38.6951 137.714 38.9614 137.546 39.1383C137.378 39.3154 137.163 39.4043 136.903 39.4043C136.648 39.4043 136.438 39.3146 136.274 39.1353C136.109 38.9557 136.027 38.6907 136.027 38.3402V33.4689C136.027 32.6825 136.315 32.2892 136.891 32.2892C137.184 32.2892 137.397 32.3814 137.527 32.5651C137.656 32.749 137.728 33.02 137.741 33.3792C137.953 33.02 138.17 32.749 138.393 32.5651C138.616 32.3814 138.913 32.2892 139.286 32.2892C139.658 32.2892 140.019 32.3814 140.37 32.5651C140.721 32.749 140.896 32.9924 140.896 33.2958C140.896 33.5098 140.821 33.6859 140.671 33.8243C140.522 33.9633 140.361 34.0331 140.188 34.0331C140.123 34.0331 139.966 33.9933 139.717 33.9143C139.469 33.8355 139.249 33.7957 139.059 33.7957C138.799 33.7957 138.587 33.863 138.423 33.9979C138.258 34.1323 138.13 34.3318 138.04 34.597C137.948 34.862 137.886 35.1771 137.851 35.5426C137.816 35.9078 137.799 36.3535 137.799 36.879Z" fill="#00683D"/>
<path d="M147.756 35.9752V38.3018C147.756 38.6695 147.671 38.9451 147.503 39.1285C147.334 39.3122 147.111 39.4041 146.834 39.4041C146.566 39.4041 146.348 39.3122 146.181 39.1285C146.015 38.9451 145.932 38.6695 145.932 38.3018V35.5134C145.932 35.073 145.916 34.7315 145.886 34.488C145.856 34.2441 145.774 34.0446 145.64 33.8884C145.505 33.7325 145.293 33.6545 145.004 33.6545C144.424 33.6545 144.042 33.8511 143.858 34.2441C143.673 34.6374 143.582 35.2014 143.582 35.9365V38.3018C143.582 38.6649 143.498 38.9393 143.332 39.1252C143.165 39.3114 142.946 39.4041 142.673 39.4041C142.405 39.4041 142.185 39.3114 142.015 39.1252C141.843 38.9393 141.758 38.6649 141.758 38.3018V33.2956C141.758 32.9669 141.835 32.7164 141.989 32.5457C142.142 32.3748 142.344 32.2893 142.595 32.2893C142.838 32.2893 143.04 32.3694 143.202 32.5294C143.365 32.6897 143.446 32.9113 143.446 33.1934V33.3596C143.753 32.9963 144.082 32.7295 144.432 32.5586C144.783 32.3879 145.172 32.3018 145.601 32.3018C146.046 32.3018 146.429 32.3896 146.749 32.5648C147.07 32.7404 147.334 33.0053 147.541 33.3596C147.841 33.0009 148.16 32.7346 148.502 32.5621C148.844 32.3885 149.223 32.3018 149.638 32.3018C150.123 32.3018 150.541 32.3961 150.891 32.5842C151.241 32.7722 151.503 33.0415 151.676 33.3918C151.828 33.7082 151.903 34.2059 151.903 34.8852V38.3018C151.903 38.6695 151.819 38.9451 151.65 39.1285C151.482 39.3122 151.259 39.4041 150.982 39.4041C150.713 39.4041 150.494 39.3114 150.323 39.1252C150.152 38.9393 150.066 38.6649 150.066 38.3018V35.3594C150.066 34.9838 150.051 34.6821 150.018 34.4559C149.985 34.2294 149.898 34.0389 149.755 33.8854C149.612 33.7317 149.396 33.6545 149.106 33.6545C148.872 33.6545 148.65 33.723 148.441 33.8598C148.231 33.9966 148.067 34.18 147.95 34.4112C147.82 34.7058 147.756 35.2272 147.756 35.9752Z" fill="#00683D"/>
<path d="M157.987 35.8852C157.728 35.9793 157.35 36.0785 156.855 36.1834C156.359 36.2881 156.016 36.3652 155.826 36.414C155.635 36.4633 155.453 36.5593 155.28 36.7026C155.107 36.8457 155.021 37.0455 155.021 37.3017C155.021 37.5667 155.122 37.7921 155.325 37.9783C155.529 38.1639 155.795 38.2565 156.124 38.2565C156.475 38.2565 156.798 38.1813 157.095 38.029C157.391 37.878 157.609 37.6823 157.747 37.4429C157.907 37.1777 157.987 36.7422 157.987 36.1352V35.8852ZM158.105 38.4171C157.675 38.7464 157.261 38.9928 156.861 39.1577C156.461 39.322 156.012 39.4041 155.514 39.4041C155.06 39.4041 154.66 39.3155 154.317 39.1383C153.973 38.9611 153.708 38.7205 153.521 38.4171C153.335 38.1137 153.242 37.7847 153.242 37.4299C153.242 36.9512 153.396 36.5435 153.703 36.2058C154.01 35.8683 154.432 35.6415 154.968 35.5263C155.082 35.5006 155.36 35.4431 155.807 35.3532C156.252 35.2635 156.634 35.1815 156.952 35.1068C157.27 35.0318 157.615 34.9408 157.987 34.8339C157.966 34.3725 157.871 34.034 157.705 33.8181C157.538 33.6022 157.193 33.4945 156.67 33.4945C156.219 33.4945 155.881 33.5564 155.654 33.6802C155.427 33.8042 155.232 33.9901 155.069 34.2381C154.907 34.4859 154.793 34.6494 154.725 34.7285C154.658 34.8075 154.514 34.8467 154.294 34.8467C154.095 34.8467 153.923 34.7838 153.778 34.6576C153.633 34.5317 153.561 34.3703 153.561 34.1741C153.561 33.8661 153.67 33.567 153.892 33.2765C154.112 32.9857 154.456 32.7464 154.923 32.5586C155.391 32.3705 155.973 32.2764 156.67 32.2764C157.449 32.2764 158.061 32.3672 158.507 32.549C158.952 32.7305 159.267 33.0181 159.451 33.4109C159.635 33.8042 159.727 34.3256 159.727 34.9749C159.727 35.3851 159.725 35.7334 159.724 36.0199C159.722 36.3061 159.718 36.6244 159.714 36.9749C159.714 37.3039 159.769 37.6468 159.879 38.0033C159.99 38.3604 160.045 38.5902 160.045 38.6929C160.045 38.8723 159.96 39.0358 159.788 39.1833C159.618 39.3305 159.424 39.4041 159.207 39.4041C159.026 39.4041 158.846 39.3198 158.669 39.1508C158.491 38.9821 158.304 38.7376 158.105 38.4171Z" fill="#00683D"/>
<path d="M167.879 37.2376C167.879 37.4556 167.813 37.6884 167.68 37.9362C167.548 38.1842 167.347 38.42 167.077 38.6446C166.806 38.8689 166.465 39.0496 166.054 39.1861C165.643 39.323 165.181 39.3911 164.665 39.3911C163.571 39.3911 162.715 39.0763 162.101 38.4459C161.487 37.8157 161.18 36.9707 161.18 35.911C161.18 35.193 161.32 34.5582 161.601 34.0068C161.883 33.456 162.29 33.0294 162.822 32.7282C163.354 32.427 163.99 32.2763 164.73 32.2763C165.189 32.2763 165.609 32.3426 165.992 32.4753C166.376 32.6078 166.7 32.7789 166.966 32.988C167.233 33.1973 167.436 33.4203 167.576 33.6577C167.717 33.8948 167.788 34.1159 167.788 34.3211C167.788 34.5302 167.709 34.7079 167.551 34.8532C167.392 34.9984 167.201 35.0709 166.976 35.0709C166.829 35.0709 166.707 35.0336 166.609 34.9589C166.512 34.884 166.403 34.7635 166.282 34.5969C166.065 34.272 165.839 34.0284 165.604 33.8659C165.367 33.7037 165.067 33.6222 164.704 33.6222C164.181 33.6222 163.758 33.8242 163.438 34.2282C163.118 34.6318 162.958 35.1843 162.958 35.8851C162.958 36.2144 162.999 36.5166 163.081 36.7922C163.164 37.0678 163.283 37.3027 163.438 37.4973C163.594 37.6914 163.783 37.8391 164.003 37.9397C164.224 38.04 164.467 38.0902 164.73 38.0902C165.085 38.0902 165.389 38.0089 165.642 37.8465C165.895 37.6843 166.119 37.4363 166.314 37.1029C166.422 36.9064 166.539 36.7527 166.665 36.6415C166.79 36.5305 166.944 36.4749 167.125 36.4749C167.342 36.4749 167.521 36.5562 167.664 36.7186C167.807 36.8808 167.879 37.0539 167.879 37.2376Z" fill="#00683D"/>
<path d="M170.716 39.6219L170.879 39.2307L168.697 33.8083C168.563 33.4965 168.496 33.2694 168.496 33.1291C168.496 32.9794 168.535 32.8401 168.612 32.712C168.69 32.5839 168.798 32.4814 168.934 32.4046C169.07 32.3274 169.212 32.289 169.359 32.289C169.614 32.289 169.807 32.3694 169.937 32.5294C170.066 32.6894 170.181 32.9192 170.281 33.2185L171.78 37.5258L173.202 33.5199C173.314 33.1953 173.416 32.9407 173.507 32.7567C173.598 32.5736 173.695 32.4496 173.796 32.3852C173.898 32.3212 174.042 32.289 174.228 32.289C174.362 32.289 174.49 32.3242 174.614 32.3948C174.737 32.4651 174.832 32.5605 174.899 32.6799C174.966 32.7998 175 32.926 175 33.0582C174.983 33.1397 174.955 33.255 174.915 33.4044C174.877 33.554 174.829 33.7058 174.773 33.8595L172.462 39.8334C172.263 40.3589 172.068 40.7715 171.877 41.0705C171.688 41.3696 171.435 41.5993 171.122 41.7596C170.808 41.9199 170.385 42 169.853 42C169.333 42 168.943 41.9444 168.684 41.8332C168.424 41.722 168.295 41.5192 168.295 41.2245C168.295 41.0234 168.356 40.8686 168.479 40.7598C168.603 40.6505 168.786 40.5963 169.028 40.5963C169.123 40.5963 169.216 40.6091 169.307 40.635C169.42 40.6606 169.517 40.6729 169.599 40.6729C169.803 40.6729 169.963 40.6432 170.08 40.5835C170.196 40.5235 170.302 40.4202 170.394 40.2725C170.487 40.1253 170.595 39.9083 170.716 39.6219Z" fill="#00683D"/>
</svg>
