<svg width="175" height="42" viewBox="0 0 175 42" fill="none" xmlns="http://www.w3.org/2000/svg">
<path d="M21.2998 29.8442C22.23 29.2877 22.4552 28.4637 22.3454 27.8714C22.243 27.3334 21.8938 26.9458 21.4229 26.819C21.3854 27.8248 21.342 28.8344 21.2998 29.8442Z" fill="white"/>
<path d="M18.6753 23.537C18.6245 24.0355 19.0162 24.5662 19.627 24.8308C19.7507 24.8616 19.8487 24.8854 19.9321 24.9031C19.9097 24.1622 19.8835 23.3554 19.8542 22.4767C19.1448 22.6961 18.7211 23.0712 18.6753 23.537Z" fill="white"/>
<path d="M19.2263 11.1156C17.9521 11.2309 17.1365 12.2745 17.1 13.174C17.0611 14.1291 17.8345 14.8318 19.1619 15.0534L19.1857 15.0604C19.3571 15.1019 19.4995 15.1182 19.6306 15.1223C19.5934 13.8633 19.5567 12.5166 19.513 11.0774C19.4189 11.0921 19.324 11.1022 19.2263 11.1156Z" fill="white"/>
<path d="M21.6602 20.3386C21.8139 20.3242 21.9522 20.3016 22.0723 20.2746C23.4557 19.8924 23.9937 19.093 23.9089 18.4705C23.8319 17.9204 23.2236 17.2807 21.7659 17.2188C21.7314 18.2535 21.6955 19.2917 21.6602 20.3386Z" fill="white"/>
<path d="M24.4495 11.1897C23.9043 11.1897 23.4384 11.0028 22.9128 10.7801C22.5976 10.7523 22.2429 10.8076 21.9868 10.8035C21.9332 12.2871 21.8833 13.7685 21.8333 15.2275C23.0807 15.3605 23.9167 15.6511 24.5198 16.1622C25.7208 17.1262 25.916 18.1565 25.8657 18.851C25.792 19.8835 25.113 20.925 24.1318 21.505L24.1144 21.5154C23.1497 21.9997 22.4003 22.2243 21.5907 22.2614C21.5603 23.1876 21.5255 24.1157 21.4902 25.0481C22.7124 25.2182 23.1154 25.7301 23.5753 26.3144L23.6065 26.3545L23.6142 26.3681C24.0992 27.1231 24.187 28.1793 23.8461 29.1827C23.5314 30.1091 22.9059 30.826 22.1645 31.1083C21.8786 31.24 21.5667 31.334 21.234 31.3831C21.2064 32.0127 21.1775 32.6442 21.1474 33.2771L21.1352 33.5571L20.3339 33.5841L20.3041 33.3036C20.2677 32.97 20.226 32.3619 20.1799 31.4068C18.7678 31.2866 17.6772 30.4765 17.6772 30.4765C17.6772 30.4765 19.4523 30.5747 20.1305 30.2871C20.0894 29.3413 20.0477 28.1687 19.9947 26.7225C19.5128 26.6895 19.059 26.5649 18.5155 26.3215L18.5022 26.3155L18.4882 26.3071C17.6661 25.8312 16.8099 24.8317 16.7561 23.6727C16.726 23.0237 16.9399 22.0739 18.1318 21.2311C18.611 20.9105 19.1434 20.6933 19.7946 20.551C19.7628 19.5063 19.7283 18.3719 19.6905 17.1469C18.4606 17.1191 17.6645 16.7501 16.893 16.3938L16.7934 16.3464L16.7785 16.3393C15.8154 15.7686 15.1356 14.6505 15.0486 13.4946C14.981 12.6177 15.2095 11.3217 16.6816 10.1246C17.2038 9.68354 18.1152 9.38998 19.4622 9.22917L19.4449 8.6347C19.0918 8.30517 18.892 7.85489 18.892 7.3809C18.892 6.41138 19.7209 5.62121 20.7394 5.62121C21.759 5.62121 22.5891 6.41138 22.5891 7.3809C22.5891 7.84045 22.3983 8.16316 22.0654 8.49052L22.0486 8.93998C22.0486 8.93998 22.6622 9.12451 22.912 9.13077C23.2156 9.07217 23.5121 8.95306 23.7942 8.95306C25.3195 8.95306 26.6036 10.4118 26.6036 10.4118C26.6036 10.4118 25.3733 11.1897 24.4495 11.1897ZM28.3124 10.6263V7.62939e-05H13.0229V10.6263H0V26.5649H13.0229V37.192H28.3124V26.5649H42.1474V10.6263H28.3124Z" fill="white"/>
<path d="M67.2635 18.4982V23.8179C67.2635 24.6563 67.0714 25.2867 66.6855 25.706C66.2993 26.1252 65.7895 26.3367 65.1571 26.3367C64.5443 26.3367 64.0475 26.1252 63.6647 25.706C63.284 25.2867 63.0958 24.6563 63.0958 23.8179V17.4423C63.0958 16.4387 63.0599 15.6556 62.9906 15.0993C62.9221 14.5411 62.7333 14.0845 62.4275 13.7269C62.1197 13.3726 61.6345 13.1946 60.9731 13.1946C59.6474 13.1946 58.7757 13.6435 58.3545 14.5411C57.9327 15.4414 57.7227 16.7293 57.7227 18.4096V23.8179C57.7227 24.6459 57.5325 25.2742 57.1529 25.7C56.7715 26.1235 56.2708 26.3367 55.6475 26.3367C55.0331 26.3367 54.5304 26.1235 54.1404 25.7C53.7479 25.2742 53.5547 24.6459 53.5547 23.8179V12.372C53.5547 11.6222 53.7297 11.0503 54.0797 10.6589C54.4311 10.2694 54.8934 10.0726 55.4684 10.0726C56.021 10.0726 56.4836 10.255 56.8559 10.6219C57.2255 10.9898 57.411 11.4943 57.411 12.1392V12.5195C58.1135 11.6892 58.8654 11.0781 59.6664 10.6889C60.468 10.2972 61.3579 10.1026 62.3367 10.1026C63.3566 10.1026 64.2319 10.3027 64.9639 10.7031C65.6973 11.1029 66.2993 11.7075 66.7741 12.5195C67.4553 11.7007 68.1884 11.0918 68.9704 10.6949C69.7518 10.3002 70.6163 10.1026 71.5653 10.1026C72.6736 10.1026 73.6278 10.318 74.4296 10.7475C75.2304 11.1782 75.8282 11.7931 76.2252 12.5936C76.5721 13.317 76.7449 14.4536 76.7449 16.0083V23.8179C76.7449 24.6563 76.5528 25.2867 76.1658 25.706C75.781 26.1252 75.2718 26.3367 74.6369 26.3367C74.0244 26.3367 73.5221 26.1235 73.1318 25.7C72.7423 25.2742 72.5455 24.6459 72.5455 23.8179V17.091C72.5455 16.2307 72.509 15.5425 72.4359 15.0263C72.3603 14.507 72.1599 14.0742 71.8344 13.7209C71.5074 13.3696 71.0133 13.1946 70.3503 13.1946C69.8161 13.1946 69.3083 13.3511 68.8307 13.6632C68.3507 13.9763 67.9762 14.3958 67.709 14.9221C67.4117 15.5962 67.2635 16.7881 67.2635 18.4982Z" fill="white"/>
<path d="M84.0611 16.915H91.405C91.304 15.5478 90.9317 14.5246 90.2833 13.8459C89.6357 13.1688 88.7853 12.8276 87.7251 12.8276C86.717 12.8276 85.8873 13.1721 85.2406 13.8612C84.5903 14.5502 84.1975 15.5671 84.0611 16.915ZM91.9822 19.1868H84.0611C84.0689 20.0945 84.2557 20.8958 84.6157 21.5881C84.977 22.2826 85.4584 22.8051 86.0549 23.1573C86.6547 23.5097 87.3144 23.6847 88.0367 23.6847C88.5203 23.6847 88.9636 23.628 89.3636 23.5168C89.7644 23.4045 90.1522 23.2273 90.5303 22.9894C90.9057 22.7506 91.2507 22.4928 91.5679 22.2186C91.8845 21.9466 92.2952 21.5748 92.8004 21.1051C93.0074 20.9299 93.3033 20.8413 93.6894 20.8413C94.104 20.8413 94.4419 20.9547 94.6986 21.1793C94.9553 21.4047 95.0836 21.7209 95.0836 22.1311C95.0836 22.4928 94.9415 22.9153 94.6533 23.3996C94.366 23.8829 93.9362 24.3451 93.3557 24.7924C92.7766 25.2345 92.0501 25.6033 91.1751 25.8971C90.2987 26.1896 89.2929 26.3357 88.156 26.3357C85.5519 26.3357 83.5306 25.6033 82.0864 24.1391C80.6426 22.674 79.9199 20.6849 79.9199 18.1751C79.9199 16.9932 80.0993 15.897 80.4532 14.8863C80.8107 13.8756 81.3296 13.0083 82.0119 12.286C82.6937 11.5637 83.5347 11.0093 84.5348 10.622C85.5332 10.2366 86.6417 10.0441 87.859 10.0441C89.4395 10.0441 90.7983 10.3737 91.9309 11.0341C93.0634 11.6904 93.9122 12.5444 94.4758 13.588C95.04 14.635 95.3218 15.7002 95.3218 16.785C95.3218 17.7897 95.0295 18.4397 94.4455 18.7406C93.8622 19.0383 93.0405 19.1868 91.9822 19.1868Z" fill="white"/>
<path d="M101.864 18.1749C101.864 19.2598 102.035 20.1819 102.376 20.9464C102.718 21.7055 103.184 22.2814 103.778 22.6668C104.372 23.0512 105.021 23.245 105.723 23.245C106.436 23.245 107.085 23.0615 107.675 22.6957C108.263 22.328 108.733 21.7676 109.084 21.0102C109.434 20.2538 109.609 19.3094 109.609 18.1749C109.609 17.1117 109.434 16.1958 109.084 15.4272C108.733 14.6629 108.257 14.0764 107.658 13.6694C107.062 13.2644 106.405 13.0619 105.693 13.0619C104.952 13.0619 104.289 13.2677 103.705 13.685C103.121 14.0993 102.668 14.6956 102.346 15.4735C102.026 16.2504 101.864 17.1498 101.864 18.1749ZM109.833 24.0507V23.6549C109.29 24.2698 108.752 24.7708 108.223 25.1548C107.692 25.5435 107.12 25.836 106.501 26.0349C105.885 26.2358 105.208 26.3367 104.476 26.3367C103.507 26.3367 102.608 26.1339 101.783 25.728C100.956 25.3241 100.241 24.746 99.6378 23.9918C99.0355 23.2409 98.5787 22.3558 98.2668 21.3408C97.9546 20.3252 97.7979 19.2249 97.7979 18.0441C97.7979 15.5428 98.417 13.5953 99.6533 12.1973C100.891 10.8001 102.518 10.1015 104.535 10.1015C105.702 10.1015 106.688 10.3005 107.487 10.6963C108.289 11.092 109.071 11.6988 109.833 12.5195V6.61405C109.833 5.79526 109.998 5.1749 110.329 4.7546C110.661 4.33403 111.133 4.12498 111.746 4.12498C112.36 4.12498 112.833 4.31768 113.165 4.70418C113.496 5.0885 113.662 5.65925 113.662 6.40908V24.0507C113.662 24.813 113.481 25.3849 113.126 25.7662C112.77 26.1461 112.311 26.3367 111.746 26.3367C111.192 26.3367 110.734 26.138 110.374 25.7436C110.015 25.3486 109.833 24.7841 109.833 24.0507Z" fill="white"/>
<path d="M127.815 24.5048L124.24 18.7024L122.044 20.7534V23.9329C122.044 24.7056 121.838 25.299 121.431 25.7141C121.017 26.1295 120.545 26.3367 120.011 26.3367C119.389 26.3367 118.899 26.1303 118.543 25.7215C118.186 25.3115 118.01 24.7056 118.01 23.9051V6.85091C118.01 5.96071 118.181 5.28366 118.526 4.8192C118.875 4.35666 119.368 4.1247 120.011 4.1247C120.634 4.1247 121.129 4.33403 121.495 4.75433C121.862 5.17463 122.044 5.79499 122.044 6.61514V16.315L126.6 11.5966C127.164 11.0103 127.593 10.6104 127.89 10.3951C128.189 10.1819 128.548 10.0737 128.973 10.0737C129.479 10.0737 129.898 10.2324 130.234 10.5485C130.572 10.8658 130.738 11.2668 130.738 11.7437C130.738 12.33 130.19 13.1109 129.091 14.0867L126.942 16.0348L131.096 22.4823C131.403 22.9615 131.622 23.3264 131.756 23.5745C131.89 23.8239 131.956 24.0618 131.956 24.2842C131.956 24.9199 131.78 25.4206 131.429 25.7874C131.078 26.1543 130.616 26.3367 130.042 26.3367C129.547 26.3367 129.167 26.2056 128.899 25.9401C128.633 25.6784 128.271 25.1993 127.815 24.5048Z" fill="white"/>
<path d="M143.958 18.2935C143.368 18.5078 142.504 18.7353 141.37 18.9744C140.239 19.2156 139.454 19.3895 139.018 19.5007C138.582 19.6133 138.168 19.8349 137.773 20.1614C137.378 20.4888 137.18 20.9453 137.18 21.5324C137.18 22.1362 137.411 22.6538 137.877 23.077C138.343 23.5003 138.949 23.7138 139.701 23.7138C140.502 23.7138 141.242 23.5415 141.92 23.1934C142.597 22.8473 143.094 22.4014 143.411 21.853C143.776 21.2481 143.958 20.25 143.958 18.864V18.2935ZM144.227 24.0804C143.248 24.8337 142.299 25.396 141.385 25.7733C140.47 26.1483 139.444 26.3367 138.307 26.3367C137.269 26.3367 136.355 26.135 135.569 25.7288C134.783 25.3238 134.177 24.7738 133.751 24.0804C133.326 23.3861 133.113 22.636 133.113 21.8232C133.113 20.7311 133.464 19.7975 134.169 19.0248C134.869 18.2543 135.832 17.7361 137.061 17.4734C137.317 17.4145 137.957 17.2817 138.974 17.0765C139.993 16.8715 140.867 16.6829 141.593 16.5131C142.321 16.3419 143.109 16.1348 143.958 15.8898C143.91 14.8357 143.695 14.0611 143.315 13.5675C142.934 13.075 142.144 12.8277 140.946 12.8277C139.92 12.8277 139.146 12.9689 138.627 13.251C138.107 13.5364 137.662 13.96 137.289 14.5277C136.92 15.0933 136.659 15.4662 136.505 15.6477C136.352 15.8279 136.022 15.9197 135.517 15.9197C135.062 15.9197 134.669 15.7766 134.337 15.4869C134.006 15.1993 133.841 14.8306 133.841 14.3814C133.841 13.6768 134.093 12.9937 134.599 12.3303C135.103 11.6658 135.888 11.1196 136.957 10.6889C138.026 10.2594 139.355 10.044 140.946 10.044C142.728 10.044 144.129 10.2512 145.145 10.6663C146.165 11.0814 146.885 11.7377 147.307 12.638C147.727 13.5364 147.937 14.7275 147.937 16.2122C147.937 17.1498 147.934 17.9463 147.929 18.6004C147.923 19.2568 147.917 19.9832 147.907 20.7845C147.907 21.5346 148.033 22.3188 148.285 23.1357C148.538 23.9506 148.662 24.4761 148.662 24.71C148.662 25.121 148.469 25.4939 148.077 25.8311C147.686 26.1666 147.243 26.3367 146.748 26.3367C146.333 26.3367 145.921 26.1429 145.518 25.7566C145.111 25.3712 144.682 24.8128 144.227 24.0804Z" fill="white"/>
<path d="M156.068 20.5632V23.9051C156.068 24.7163 155.873 25.3238 155.487 25.728C155.103 26.135 154.614 26.3367 154.019 26.3367C153.436 26.3367 152.957 26.1303 152.579 25.7226C152.203 25.3115 152.015 24.7059 152.015 23.9051V12.7689C152.015 10.9713 152.675 10.0737 153.992 10.0737C154.664 10.0737 155.147 10.2839 155.445 10.7034C155.74 11.1228 155.904 11.7437 155.933 12.5628C156.419 11.7437 156.914 11.1228 157.425 10.7034C157.934 10.2839 158.614 10.0737 159.466 10.0737C160.315 10.0737 161.142 10.2839 161.943 10.7034C162.743 11.1228 163.144 11.68 163.144 12.3723C163.144 12.8618 162.976 13.2644 162.633 13.5808C162.292 13.9003 161.922 14.0589 161.528 14.0589C161.379 14.0589 161.021 13.9695 160.452 13.7869C159.881 13.6056 159.38 13.516 158.945 13.516C158.351 13.516 157.868 13.6694 157.491 13.9774C157.116 14.2846 156.823 14.742 156.615 15.3468C156.409 15.9546 156.265 16.6728 156.186 17.5093C156.108 18.3448 156.068 19.3617 156.068 20.5632Z" fill="white"/>
<path d="M165.947 10.4251H166.395V8.02267C166.395 7.37751 166.411 6.87162 166.447 6.50502C166.48 6.13924 166.575 5.82497 166.736 5.56004C166.895 5.28692 167.121 5.06451 167.417 4.89361C167.715 4.7238 168.047 4.63794 168.412 4.63794C168.926 4.63794 169.391 4.82847 169.808 5.2087C170.083 5.46327 170.258 5.77345 170.334 6.13924C170.407 6.50502 170.445 7.02508 170.445 7.69886V10.4251H171.93C172.501 10.4251 172.94 10.5578 173.242 10.8279C173.545 11.0969 173.694 11.4409 173.694 11.8593C173.694 12.3968 173.478 12.774 173.05 12.9905C172.619 13.2036 172.003 13.311 171.2 13.311H170.445V20.6659C170.445 21.2912 170.465 21.7725 170.511 22.1094C170.555 22.4463 170.675 22.7186 170.868 22.9296C171.061 23.1397 171.375 23.2458 171.809 23.2458C172.046 23.2458 172.369 23.2027 172.774 23.119C173.18 23.0378 173.496 22.9956 173.724 22.9956C174.051 22.9956 174.343 23.1253 174.604 23.3829C174.868 23.6424 175 23.964 175 24.3431C175 24.9891 174.643 25.4824 173.931 25.8248C173.218 26.1658 172.196 26.3367 170.859 26.3367C169.594 26.3367 168.634 26.1254 167.98 25.706C167.33 25.2867 166.9 24.7059 166.698 23.964C166.495 23.2221 166.395 22.2291 166.395 20.9884V13.311H165.859C165.274 13.311 164.833 13.1739 164.523 12.9019C164.217 12.6288 164.064 12.2807 164.064 11.8593C164.064 11.4409 164.225 11.0969 164.546 10.8279C164.868 10.5578 165.336 10.4251 165.947 10.4251Z" fill="white"/>
<path d="M116.911 35.8147C116.911 35.3532 116.839 34.9572 116.697 34.6257C116.554 34.2946 116.356 34.04 116.103 33.8628C115.849 33.6856 115.569 33.5965 115.261 33.5965C114.773 33.5965 114.361 33.787 114.025 34.1673C113.69 34.5478 113.523 35.1076 113.523 35.8468C113.523 36.5435 113.689 37.0851 114.022 37.4716C114.355 37.8584 114.769 38.0519 115.261 38.0519C115.556 38.0519 115.829 37.9674 116.08 37.7984C116.33 37.6297 116.532 37.3762 116.684 37.0387C116.835 36.7013 116.911 36.2933 116.911 35.8147ZM113.438 33.2697V33.4815C113.771 33.0756 114.117 32.7774 114.476 32.5875C114.836 32.3972 115.242 32.3018 115.697 32.3018C116.242 32.3018 116.744 32.4408 117.203 32.7188C117.661 32.9963 118.024 33.4024 118.29 33.9364C118.556 34.4706 118.689 35.1033 118.689 35.834C118.689 36.3723 118.613 36.867 118.459 37.3179C118.305 37.7687 118.094 38.1467 117.826 38.4526C117.557 38.7581 117.24 38.9928 116.875 39.1577C116.509 39.322 116.117 39.4041 115.697 39.4041C115.191 39.4041 114.765 39.3038 114.421 39.1026C114.077 38.902 113.75 38.6074 113.438 38.2181V40.8465C113.438 41.6157 113.155 42 112.587 42C112.254 42 112.034 41.9008 111.925 41.7024C111.817 41.5037 111.764 41.2139 111.764 40.8337V33.2828C111.764 32.9494 111.837 32.7006 111.984 32.5362C112.131 32.3716 112.332 32.289 112.587 32.289C112.838 32.289 113.043 32.3738 113.201 32.5425C113.359 32.7112 113.438 32.9541 113.438 33.2697Z" fill="white"/>
<path d="M121.844 30.7508V33.3467C122.069 33.0905 122.288 32.8874 122.503 32.7381C122.717 32.5884 122.954 32.4764 123.213 32.4012C123.473 32.3265 123.752 32.2891 124.051 32.2891C124.501 32.2891 124.9 32.3832 125.249 32.5712C125.597 32.7593 125.87 33.0327 126.069 33.3917C126.196 33.601 126.28 33.8351 126.323 34.0935C126.366 34.3522 126.388 34.6504 126.388 34.9878V38.3401C126.388 38.6906 126.307 38.9556 126.144 39.1352C125.982 39.3143 125.767 39.4039 125.499 39.4039C124.915 39.4039 124.622 39.0496 124.622 38.3401V35.3849C124.622 34.8254 124.538 34.3947 124.369 34.0935C124.2 33.7923 123.88 33.6416 123.409 33.6416C123.092 33.6416 122.808 33.7305 122.555 33.9076C122.302 34.0851 122.113 34.3274 121.987 34.6351C121.892 34.8957 121.844 35.3593 121.844 36.026V38.3401C121.844 38.686 121.765 38.9498 121.607 39.1316C121.449 39.3132 121.229 39.4039 120.948 39.4039C120.364 39.4039 120.072 39.0496 120.072 38.3401V30.7508C120.072 30.3962 120.148 30.1304 120.302 29.9527C120.456 29.7755 120.671 29.6869 120.948 29.6869C121.229 29.6869 121.449 29.7766 121.607 29.9562C121.765 30.1353 121.844 30.4003 121.844 30.7508Z" fill="white"/>
<path d="M132.502 35.8851C132.242 35.9791 131.865 36.0784 131.369 36.1833C130.873 36.288 130.53 36.3651 130.34 36.4139C130.15 36.4632 129.968 36.5592 129.795 36.7025C129.622 36.8456 129.535 37.0454 129.535 37.3016C129.535 37.5666 129.637 37.792 129.84 37.9781C130.043 38.1638 130.31 38.2564 130.639 38.2564C130.989 38.2564 131.313 38.1812 131.61 38.0288C131.906 37.8778 132.123 37.6821 132.262 37.4428C132.422 37.1776 132.502 36.742 132.502 36.135V35.8851ZM132.619 38.417C132.19 38.7462 131.776 38.9926 131.376 39.1575C130.975 39.3219 130.526 39.4039 130.029 39.4039C129.574 39.4039 129.175 39.3153 128.831 39.1382C128.487 38.961 128.222 38.7203 128.036 38.417C127.85 38.1136 127.757 37.7846 127.757 37.4297C127.757 36.9511 127.91 36.5433 128.218 36.2056C128.525 35.8682 128.947 35.6414 129.483 35.5261C129.596 35.5005 129.875 35.443 130.321 35.3531C130.766 35.2634 131.149 35.1813 131.466 35.1067C131.785 35.0317 132.13 34.9407 132.502 34.8338C132.48 34.3724 132.386 34.0338 132.22 33.818C132.053 33.6021 131.708 33.4944 131.185 33.4944C130.734 33.4944 130.395 33.5563 130.168 33.68C129.941 33.8041 129.747 33.9899 129.584 34.238C129.422 34.4857 129.307 34.6493 129.24 34.7283C129.173 34.8074 129.029 34.8466 128.808 34.8466C128.609 34.8466 128.437 34.7837 128.293 34.6575C128.147 34.5315 128.075 34.3702 128.075 34.1739C128.075 33.8659 128.185 33.5669 128.406 33.2764C128.627 32.9855 128.971 32.7462 129.438 32.5584C129.905 32.3704 130.487 32.2763 131.185 32.2763C131.963 32.2763 132.575 32.3671 133.021 32.5489C133.467 32.7304 133.781 33.018 133.965 33.4107C134.15 33.8041 134.241 34.3255 134.241 34.9747C134.241 35.3849 134.24 35.7333 134.238 36.0197C134.236 36.3059 134.233 36.6243 134.228 36.9748C134.228 37.3038 134.284 37.6467 134.394 38.0032C134.504 38.3603 134.559 38.59 134.559 38.6928C134.559 38.8722 134.474 39.0357 134.303 39.1832C134.132 39.3303 133.939 39.4039 133.722 39.4039C133.54 39.4039 133.36 39.3197 133.183 39.1507C133.006 38.982 132.818 38.7375 132.619 38.417Z" fill="white"/>
<path d="M137.799 36.8788V38.3401C137.799 38.695 137.714 38.9613 137.546 39.1381C137.378 39.3153 137.163 39.4042 136.903 39.4042C136.648 39.4042 136.438 39.3145 136.274 39.1352C136.109 38.9555 136.027 38.6906 136.027 38.3401V33.4688C136.027 32.6824 136.315 32.2891 136.891 32.2891C137.184 32.2891 137.397 32.3812 137.527 32.5649C137.656 32.7489 137.728 33.0199 137.741 33.3791C137.953 33.0199 138.17 32.7489 138.393 32.5649C138.616 32.3812 138.913 32.2891 139.286 32.2891C139.658 32.2891 140.019 32.3812 140.37 32.5649C140.721 32.7489 140.896 32.9923 140.896 33.2957C140.896 33.5097 140.821 33.6857 140.671 33.8242C140.522 33.9632 140.361 34.033 140.188 34.033C140.123 34.033 139.966 33.9932 139.717 33.9141C139.469 33.8354 139.249 33.7956 139.059 33.7956C138.799 33.7956 138.587 33.8629 138.423 33.9978C138.258 34.1322 138.13 34.3317 138.04 34.5969C137.948 34.8619 137.886 35.1769 137.851 35.5425C137.816 35.9077 137.799 36.3533 137.799 36.8788Z" fill="white"/>
<path d="M147.757 35.975V38.3017C147.757 38.6694 147.672 38.9449 147.504 39.1284C147.335 39.3121 147.112 39.4039 146.835 39.4039C146.567 39.4039 146.349 39.3121 146.182 39.1284C146.016 38.9449 145.933 38.6694 145.933 38.3017V35.5133C145.933 35.0729 145.917 34.7313 145.887 34.4879C145.857 34.244 145.775 34.0445 145.641 33.8883C145.506 33.7324 145.294 33.6544 145.005 33.6544C144.425 33.6544 144.043 33.8509 143.859 34.244C143.674 34.6373 143.583 35.2012 143.583 35.9363V38.3017C143.583 38.6647 143.499 38.9392 143.333 39.1251C143.166 39.3113 142.947 39.4039 142.674 39.4039C142.406 39.4039 142.186 39.3113 142.015 39.1251C141.844 38.9392 141.759 38.6647 141.759 38.3017V33.2954C141.759 32.9667 141.836 32.7162 141.99 32.5456C142.143 32.3747 142.345 32.2891 142.596 32.2891C142.839 32.2891 143.041 32.3693 143.203 32.5293C143.366 32.6895 143.447 32.9111 143.447 33.1932V33.3595C143.754 32.9962 144.083 32.7293 144.433 32.5584C144.784 32.3878 145.173 32.3017 145.602 32.3017C146.047 32.3017 146.43 32.3894 146.75 32.5647C147.071 32.7402 147.335 33.0052 147.542 33.3595C147.842 33.0008 148.161 32.7345 148.503 32.562C148.845 32.3883 149.224 32.3017 149.639 32.3017C150.124 32.3017 150.542 32.396 150.892 32.5841C151.242 32.7721 151.504 33.0414 151.677 33.3917C151.829 33.7081 151.904 34.2058 151.904 34.8851V38.3017C151.904 38.6694 151.82 38.9449 151.651 39.1284C151.483 39.3121 151.26 39.4039 150.983 39.4039C150.714 39.4039 150.495 39.3113 150.324 39.1251C150.153 38.9392 150.067 38.6647 150.067 38.3017V35.3593C150.067 34.9837 150.052 34.682 150.019 34.4558C149.986 34.2293 149.899 34.0387 149.756 33.8853C149.613 33.7316 149.397 33.6544 149.107 33.6544C148.873 33.6544 148.651 33.7228 148.442 33.8597C148.232 33.9965 148.068 34.1799 147.951 34.4111C147.821 34.7057 147.757 35.2271 147.757 35.975Z" fill="white"/>
<path d="M157.986 35.8851C157.727 35.9791 157.349 36.0784 156.854 36.1833C156.358 36.288 156.015 36.3651 155.825 36.4139C155.634 36.4632 155.452 36.5592 155.279 36.7025C155.106 36.8456 155.02 37.0454 155.02 37.3016C155.02 37.5666 155.121 37.792 155.324 37.9781C155.528 38.1638 155.794 38.2564 156.123 38.2564C156.474 38.2564 156.797 38.1812 157.094 38.0288C157.39 37.8778 157.608 37.6821 157.746 37.4428C157.906 37.1776 157.986 36.742 157.986 36.135V35.8851ZM158.104 38.417C157.674 38.7462 157.26 38.9926 156.86 39.1575C156.46 39.3219 156.011 39.4039 155.513 39.4039C155.059 39.4039 154.659 39.3153 154.316 39.1382C153.972 38.961 153.707 38.7203 153.52 38.417C153.334 38.1136 153.241 37.7846 153.241 37.4297C153.241 36.9511 153.395 36.5433 153.702 36.2056C154.009 35.8682 154.431 35.6414 154.967 35.5261C155.081 35.5005 155.359 35.443 155.806 35.3531C156.251 35.2634 156.633 35.1813 156.951 35.1067C157.269 35.0317 157.614 34.9407 157.986 34.8338C157.965 34.3724 157.87 34.0338 157.704 33.818C157.537 33.6021 157.192 33.4944 156.669 33.4944C156.218 33.4944 155.88 33.5563 155.653 33.68C155.426 33.8041 155.231 33.9899 155.068 34.238C154.906 34.4857 154.792 34.6493 154.724 34.7283C154.657 34.8074 154.513 34.8466 154.293 34.8466C154.094 34.8466 153.922 34.7837 153.777 34.6575C153.632 34.5315 153.56 34.3702 153.56 34.1739C153.56 33.8659 153.669 33.5669 153.891 33.2764C154.111 32.9855 154.455 32.7462 154.922 32.5584C155.39 32.3704 155.972 32.2763 156.669 32.2763C157.448 32.2763 158.06 32.3671 158.506 32.5489C158.951 32.7304 159.266 33.018 159.45 33.4107C159.634 33.8041 159.726 34.3255 159.726 34.9747C159.726 35.3849 159.724 35.7333 159.723 36.0197C159.721 36.3059 159.717 36.6243 159.713 36.9748C159.713 37.3038 159.768 37.6467 159.878 38.0032C159.989 38.3603 160.044 38.59 160.044 38.6928C160.044 38.8722 159.959 39.0357 159.787 39.1832C159.617 39.3303 159.423 39.4039 159.206 39.4039C159.025 39.4039 158.845 39.3197 158.668 39.1507C158.49 38.982 158.303 38.7375 158.104 38.417Z" fill="white"/>
<path d="M167.88 37.2374C167.88 37.4555 167.814 37.6883 167.681 37.936C167.549 38.1841 167.348 38.4198 167.078 38.6444C166.807 38.8688 166.466 39.0495 166.055 39.186C165.644 39.3228 165.182 39.391 164.666 39.391C163.572 39.391 162.716 39.0762 162.102 38.4457C161.488 37.8156 161.181 36.9706 161.181 35.9109C161.181 35.1929 161.321 34.5581 161.602 34.0067C161.884 33.4559 162.291 33.0293 162.823 32.7281C163.355 32.4269 163.991 32.2762 164.731 32.2762C165.19 32.2762 165.61 32.3424 165.993 32.4752C166.377 32.6076 166.701 32.7788 166.967 32.9879C167.234 33.1972 167.437 33.4202 167.577 33.6576C167.718 33.8947 167.789 34.1157 167.789 34.321C167.789 34.53 167.709 34.7078 167.552 34.853C167.393 34.9983 167.202 35.0708 166.977 35.0708C166.83 35.0708 166.708 35.0335 166.61 34.9588C166.513 34.8838 166.404 34.7634 166.283 34.5968C166.066 34.2719 165.84 34.0283 165.605 33.8658C165.368 33.7036 165.068 33.6221 164.705 33.6221C164.182 33.6221 163.759 33.8241 163.439 34.228C163.119 34.6317 162.959 35.1842 162.959 35.885C162.959 36.2142 163 36.5165 163.082 36.7921C163.165 37.0676 163.284 37.3026 163.439 37.4972C163.595 37.6913 163.784 37.839 164.004 37.9396C164.225 38.0399 164.468 38.09 164.731 38.09C165.086 38.09 165.39 38.0088 165.643 37.8464C165.896 37.6842 166.12 37.4361 166.315 37.1028C166.423 36.9063 166.54 36.7526 166.666 36.6413C166.791 36.5304 166.945 36.4748 167.126 36.4748C167.343 36.4748 167.522 36.556 167.665 36.7185C167.808 36.8807 167.88 37.0537 167.88 37.2374Z" fill="white"/>
<path d="M170.716 39.6219L170.879 39.2307L168.697 33.8083C168.563 33.4965 168.496 33.2694 168.496 33.1291C168.496 32.9794 168.535 32.8401 168.612 32.712C168.69 32.5839 168.798 32.4814 168.934 32.4046C169.07 32.3274 169.212 32.289 169.359 32.289C169.614 32.289 169.807 32.3694 169.937 32.5294C170.066 32.6894 170.181 32.9192 170.281 33.2185L171.78 37.5258L173.202 33.5199C173.314 33.1953 173.416 32.9407 173.507 32.7567C173.598 32.5736 173.695 32.4496 173.796 32.3852C173.898 32.3212 174.042 32.289 174.228 32.289C174.362 32.289 174.49 32.3242 174.614 32.3948C174.737 32.4651 174.832 32.5605 174.899 32.6799C174.966 32.7998 175 32.926 175 33.0582C174.983 33.1397 174.955 33.255 174.915 33.4044C174.877 33.554 174.829 33.7058 174.773 33.8595L172.462 39.8334C172.263 40.3589 172.068 40.7715 171.877 41.0705C171.688 41.3696 171.435 41.5993 171.122 41.7596C170.808 41.9199 170.385 42 169.853 42C169.333 42 168.943 41.9444 168.684 41.8332C168.424 41.722 168.295 41.5192 168.295 41.2245C168.295 41.0234 168.356 40.8686 168.479 40.7598C168.603 40.6505 168.786 40.5963 169.028 40.5963C169.123 40.5963 169.216 40.6091 169.307 40.635C169.42 40.6606 169.517 40.6729 169.599 40.6729C169.803 40.6729 169.963 40.6432 170.08 40.5835C170.196 40.5235 170.302 40.4202 170.394 40.2725C170.487 40.1253 170.595 39.9083 170.716 39.6219Z" fill="white"/>
</svg>
