<svg width="23" height="38" viewBox="0 0 23 38" fill="none" xmlns="http://www.w3.org/2000/svg">
<path opacity="0.1" d="M22.4857 4.61821C21.8006 3.69779 20.9247 2.93634 19.9179 2.38604C15.6637 -0.0679009 8.95253 -0.240062 4.35687 1.87832V1.01755C4.1818 1.10509 4.00381 1.19262 3.83457 1.28891C1.68118 2.53193 0.601562 4.16302 0.601562 5.79412V31.4102C0.601562 33.0413 1.68118 34.6724 3.83457 35.9183C8.14428 38.4072 15.1326 38.4072 19.4452 35.9183C20.1756 35.5081 20.8388 34.9886 21.4119 34.3777C19.3694 36.2947 14.2485 37.351 10.4523 36.604C6.65616 35.857 4.35687 33.4352 4.35687 31.7136V30.7916C6.484 31.9587 9.26766 32.4927 11.99 32.4927V16.0475C9.26766 16.0475 6.484 15.6274 4.35687 14.4836V12.4556C8.95253 14.5682 15.6637 14.4019 19.9179 11.945C21.0373 11.3435 21.9859 10.4681 22.6753 9.40061V5.79412C22.6741 5.39463 22.6101 4.99783 22.4857 4.61821Z" fill="black"/>
</svg>
