<svg width="20" height="20" viewBox="0 0 20 20" fill="none" xmlns="http://www.w3.org/2000/svg">
<path d="M18.8115 7.2C18.4112 6.8 18.2111 6.3 18.2111 5.8C18.2111 3.6 16.41 1.8 14.2087 1.8C13.7084 1.8 13.2081 1.6 12.8078 1.2C11.2068 -0.4 8.70532 -0.4 7.10434 1.2C6.80416 1.6 6.30385 1.8 5.80354 1.8C3.6022 1.8 1.8011 3.6 1.8011 5.8C1.8011 6.3 1.60098 6.8 1.20073 7.2C-0.400244 8.8 -0.400244 11.3 1.20073 12.9C1.60098 13.3 1.8011 13.8 1.8011 14.3C1.8011 16.5 3.6022 18.3 5.80354 18.3C6.30385 18.3 6.80416 18.5 7.2044 18.9C8.00489 19.6 9.0055 20 10.0061 20C11.0067 20 12.1074 19.6 12.8078 18.8C13.2081 18.4 13.7084 18.2 14.2087 18.2C16.41 18.2 18.2111 16.4 18.2111 14.2C18.2111 13.7 18.4112 13.2 18.7114 12.8C20.4125 11.3 20.4125 8.7 18.8115 7.2ZM17.4106 11.4C16.6101 12.2 16.2099 13.2 16.2099 14.2C16.2099 15.3 15.3094 16.2 14.2087 16.2C13.108 16.2 12.1074 16.6 11.407 17.4C10.6065 18.2 9.40575 18.2 8.60526 17.4C7.80477 16.6 6.80416 16.2 5.80354 16.2C4.70287 16.2 3.80232 15.3 3.80232 14.2C3.80232 13.1 3.40208 12.1 2.60159 11.4C1.8011 10.6 1.8011 9.4 2.60159 8.6C3.40208 7.8 3.80232 6.8 3.80232 5.8C3.80232 4.7 4.70287 3.8 5.80354 3.8C6.90422 3.8 7.90483 3.4 8.60526 2.6C9.0055 2.2 9.50581 2 10.0061 2C10.5064 2 11.0067 2.2 11.407 2.6C12.2075 3.4 13.2081 3.8 14.2087 3.8C15.3094 3.8 16.2099 4.7 16.2099 5.8C16.2099 6.9 16.6101 7.9 17.4106 8.6C18.2111 9.4 18.2111 10.6 17.4106 11.4Z" fill="white"/>
<path d="M12.0074 13.0005C12.5601 13.0005 13.0081 12.5528 13.0081 12.0005C13.0081 11.4482 12.5601 11.0005 12.0074 11.0005C11.4548 11.0005 11.0068 11.4482 11.0068 12.0005C11.0068 12.5528 11.4548 13.0005 12.0074 13.0005Z" fill="white"/>
<path d="M8.00452 9C8.55714 9 9.00513 8.55228 9.00513 8C9.00513 7.44772 8.55714 7 8.00452 7C7.4519 7 7.00391 7.44772 7.00391 8C7.00391 8.55228 7.4519 9 8.00452 9Z" fill="white"/>
<path d="M11.3065 7.3L7.30409 11.3C6.90385 11.7 6.90385 12.3 7.30409 12.7C7.50421 12.9 7.70433 13 8.00452 13C8.3047 13 8.50482 12.9 8.70494 12.7L12.7074 8.7C13.1076 8.3 13.1076 7.7 12.7074 7.3C12.3071 6.9 11.7068 6.9 11.3065 7.3Z" fill="white"/>
</svg>
