<svg width="16" height="16" viewBox="0 0 16 16" fill="none" xmlns="http://www.w3.org/2000/svg">
<path d="M8.00033 5.33317C6.52699 5.33317 5.33366 6.5265 5.33366 7.99984C5.33366 9.47317 6.52699 10.6665 8.00033 10.6665C9.47366 10.6665 10.667 9.47317 10.667 7.99984C10.667 6.5265 9.47366 5.33317 8.00033 5.33317ZM13.9603 7.33317C13.6537 4.55317 11.447 2.3465 8.66699 2.03984V0.666504H7.33366V2.03984C4.55366 2.3465 2.34699 4.55317 2.04033 7.33317H0.666992V8.6665H2.04033C2.34699 11.4465 4.55366 13.6532 7.33366 13.9598V15.3332H8.66699V13.9598C11.447 13.6532 13.6537 11.4465 13.9603 8.6665H15.3337V7.33317H13.9603ZM8.00033 12.6665C5.42033 12.6665 3.33366 10.5798 3.33366 7.99984C3.33366 5.41984 5.42033 3.33317 8.00033 3.33317C10.5803 3.33317 12.667 5.41984 12.667 7.99984C12.667 10.5798 10.5803 12.6665 8.00033 12.6665Z" fill="#BA0000"/>
</svg>
