<svg width="49" height="47" viewBox="0 0 49 47" fill="none" xmlns="http://www.w3.org/2000/svg">
<g clip-path="url(#clip0_743_31310)">
<path d="M14.2492 21.1555V42.3189C14.2492 43.3497 13.4121 44.187 12.3812 44.187H2.01546C0.98457 44.187 0.147461 43.3497 0.147461 42.3189V21.1555C0.147461 20.1246 0.98457 19.2875 2.01546 19.2875H12.3812C13.4121 19.2875 14.2492 20.1246 14.2492 21.1555Z" stroke="#00683D" stroke-width="0.475472"/>
<path d="M30.6655 15.4688L30.5245 15.4251L30.4657 15.6147L30.6643 15.6163L30.6655 15.4688ZM30.6655 15.4688C30.6643 15.6163 30.6643 15.6163 30.6644 15.6163H30.6647H30.6659L30.6708 15.6164L30.69 15.6165L30.7652 15.6171L31.0533 15.6193C31.3027 15.6211 31.6621 15.6236 32.102 15.6265C32.9816 15.6321 34.183 15.6388 35.4699 15.6433C38.015 15.6522 40.8978 15.6523 42.2863 15.6174C44.3589 16.9266 45.1018 18.1794 45.2122 19.3874C45.3252 20.6193 44.7877 21.8427 44.2084 23.1097L44.1667 23.2008L44.2358 23.2731C45.7885 24.8965 46.0023 26.374 45.676 27.5682C45.3459 28.7759 44.455 29.7227 43.7501 30.2515L43.6734 30.309L43.6949 30.4025C44.0861 32.1107 43.974 33.404 43.509 34.3252C43.0465 35.2416 42.2239 35.8122 41.1427 36.0563L40.9907 36.0906L41.0332 36.2405C41.6861 38.541 41.2685 39.7821 40.7289 40.4465C40.4562 40.7822 40.1447 40.9807 39.9014 41.0953C39.7798 41.1525 39.6757 41.1886 39.603 41.2101C39.5667 41.2209 39.5382 41.228 39.5195 41.2324C39.5169 41.233 39.5145 41.2335 39.5124 41.234C39.5094 41.2346 39.5068 41.2352 39.5045 41.2357H39.5043L39.4626 41.236L39.2998 41.2372L38.6804 41.2418L36.458 41.2581C34.6123 41.2716 32.1356 41.2896 29.6117 41.3075C24.5632 41.3435 19.3272 41.3795 18.5721 41.3795C17.8592 41.3795 17.4486 41.1102 17.2147 40.8521C17.0961 40.7212 17.0204 40.5903 16.9747 40.4927C16.9519 40.444 16.9367 40.4039 16.9273 40.3768C16.9242 40.3677 16.9217 40.36 16.9199 40.3541L16.7764 20.9796L23.054 10.3972L23.0772 10.3582L23.0744 10.3129L22.9271 10.3219C23.0744 10.3129 23.0744 10.3129 23.0744 10.3128L23.0744 10.3126L23.0744 10.3118L23.0742 10.3085L23.0734 10.2954L23.0703 10.2442L23.0584 10.0491C23.0482 9.88067 23.0336 9.63913 23.0161 9.34696C22.9809 8.76254 22.9337 7.97537 22.8857 7.16417C22.7901 5.54607 22.6917 3.83714 22.6789 3.44695C22.6914 2.98227 22.7298 2.0509 23.1186 1.36758C23.3105 1.03041 23.5834 0.761444 23.9769 0.634483C24.3724 0.506919 24.9109 0.51584 25.6459 0.777865C29.8158 2.47557 31.0416 6.1124 31.22 9.35818C31.3091 10.9811 31.1352 12.4989 30.9386 13.612C30.8403 14.1682 30.7364 14.6225 30.6573 14.9373C30.6178 15.0947 30.5844 15.2172 30.561 15.3001C30.5493 15.3415 30.5401 15.373 30.5339 15.3941L30.5268 15.4176L30.5251 15.4234L30.5246 15.4248L30.5245 15.425L30.6655 15.4688Z" stroke="#00683D" stroke-width="0.475472"/>
<path d="M17.348 23.2636V44.427C17.348 45.5392 16.4449 46.4427 15.3325 46.4427H4.96672C3.85435 46.4427 2.95117 45.5392 2.95117 44.427V23.2636C2.95117 22.1512 3.85435 21.248 4.96672 21.248H15.3325C16.4449 21.248 17.348 22.1512 17.348 23.2636Z" fill="#00683D" fill-opacity="0.1"/>
<path d="M28.6501 2.74811C25.6268 1.66835 25.2668 4.90764 25.4828 5.55551C25.6988 6.38333 25.8787 12.43 25.8787 12.43L19.5801 23.0477L19.7241 42.4834C19.7241 42.4834 20.012 43.6352 21.5237 43.6352C23.0353 43.6352 42.4709 43.4915 42.4709 43.4915C42.4709 43.4915 45.4495 42.9695 44.1265 38.3084C46.3581 37.8045 47.582 35.9329 46.7902 32.4777C48.23 31.3979 50.4615 28.5905 47.294 25.2792C48.4458 22.7598 49.5256 20.2403 45.2784 17.5769C42.543 17.6489 33.6171 17.5769 33.6171 17.5769C33.6171 17.5769 37.1443 6.20334 28.6501 2.74811Z" fill="#00683D" fill-opacity="0.1"/>
</g>
<defs>
<clipPath id="clip0_743_31310">
<rect width="48.9057" height="46.7977" fill="white"/>
</clipPath>
</defs>
</svg>
