<svg width="24" height="24" viewBox="0 0 24 24" fill="none" xmlns="http://www.w3.org/2000/svg">
<path fill-rule="evenodd" clip-rule="evenodd" d="M19.0866 6.2211C18.4921 6.5686 17.8327 6.8211 17.1317 6.9571C16.5712 6.3681 15.7713 6.0001 14.8858 6.0001C13.1865 6.0001 11.8085 7.3566 11.8085 9.0296C11.8085 9.2671 11.836 9.4976 11.888 9.7196C9.3302 9.5936 7.06284 8.3876 5.54493 6.5546C5.28045 7.0016 5.12796 7.5221 5.12796 8.0776C5.12796 9.1281 5.67243 10.0556 6.49738 10.5986C5.99391 10.5831 5.51844 10.4471 5.10346 10.2201V10.2581C5.10346 11.7256 6.1644 12.9501 7.57281 13.2291C7.31382 13.2981 7.04234 13.3351 6.76136 13.3351C6.56287 13.3351 6.37038 13.3156 6.18189 13.2811C6.57487 14.4841 7.7103 15.3601 9.05672 15.3846C8.00328 16.1971 6.67736 16.6816 5.23445 16.6816C4.98547 16.6816 4.74149 16.6671 4.5 16.6391C5.86291 17.4986 7.48081 18.0001 9.21821 18.0001C14.8789 18.0001 17.9732 13.3841 17.9732 9.3806C17.9732 9.2496 17.9717 9.1181 17.9657 8.9886C18.5661 8.5621 19.0886 8.0281 19.5006 7.4201C18.9491 7.6616 18.3561 7.8241 17.7332 7.8971C18.3686 7.5226 18.8561 6.9291 19.0866 6.2211ZM24 12C24 18.627 18.6273 24 12.0008 24C5.37266 24 0 18.627 0 12C0 5.372 5.37266 0 12.0008 0C18.6273 0 24 5.372 24 12Z" fill="#313436"/>
</svg>
