<svg width="18" height="20" viewBox="0 0 18 20" fill="none" xmlns="http://www.w3.org/2000/svg">
<path fill-rule="evenodd" clip-rule="evenodd" d="M17.9196 4.56084C17.813 4.32437 13.7275 0.232364 13.4615 0.0956811C13.228 -0.0242935 12.808 -0.032824 12.5848 0.0779158C12.4035 0.167877 12.1982 0.365056 12.1029 0.540792C12.0055 0.72048 12.0076 1.24276 12.1065 1.43039C12.1462 1.50571 12.7175 2.1084 13.376 2.76971L14.5733 3.97212L9.66409 3.98276C5.26384 3.99235 4.74071 3.99994 4.61795 4.05598C4.41545 4.14848 4.23866 4.31123 4.11826 4.51604C4.02755 4.67037 4.01143 4.74209 4.01143 4.99128C4.01143 5.24046 4.02755 5.31219 4.11826 5.46652C4.23866 5.67133 4.41545 5.83407 4.61795 5.92658C4.74071 5.98261 5.26384 5.9902 9.66409 5.99979L14.5733 6.01043L13.376 7.21284C12.7175 7.87415 12.1462 8.47684 12.1065 8.55217C12.0076 8.7398 12.0055 9.26207 12.1029 9.44176C12.1982 9.6175 12.4035 9.81468 12.5848 9.90464C12.808 10.0154 13.228 10.0068 13.4615 9.88687C13.7275 9.75019 17.813 5.65818 17.9196 5.42171C18.0268 5.18372 18.0268 4.79883 17.9196 4.56084ZM13.9559 14.6858C13.8281 14.3433 13.5408 14.0974 13.1911 14.0311C13.056 14.0055 11.2786 13.9913 8.20369 13.9913L3.42615 13.9913L4.62429 12.7881C5.28329 12.1262 5.85495 11.5232 5.89467 11.4478C5.99359 11.2602 5.9957 10.7379 5.89827 10.5582C5.80299 10.3825 5.59767 10.1853 5.41634 10.0954C5.19677 9.98642 4.77201 9.99311 4.55131 10.109C4.44942 10.1625 3.5826 10.9955 2.27262 12.2988C0.638993 13.9241 0.140664 14.4422 0.0803246 14.5783C-0.0255238 14.817 -0.0249373 15.2028 0.0816155 15.4392C0.188207 15.6756 4.27372 19.7676 4.53969 19.9043C4.77315 20.0243 5.19317 20.0328 5.41634 19.9221C5.59767 19.8321 5.80299 19.6349 5.89827 19.4592C5.9957 19.2795 5.99359 18.7572 5.89467 18.5696C5.85495 18.4943 5.28368 17.8916 4.62519 17.2303L3.42791 16.0279L8.33709 16.0172C13.7273 16.0055 13.3527 16.0227 13.6481 15.7736C13.9476 15.521 14.0856 15.0334 13.9559 14.6858Z" fill="white"/>
</svg>
