<svg width="24" height="24" viewBox="0 0 24 24" fill="none" xmlns="http://www.w3.org/2000/svg">
<path fill-rule="evenodd" clip-rule="evenodd" d="M11.8691 9.66376C11.9841 9.66376 12.0771 9.63126 12.1456 9.56576C12.2126 9.49976 12.2481 9.40976 12.2481 9.29526V6.96576C12.2481 6.87276 12.2126 6.79776 12.1426 6.73876C12.0731 6.68126 11.9826 6.65326 11.8691 6.65326C11.7646 6.65326 11.6806 6.68126 11.6141 6.73876C11.5506 6.79776 11.5176 6.87276 11.5176 6.96576V9.29526C11.5176 9.41276 11.5476 9.50226 11.6086 9.56676C11.6691 9.63276 11.7556 9.66376 11.8691 9.66376ZM6.61641 13.3978H7.50041V17.8938H8.35591V13.3978H9.24041V12.6333H6.61641V13.3978ZM10.9814 16.9605C10.9109 17.045 10.8319 17.1145 10.7469 17.169C10.6609 17.2235 10.5899 17.2505 10.5349 17.2505C10.4639 17.2505 10.4119 17.2315 10.3789 17.189C10.3484 17.148 10.3319 17.082 10.3319 16.99V14.0125H9.57344V17.257C9.57344 17.49 9.61894 17.6615 9.70694 17.7775C9.79594 17.8935 9.92694 17.951 10.1024 17.951C10.2459 17.951 10.3924 17.911 10.5439 17.8265C10.6964 17.746 10.8409 17.6255 10.9814 17.4685V17.8935H11.7404V14.0125H10.9814V16.9605ZM16.3448 15.4416H15.6738V15.0494C15.6738 14.8871 15.6993 14.7702 15.7528 14.7022C15.8048 14.6303 15.8918 14.5948 16.0118 14.5948C16.1278 14.5948 16.2138 14.6303 16.2648 14.7022C16.3173 14.7702 16.3448 14.8871 16.3448 15.0494V15.4416ZM16.0456 13.9159C15.7051 13.9159 15.4296 14.0219 15.2156 14.2334C15.0001 14.4449 14.8926 14.7214 14.8926 15.0569V16.8004C14.8926 17.1744 14.9911 17.4684 15.1856 17.6799C15.3796 17.8934 15.6481 17.9999 15.9891 17.9999C16.3671 17.9999 16.6511 17.9004 16.8396 17.6999C17.0321 17.4979 17.1261 17.1984 17.1261 16.8004V16.6009H16.3456V16.7779C16.3456 17.0059 16.3191 17.1529 16.2706 17.2209C16.2196 17.2874 16.1326 17.3209 16.0066 17.3209C15.8846 17.3209 15.7986 17.2824 15.7491 17.2029C15.6991 17.1239 15.6746 16.9819 15.6746 16.7779V16.0464H17.1261V15.0569C17.1261 14.6889 17.0331 14.4074 16.8466 14.2104C16.6601 14.0144 16.3936 13.9159 16.0456 13.9159ZM13.7121 16.9856C13.7121 17.1101 13.6896 17.1981 13.6466 17.2531C13.6026 17.3086 13.5346 17.3361 13.4416 17.3361C13.3771 17.3361 13.3166 17.3211 13.2581 17.2946C13.1996 17.2666 13.1396 17.2186 13.0781 17.1561V14.7381C13.1301 14.6846 13.1816 14.6441 13.2346 14.6196C13.2871 14.5936 13.3421 14.5816 13.3956 14.5816C13.4981 14.5816 13.5771 14.6156 13.6331 14.6826C13.6856 14.7506 13.7121 14.8496 13.7121 14.9811V16.9856ZM13.753 13.9651C13.635 13.9651 13.5185 13.9956 13.4025 14.0581C13.289 14.1191 13.1805 14.2096 13.077 14.3276V12.6331H12.3105V17.8936H13.077V17.5966C13.177 17.7161 13.286 17.8031 13.4015 17.8591C13.5175 17.9161 13.6495 17.9436 13.799 17.9436C14.0235 17.9436 14.1965 17.8711 14.3145 17.7246C14.4335 17.5771 14.493 17.3666 14.493 17.0921V14.9381C14.493 14.6206 14.4295 14.3781 14.303 14.2131C14.177 14.0476 13.993 13.9651 13.753 13.9651ZM19.5 16.6985C19.5 18.2455 18.2735 19.5 16.76 19.5H7.24C5.7265 19.5 4.5 18.2455 4.5 16.6985V14.447C4.5 12.9 5.7265 11.5 7.24 11.5H16.76C18.2735 11.5 19.5 12.9 19.5 14.447V16.6985ZM8.3093 4.49988L8.9343 6.81738H8.9948L9.5898 4.49988H10.5683L9.4478 7.89138V10.2959H8.4863V8.00038L7.3418 4.49988H8.3093ZM10.6375 6.99844C10.6375 6.66594 10.753 6.40294 10.9815 6.20694C11.212 6.01094 11.5215 5.91294 11.909 5.91294C12.2635 5.91294 12.5525 6.01644 12.7795 6.22294C13.004 6.42944 13.117 6.69744 13.117 7.02294V9.23144C13.117 9.59744 13.006 9.88294 12.786 10.0919C12.5635 10.3004 12.259 10.4044 11.871 10.4044C11.497 10.4044 11.198 10.2959 10.9725 10.0814C10.75 9.86594 10.6375 9.57794 10.6375 9.21444V6.99844ZM13.8094 6.02104H14.6629V9.29904C14.6629 9.39954 14.6824 9.47254 14.7179 9.51754C14.7529 9.56404 14.8114 9.58654 14.8914 9.58654C14.9539 9.58654 15.0329 9.55655 15.1309 9.49654C15.2264 9.43554 15.3144 9.35954 15.3934 9.26655V6.02104H16.2479V10.296H15.3934V9.82304C15.2374 9.99755 15.0729 10.1305 14.9014 10.222C14.7314 10.3125 14.5674 10.3585 14.4059 10.3585C14.2079 10.3585 14.0604 10.2935 13.9599 10.166C13.8604 10.0395 13.8094 9.84954 13.8094 9.59454V6.02104ZM12.0005 0C5.373 0 0 5.372 0 12C0 18.627 5.373 24 12.0005 24C18.627 24 24 18.627 24 12C24 5.372 18.627 0 12.0005 0Z" fill="#313436"/>
</svg>
