<svg width="550" height="339" viewBox="0 0 550 339" fill="none" xmlns="http://www.w3.org/2000/svg">
<g clip-path="url(#clip0_259_27512)">
<path opacity="0.1" d="M550.002 217.283C550.011 226.449 548.902 235.582 546.7 244.479C545.959 247.477 545.098 250.413 544.118 253.286C542.918 256.833 541.528 260.312 539.953 263.709C539.159 265.427 538.32 267.112 537.436 268.762C537.45 278.161 535.515 287.461 531.753 296.074C524.951 311.528 512.824 324.024 497.58 331.283C488.049 335.831 477.633 338.222 467.073 338.288H104.41C88.2745 338.322 72.4175 334.083 58.4515 326.002L58.2367 325.881C56.2474 324.716 54.3079 323.484 52.4183 322.182C48.1666 319.245 44.1722 315.952 40.478 312.339C35.4779 307.452 31.072 301.993 27.3516 296.074C18.6138 282.2 13.9849 266.134 14.0011 249.737C5.15214 234.211 -0.0078125 215.612 -0.0078125 195.626C-0.0078125 170.41 8.19208 147.407 21.664 129.994C24.4726 126.356 27.5492 122.933 30.8679 119.753C34.1424 116.607 37.6619 113.726 41.3933 111.138C44.3786 109.065 47.4986 107.193 50.7325 105.534C52.0821 104.848 53.4363 104.199 54.8138 103.596C56.0232 103.059 57.2467 102.56 58.4841 102.088C59.9691 101.524 61.4727 101.006 62.995 100.533C64.5173 100.06 66.0194 99.6457 67.5012 99.2908C69.6804 98.7585 71.8969 98.3258 74.1508 97.9927C76.0187 97.7172 77.8865 97.5257 79.7544 97.3809C81.2393 97.2689 82.7383 97.2082 84.2466 97.1895H85.0638C86.7262 97.1895 88.3792 97.2549 90.0183 97.3669C90.191 97.0214 90.3778 96.6712 90.5506 96.3303C91.2043 95.0835 91.8814 93.8414 92.5632 92.6272C92.5617 92.6164 92.5617 92.6054 92.5632 92.5946C92.6799 92.3798 92.7967 92.1696 92.9181 91.9642C93.4691 90.9695 94.0435 89.9842 94.6319 89.0083C94.9027 88.5413 95.1689 88.1024 95.4444 87.6634C95.5027 87.5543 95.5666 87.4483 95.6358 87.3459C95.916 86.8789 96.2009 86.4119 96.4904 85.945C97.9317 83.6413 99.4307 81.3781 100.987 79.1553L101.384 78.5856C101.627 78.2401 101.851 77.9039 102.122 77.5583C102.766 76.6571 103.429 75.7512 104.097 74.8639C104.564 74.2289 105.031 73.5984 105.535 72.9961C106.75 71.4395 107.995 69.883 109.271 68.3264C110.548 66.7699 111.874 65.2336 113.25 63.7175C113.437 63.5074 113.623 63.3019 113.819 63.0964L115.813 60.9204C115.911 60.8176 115.995 60.7242 116.089 60.6308C116.327 60.374 116.556 60.1172 116.813 59.8697C117.882 58.735 118.979 57.6236 120.081 56.5169C125.69 50.9308 131.665 45.7251 137.966 40.9343C138.214 40.7382 138.466 40.5514 138.713 40.3646C139.899 39.4727 141.104 38.5901 142.309 37.7216C148.936 32.9676 155.863 28.647 163.047 24.7867C163.542 24.5018 164.046 24.2356 164.555 23.9741C170.996 20.5668 177.62 17.5175 184.396 14.8403C188.09 13.3787 191.868 12.0058 195.669 10.7497C198.2 9.91851 200.74 9.12934 203.313 8.38687C207.335 7.2288 211.385 6.19058 215.464 5.27222C227.478 2.57636 239.701 0.911036 251.999 0.294377C255.735 0.104478 259.512 0.00641648 263.332 0.00019029C281.763 -0.0242104 300.122 2.29815 317.967 6.91126C318.151 7.19008 318.404 7.41738 318.7 7.57178C318.997 7.72617 319.328 7.80259 319.662 7.79382H321.231C321.913 7.98061 322.59 8.1674 323.272 8.36352C327.079 9.45933 330.832 10.6563 334.53 11.9545L335.464 12.2907C344.592 15.5365 353.474 19.4381 362.039 23.9648C369.76 28.0356 377.194 32.6287 384.29 37.7122C385.383 38.4967 386.46 39.2875 387.521 40.0844C388.81 39.2594 390.121 38.4687 391.453 37.7122C396.599 34.7817 402.064 32.4519 407.741 30.7685C419.61 27.2561 432.169 26.7649 444.276 29.3396C459.803 32.6317 473.858 40.8035 485.21 52.4263C489.832 57.1818 493.947 62.4057 497.487 68.0136C497.744 68.4151 498 68.8214 498.248 69.2323C501.29 74.1957 503.905 79.4086 506.065 84.8149C506.144 85.0157 506.224 85.2025 506.294 85.3987C508.287 90.4611 509.895 95.667 511.103 100.972C511.159 101.243 511.225 101.509 511.281 101.78C512.411 106.914 513.179 112.121 513.578 117.362C513.578 117.549 513.578 117.741 513.616 117.937C513.812 120.648 513.911 123.388 513.915 126.155C513.915 128.63 513.831 131.086 513.676 133.524C513.676 133.79 513.639 134.066 513.616 134.341C513.574 135.046 513.513 135.742 513.452 136.452C517.019 139.329 520.357 142.478 523.436 145.871C524.796 147.355 526.113 148.896 527.386 150.493C531.265 155.354 534.673 160.572 537.566 166.076C545.463 180.982 550.002 198.516 550.002 217.283Z" fill="#00683D"/>
<path opacity="0.1" d="M497.232 329.556C497.232 332.746 486.245 335.734 467.071 338.303H104.408C88.2722 338.337 72.4153 334.098 58.4492 326.017L58.2344 325.895C63.7446 323.887 73.6909 322.015 87.2282 320.324L87.8352 320.25C93.9058 319.507 100.691 318.802 108.106 318.134C108.293 318.134 108.484 318.106 108.671 318.083C114.555 317.56 120.814 317.07 127.448 316.612C127.658 316.612 127.863 316.575 128.074 316.565C130.633 316.382 133.244 316.207 135.909 316.042L136.937 315.977C156.339 314.772 178.394 313.81 202.312 313.175H202.34C205.689 313.082 209.075 312.999 212.496 312.928C216.3 312.837 220.151 312.758 224.049 312.69C227.023 312.624 230.035 312.578 233.057 312.531H233.127C246.757 312.325 260.841 312.223 275.242 312.223C310.853 312.223 344.512 312.872 374.337 314.039H374.421C379.006 314.217 383.508 314.413 387.897 314.614L391.633 314.791C396.586 315.028 401.411 315.281 406.109 315.552C461.351 318.695 497.232 323.799 497.232 329.556Z" fill="#00683D"/>
<g opacity="0.2">
<path d="M317.667 310.08C317.652 310.583 317.594 311.085 317.494 311.579C314.244 311.062 310.975 310.595 307.688 310.178C307.688 310.047 307.688 309.911 307.688 309.776C307.718 308.376 308.121 307.009 308.855 305.816C309.817 304.294 311.278 303.341 312.889 303.393C314.501 303.444 315.897 304.485 316.761 306.059C317.414 307.295 317.727 308.683 317.667 310.08Z" fill="#3F3D56"/>
<path d="M317.937 302.099C318.051 298.488 315.908 295.489 313.149 295.402C310.391 295.315 308.063 298.172 307.949 301.783C307.835 305.395 309.978 308.393 312.736 308.48C315.494 308.567 317.823 305.71 317.937 302.099Z" fill="#3F3D56"/>
<path d="M318.187 294.105C318.301 290.494 316.158 287.495 313.399 287.408C310.641 287.321 308.313 290.178 308.199 293.789C308.085 297.401 310.228 300.399 312.986 300.486C315.744 300.573 318.073 297.716 318.187 294.105Z" fill="#3F3D56"/>
<path d="M318.437 286.109C318.551 282.497 316.408 279.499 313.649 279.412C310.891 279.325 308.563 282.182 308.449 285.793C308.335 289.404 310.478 292.403 313.236 292.49C315.994 292.577 318.323 289.72 318.437 286.109Z" fill="#3F3D56"/>
<path d="M318.687 278.115C318.801 274.503 316.658 271.505 313.899 271.418C311.141 271.331 308.813 274.188 308.699 277.799C308.585 281.41 310.728 284.409 313.486 284.496C316.244 284.583 318.573 281.726 318.687 278.115Z" fill="#3F3D56"/>
<path d="M296.7 222.644C296.042 221.754 295.449 220.818 294.925 219.842L308.122 218.101L293.917 217.76C292.649 214.753 292.008 211.519 292.033 208.256C292.058 204.993 292.748 201.77 294.061 198.782L312.796 209.266L295.635 195.798C297.366 192.998 299.656 190.586 302.362 188.71C305.067 186.835 308.131 185.538 311.36 184.9C314.59 184.261 317.916 184.296 321.131 185.001C324.347 185.706 327.383 187.067 330.049 188.998C332.715 190.929 334.954 193.389 336.627 196.224C338.299 199.06 339.37 202.209 339.77 205.477C340.171 208.744 339.894 212.059 338.955 215.215C338.017 218.37 336.439 221.298 334.318 223.816C335.341 225.201 336.21 226.693 336.91 228.267L319.59 236.578L337.956 231.054C339.113 234.871 339.299 238.915 338.498 242.822C337.697 246.728 335.935 250.373 333.37 253.427C336.037 257.044 337.631 261.339 337.972 265.821C338.312 270.302 337.384 274.789 335.295 278.767C333.205 282.746 330.038 286.057 326.155 288.32C322.273 290.584 317.832 291.709 313.34 291.568C308.848 291.426 304.486 290.023 300.754 287.52C297.022 285.016 294.07 281.512 292.235 277.41C290.4 273.307 289.757 268.771 290.379 264.32C291.001 259.869 292.863 255.683 295.752 252.24C292.566 247.917 290.926 242.648 291.096 237.281C291.265 231.913 293.234 226.758 296.686 222.644H296.7Z" fill="#00683D"/>
<path opacity="0.1" d="M338.974 238.793C338.81 244.163 336.836 249.321 333.37 253.427C336.037 257.045 337.631 261.34 337.972 265.822C338.312 270.303 337.384 274.79 335.295 278.768C333.205 282.747 330.038 286.058 326.155 288.321C322.273 290.585 317.832 291.71 313.34 291.569C308.848 291.427 304.486 290.024 300.754 287.521C297.022 285.017 294.07 281.513 292.235 277.411C290.4 273.308 289.757 268.772 290.379 264.321C291.001 259.87 292.863 255.684 295.752 252.241C292.684 248.071 339.058 236.108 338.974 238.793Z" fill="black"/>
</g>
<g opacity="0.2">
<path d="M246.69 310.08C246.675 310.583 246.617 311.085 246.517 311.579C243.267 311.062 239.998 310.595 236.711 310.178C236.711 310.047 236.711 309.911 236.711 309.776C236.741 308.376 237.144 307.009 237.878 305.816C238.84 304.294 240.302 303.341 241.913 303.393C243.524 303.444 244.92 304.485 245.784 306.059C246.437 307.295 246.75 308.683 246.69 310.08Z" fill="#3F3D56"/>
<path d="M246.953 302.101C247.067 298.49 244.923 295.491 242.165 295.404C239.407 295.317 237.079 298.174 236.964 301.785C236.85 305.397 238.994 308.395 241.752 308.482C244.51 308.569 246.838 305.712 246.953 302.101Z" fill="#3F3D56"/>
<path d="M247.21 294.107C247.324 290.495 245.181 287.497 242.423 287.41C239.665 287.323 237.336 290.18 237.222 293.791C237.108 297.403 239.252 300.401 242.01 300.488C244.768 300.575 247.096 297.718 247.21 294.107Z" fill="#3F3D56"/>
<path d="M247.46 286.113C247.574 282.501 245.431 279.503 242.673 279.416C239.915 279.329 237.586 282.186 237.472 285.797C237.358 289.408 239.502 292.407 242.26 292.494C245.018 292.581 247.346 289.724 247.46 286.113Z" fill="#3F3D56"/>
<path d="M247.71 278.117C247.824 274.505 245.681 271.507 242.923 271.42C240.165 271.333 237.836 274.19 237.722 277.801C237.608 281.412 239.752 284.41 242.51 284.498C245.268 284.585 247.596 281.728 247.71 278.117Z" fill="#3F3D56"/>
<path d="M225.723 222.644C225.065 221.754 224.472 220.818 223.949 219.842L237.145 218.101L222.94 217.76C221.672 214.753 221.031 211.519 221.056 208.256C221.081 204.993 221.771 201.77 223.085 198.782L241.819 209.266L224.658 195.798C226.39 192.998 228.68 190.586 231.385 188.71C234.091 186.835 237.154 185.538 240.383 184.9C243.613 184.261 246.939 184.296 250.155 185.001C253.37 185.706 256.406 187.067 259.072 188.998C261.738 190.929 263.978 193.389 265.65 196.224C267.323 199.06 268.393 202.209 268.794 205.477C269.194 208.744 268.917 212.059 267.979 215.215C267.041 218.37 265.462 221.298 263.342 223.816C264.365 225.201 265.234 226.693 265.933 228.267L248.614 236.578L266.979 231.054C268.136 234.871 268.322 238.915 267.522 242.822C266.721 246.728 264.958 250.373 262.394 253.427C265.06 257.044 266.655 261.339 266.995 265.821C267.335 270.302 266.408 274.789 264.318 278.767C262.228 282.746 259.061 286.057 255.179 288.32C251.296 290.584 246.855 291.709 242.363 291.568C237.871 291.426 233.51 290.023 229.778 287.52C226.045 285.016 223.093 281.512 221.258 277.41C219.424 273.307 218.78 268.771 219.402 264.32C220.024 259.869 221.886 255.683 224.775 252.24C221.59 247.917 219.95 242.648 220.119 237.281C220.288 231.913 222.257 226.758 225.709 222.644H225.723Z" fill="#00683D"/>
<path opacity="0.1" d="M267.997 238.793C267.834 244.163 265.859 249.321 262.394 253.427C265.06 257.045 266.655 261.34 266.995 265.822C267.335 270.303 266.408 274.79 264.318 278.768C262.228 282.747 259.061 286.058 255.179 288.321C251.296 290.585 246.855 291.71 242.363 291.569C237.871 291.427 233.51 290.024 229.778 287.521C226.045 285.017 223.093 281.513 221.258 277.411C219.424 273.308 218.78 268.772 219.402 264.321C220.024 259.87 221.886 255.684 224.775 252.241C221.707 248.071 268.081 236.108 267.997 238.793Z" fill="black"/>
</g>
<g opacity="0.2">
<path d="M440.569 315.188C440.533 316.142 440.419 317.091 440.228 318.027C433.97 317.027 427.668 316.134 421.32 315.346C421.32 315.094 421.32 314.837 421.32 314.576C421.38 311.879 422.157 309.247 423.571 306.95C425.439 304.023 428.241 302.187 431.337 302.281C434.433 302.374 437.127 304.387 438.808 307.417C440.076 309.805 440.684 312.487 440.569 315.188Z" fill="#3F3D56"/>
<path d="M441.082 299.812C441.302 292.858 437.173 287.084 431.861 286.916C426.548 286.748 422.063 292.25 421.843 299.204C421.623 306.159 425.752 311.933 431.065 312.101C436.377 312.269 440.862 306.767 441.082 299.812Z" fill="#3F3D56"/>
<path d="M441.566 284.422C441.786 277.467 437.658 271.693 432.345 271.525C427.032 271.358 422.547 276.859 422.328 283.814C422.108 290.768 426.236 296.542 431.549 296.71C436.862 296.878 441.347 291.376 441.566 284.422Z" fill="#3F3D56"/>
<path d="M442.051 269.031C442.27 262.077 438.142 256.303 432.829 256.135C427.517 255.967 423.032 261.469 422.812 268.423C422.592 275.378 426.721 281.152 432.033 281.32C437.346 281.487 441.831 275.986 442.051 269.031Z" fill="#3F3D56"/>
<path d="M441.993 252.94C442.202 245.982 438.062 240.212 432.747 240.052C427.432 239.893 422.954 245.404 422.745 252.362C422.536 259.32 426.676 265.09 431.991 265.25C437.307 265.409 441.785 259.898 441.993 252.94Z" fill="#3F3D56"/>
<path d="M400.202 146.865C398.942 145.151 397.801 143.352 396.788 141.481L422.191 138.128L394.851 137.47C392.408 131.682 391.173 125.456 391.219 119.174C391.266 112.892 392.594 106.686 395.121 100.935L431.194 121.112L398.161 95.1864C401.501 89.8088 405.913 85.1768 411.122 81.579C416.33 77.9812 422.224 75.4948 428.436 74.2746C434.648 73.0544 441.044 73.1267 447.227 74.4869C453.409 75.8471 459.245 78.4661 464.371 82.1807C469.497 85.8952 473.803 90.6258 477.021 96.0774C480.239 101.529 482.299 107.585 483.074 113.868C483.848 120.151 483.321 126.526 481.524 132.596C479.726 138.666 476.698 144.3 472.628 149.149C474.595 151.817 476.269 154.69 477.62 157.718L444.274 173.73L479.628 163.083C481.856 170.421 482.219 178.199 480.684 185.712C479.148 193.226 475.763 200.238 470.835 206.114C475.967 213.079 479.036 221.347 479.69 229.974C480.345 238.6 478.558 247.237 474.536 254.896C470.513 262.555 464.416 268.928 456.942 273.285C449.468 277.643 440.918 279.809 432.271 279.536C423.624 279.264 415.228 276.563 408.043 271.744C400.859 266.924 395.175 260.18 391.643 252.283C388.11 244.385 386.872 235.653 388.068 227.085C389.265 218.517 392.848 210.458 398.409 203.83C392.28 195.507 389.124 185.367 389.449 175.035C389.775 164.704 393.561 154.782 400.202 146.861V146.865Z" fill="#00683D"/>
<path opacity="0.1" d="M481.591 177.947C481.284 188.281 477.5 198.208 470.851 206.124C475.983 213.089 479.052 221.357 479.706 229.984C480.36 238.611 478.574 247.247 474.551 254.906C470.528 262.566 464.431 268.938 456.957 273.296C449.483 277.653 440.934 279.819 432.287 279.547C423.64 279.274 415.244 276.574 408.059 271.754C400.874 266.935 395.191 260.19 391.658 252.293C388.126 244.396 386.887 235.664 388.084 227.095C389.28 218.527 392.864 210.468 398.424 203.841C392.475 195.804 481.754 172.778 481.591 177.947Z" fill="black"/>
</g>
<path d="M73.6953 316.008L78.5938 315.994H85.5002L94.2324 174.14L180.71 29.8338L176.95 25.7992V15.582L83.4268 170.796L73.6953 316.008Z" fill="#F1C0C0"/>
<path opacity="0.1" d="M79.1172 315.996H85.5006L94.2328 174.141L180.71 29.8354L176.951 25.8008L87.7514 171.979L79.1172 315.996Z" fill="black"/>
<path d="M59.2656 317.19L283.339 334.337L283.53 334.351L500.384 321.014L500.547 321.005V311.848L261.601 307.463L62.2495 307.271H60.7926L60.6338 308.299L59.2656 317.19Z" fill="#F1C0C0"/>
<path opacity="0.1" d="M59.2656 317.19L283.339 334.337L283.53 334.351L500.384 321.014L500.547 320.837V312.039H500.356L283.339 319.286L62.2495 307.271H62.2168L61.8246 307.528L60.6338 308.299L59.2656 317.19Z" fill="black"/>
<path opacity="0.1" d="M59.2656 317.191L283.338 334.338V319.287L61.8246 307.529L60.6338 308.3L59.2656 317.191Z" fill="black"/>
<path d="M176.922 25.6078L275.708 131.637L272.654 318.142L281.046 319.156L281.186 319.174H289.577L290.581 139.645L475.56 201.434L478.679 311.451L485.431 312.207L487.719 312.464L482.424 193.804L289.054 125.916L183.025 15.6895H176.922V25.6078Z" fill="#F1C0C0"/>
<path opacity="0.1" d="M289.82 136.213L290.581 139.645L475.56 201.434L478.679 311.451L485.432 312.207L480.136 199.146L289.82 136.213Z" fill="black"/>
<path opacity="0.1" d="M176.922 25.6078L275.708 131.637L272.654 318.142L281.046 319.156L283.334 125.533L176.922 15.6895V25.6078Z" fill="black"/>
<path d="M290.18 211.062L358.025 224.422L358.048 224.427L476.877 247.836L482.317 245.655L482.298 245.272L481.943 237.684L290.25 198.949L290.18 211.062Z" fill="#F1C0C0"/>
<path opacity="0.1" d="M358.047 224.428L476.875 247.837L482.315 245.656L482.297 245.273L358.047 224.428Z" fill="black"/>
<path d="M362.594 163.699L364.429 264.722L365.377 316.551L373.731 316.27L378.989 316.093L377.354 165.161L373.731 163.956L372.937 163.699H362.594Z" fill="#F1C0C0"/>
<path opacity="0.1" d="M362.672 163.676V163.699L364.432 264.722L365.38 316.551L373.734 316.27V163.676H362.672Z" fill="black"/>
<path d="M231.739 189.498C232.23 189.764 232.698 190.068 233.14 190.408C233.663 190.866 234.133 191.382 234.541 191.945C236.544 194.536 238.394 197.548 238.198 200.817C238.202 201.292 238.112 201.764 237.933 202.205C237.754 202.646 237.49 203.047 237.156 203.385C236.33 204.09 235.144 204.123 234.06 204.123C232.883 204.123 231.646 204.123 230.628 203.516C229.61 202.909 228.76 201.727 227.555 201.755C227.385 201.784 227.212 201.784 227.042 201.755C226.626 201.62 226.542 201.074 226.271 200.728C225.804 200.107 224.819 200.261 224.086 200.532C223.353 200.803 222.54 201.209 221.816 200.896C221.396 200.675 221.053 200.331 220.831 199.911C219.099 197.109 218.73 193.742 218.403 190.488C218.202 188.508 216.67 181.755 220.897 183.292C222.764 183.964 224.511 185.309 226.211 186.294L231.739 189.498Z" fill="#3F3D56"/>
<path d="M227.563 190.166C227.94 190.438 228.397 190.575 228.862 190.557C229.327 190.538 229.772 190.364 230.126 190.064C230.822 189.435 231.265 188.576 231.373 187.645C231.84 187.5 232.078 188.112 232.377 188.485C232.9 189.12 233.965 189.111 234.441 189.788C234.773 190.255 234.698 190.904 234.931 191.432C235.235 192.114 235.987 192.469 236.5 193.02C236.985 193.622 237.336 194.321 237.528 195.07L238.293 197.367C238.66 198.322 238.895 199.323 238.994 200.342C239.042 200.851 238.989 201.364 238.836 201.853C238.684 202.341 238.436 202.794 238.107 203.185C237.079 204.292 235.394 204.409 233.904 204.376C233.406 204.387 232.91 204.329 232.428 204.203C231.107 203.792 230.262 202.462 229.911 201.121C229.561 199.781 229.599 198.376 229.393 197.003C229.171 195.654 228.779 194.339 228.226 193.09C227.815 192.118 226.685 190.671 226.703 189.639C227.04 189.639 227.282 189.947 227.563 190.166Z" fill="#3F3D56"/>
<path d="M229.237 185.437C229.019 184.774 228.891 184.084 228.859 183.387C228.859 181.986 229.499 180.669 230.143 179.418L224.806 180.142C224.161 180.23 223.442 180.361 223.078 180.898C222.939 181.164 222.867 181.46 222.867 181.76C222.867 182.06 222.939 182.355 223.078 182.621C223.345 183.154 223.558 183.713 223.713 184.288C223.725 184.792 223.783 185.294 223.886 185.787C224.052 186.15 224.285 186.478 224.572 186.754C226.099 188.444 227.243 190.438 228.382 192.414C228.35 192.358 231.6 189.841 231.469 189.019C231.394 188.552 230.456 187.991 230.157 187.543C229.744 186.892 229.434 186.182 229.237 185.437Z" fill="#FFA8A7"/>
<path d="M275.001 167.191V171.791L196.238 187.154L192.152 189.629H178.055V187.037L255.44 168.34L275.001 167.191Z" fill="#F1C0C0"/>
<path opacity="0.1" d="M275.001 171.791L196.238 187.154L192.152 189.629H178.055L256.014 172.944L275.001 171.791Z" fill="black"/>
<path d="M211.766 297.764C210.888 296.701 209.677 295.967 208.329 295.68C206.981 295.394 205.575 295.572 204.341 296.186C204.077 296.31 203.844 296.492 203.66 296.718C203.193 297.372 203.491 298.273 203.533 299.081C203.641 301.052 202.072 302.653 200.662 304.031C199.905 304.769 199.135 305.558 198.794 306.562C198.453 307.566 198.705 308.841 199.62 309.364C200.02 309.564 200.454 309.684 200.9 309.718C202.392 310.01 203.923 310.052 205.429 309.844C206.919 309.56 208.381 308.714 209.025 307.342C209.149 306.969 209.355 306.63 209.627 306.347C210.449 305.698 211.71 306.459 212.644 305.997C213.414 305.614 213.447 305.011 213.456 304.218C213.484 302.023 213.158 299.539 211.766 297.764Z" fill="#00683D"/>
<path d="M222.969 297.68C223.543 299.193 223.622 300.841 223.697 302.457C223.739 303.391 223.767 304.39 223.263 305.179C222.758 305.969 221.773 306.384 220.83 306.58C218.883 306.982 216.627 306.604 215.371 305.058C214.409 303.877 214.208 302.256 214.386 300.725C214.535 299.469 214.853 297.998 213.951 297.106C213.718 296.868 213.414 296.699 213.2 296.443C212.733 295.873 212.807 295.014 213.06 294.313C213.388 293.643 213.634 292.936 213.793 292.207C213.83 291.862 220.115 292.45 220.694 292.735C221.484 293.122 221.362 293.772 221.6 294.556C221.932 295.649 222.567 296.634 222.969 297.68Z" fill="#00683D"/>
<path d="M224.121 230.596C225.354 231.394 225.83 232.963 226.022 234.42C226.549 238.413 225.625 242.447 225.555 246.477C225.489 252.123 227.124 257.871 225.727 263.339C224.892 266.608 225.601 270.344 224.817 273.645C224.583 274.626 224.154 275.55 223.93 276.531C223.463 278.656 223.953 280.879 224.611 282.957C224.822 283.517 224.955 284.102 225.008 284.698C224.977 285.615 224.744 286.515 224.326 287.332L221.525 293.958C221.212 294.701 219.979 294.822 219.19 294.92C217.705 295.098 216.047 295.224 214.866 294.304C213.684 293.384 213.4 291.843 213.217 290.405C212.868 287.643 212.712 284.861 212.75 282.079C212.802 281.352 212.737 280.623 212.559 279.917C212.302 279.118 211.737 278.427 211.583 277.582C211.387 276.489 211.943 275.415 212.148 274.313C212.289 273.306 212.273 272.284 212.101 271.282C211.919 269.788 211.709 268.294 211.471 266.809C211.135 264.731 211.616 262.681 211.938 260.598C212.241 258.642 211.854 256.648 211.471 254.705C211.504 256.282 211.307 257.855 210.887 259.375C210.64 260.117 210.285 260.827 210.07 261.584C209.113 264.978 211.153 268.541 210.864 272.058C210.728 273.701 210.084 275.326 210.266 276.947C210.392 278.133 210.943 279.221 211.322 280.351C211.7 281.481 211.896 282.774 211.322 283.83C209.804 286.697 210.939 290.596 212.297 293.538C212.573 294.06 212.814 294.599 213.017 295.154C213.418 296.48 213.082 297.904 213.189 299.286C212.798 299.35 212.398 299.324 212.018 299.21C211.639 299.096 211.29 298.897 210.999 298.628C210.794 298.413 210.626 298.161 210.425 297.937C209.864 297.402 209.2 296.987 208.473 296.718C208.046 296.479 207.56 296.367 207.072 296.396C206.559 296.539 206.097 296.826 205.741 297.222C205.279 297.628 204.789 298.001 204.275 298.338C204.056 298.507 203.8 298.62 203.528 298.67C203.391 298.691 203.251 298.669 203.128 298.606C203.005 298.543 202.905 298.443 202.841 298.32C202.812 298.242 202.795 298.16 202.79 298.077C202.617 296.667 202.525 295.248 202.515 293.827C202.515 291.385 199.591 289.704 199.222 287.29C198.928 285.343 199.475 283.358 199.293 281.397C199.204 280.388 198.924 279.398 198.942 278.39C198.942 277.736 199.092 277.096 199.143 276.447C199.186 275.727 199.175 275.004 199.11 274.285L198.966 272.03C198.826 269.802 198.671 267.528 197.794 265.492C196.753 263.115 196.136 260.573 195.972 257.983C195.879 256.349 195.94 254.714 195.753 253.075C195.585 251.595 195.211 250.124 195.319 248.639C195.407 247.491 195.786 246.379 195.874 245.23C196.056 243.022 195.216 240.874 194.558 238.758C193.899 236.643 193.413 234.299 194.277 232.258C194.401 231.923 194.606 231.625 194.875 231.39C195.206 231.17 195.583 231.03 195.977 230.979C203.989 229.296 212.201 228.772 220.362 229.424C221.692 229.499 222.984 229.902 224.121 230.596Z" fill="#3F3D56"/>
<path d="M197.614 181.001C201.745 181.001 205.094 177.651 205.094 173.52C205.094 169.388 201.745 166.039 197.614 166.039C193.482 166.039 190.133 169.388 190.133 173.52C190.133 177.651 193.482 181.001 197.614 181.001Z" fill="#FFA8A7"/>
<path d="M196.167 182.863C196.275 183.29 196.275 183.738 196.167 184.165C196.049 184.464 195.884 184.742 195.677 184.987C194.953 185.921 194.151 186.793 193.281 187.593C193.724 188.583 194.523 189.371 195.518 189.802C196.506 190.222 197.543 190.519 198.605 190.684C199.134 190.824 199.686 190.862 200.23 190.796C200.731 190.67 201.205 190.455 201.631 190.161L205.787 187.672C206.414 187.333 206.994 186.914 207.514 186.426C208.277 185.642 208.708 184.595 208.719 183.502C208.738 183.307 208.685 183.11 208.57 182.951C208.41 182.813 208.211 182.729 208 182.713C206.538 182.391 205.385 181.205 204.731 179.86C204.14 178.481 203.758 177.022 203.596 175.531L199.165 177.866C198.507 178.216 197.853 178.567 197.171 178.87C196.737 179.066 195.859 179.23 195.551 179.627C194.962 180.36 196.013 181.98 196.167 182.863Z" fill="#FFA8A7"/>
<path d="M193.312 186.235C192.681 186.752 192.188 187.418 191.878 188.173C191.589 189.107 191.878 190.092 192.14 191.017C193.366 194.957 194.302 198.982 194.942 203.06C195.334 205.861 195.479 208.705 195.67 211.54C196.062 217.321 196.632 226.539 197.393 232.282C200.195 232.408 202.927 231.591 205.705 231.292C210.898 230.741 216.245 232.002 221.33 230.825C220.097 225.955 218.864 217.638 217.632 212.772C217.086 210.855 216.708 208.895 216.501 206.912C216.394 205.488 216.459 204.059 216.478 202.625C216.52 199.824 216.366 197.022 216.212 194.22C216.035 190.951 215.857 187.682 215.082 184.484C215.028 184.076 214.837 183.699 214.54 183.414C214.073 183.074 213.466 183.195 212.911 183.27C211.209 183.486 209.487 183.078 208.063 182.121C207.447 181.701 206.621 181.187 206.046 181.654C205.801 181.936 205.639 182.28 205.579 182.649C205.325 183.309 204.933 183.908 204.429 184.405C203.925 184.902 203.32 185.285 202.656 185.53C201.325 186.012 199.932 186.298 198.519 186.38C198.086 186.472 197.635 186.422 197.235 186.235C196.571 185.829 196.525 184.367 195.689 184.269C194.956 184.185 193.807 185.763 193.312 186.235Z" fill="#3F3D56"/>
<path d="M204.359 197.637C202.636 195.989 201.879 193.598 200.623 191.567C199.768 190.201 198.675 188.999 197.396 188.018C196.754 187.593 196.164 187.093 195.64 186.528C195.197 185.982 194.861 185.253 194.188 185.043C193.91 184.983 193.622 184.991 193.348 185.066C193.074 185.142 192.822 185.283 192.615 185.477C192.203 185.87 191.813 186.284 191.447 186.719C189.467 188.769 185.988 189.054 184.419 191.426C183.996 191.929 183.708 192.532 183.583 193.178C183.132 196.63 184.025 200.124 186.077 202.937C186.474 203.589 187.085 204.084 187.805 204.338C187.707 205.209 187.823 206.09 188.141 206.906C189.006 209.862 190.068 212.756 191.321 215.569C191.021 216.669 190.812 217.792 190.695 218.926C190.368 221.779 190.672 224.674 190.364 227.532C190.112 229.867 189.43 232.141 189.407 234.481C189.407 234.854 189.439 235.298 189.761 235.489C189.933 235.577 190.125 235.618 190.317 235.606L196.061 235.779C199.395 235.877 202.762 235.975 206.044 235.359C206.482 235.294 206.906 235.16 207.301 234.962C208.412 234.341 208.781 232.94 208.958 231.693C209.19 230.076 209.282 228.441 209.234 226.808C209.93 229.008 210.756 231.282 212.857 232.235C213.969 232.739 215.239 232.701 216.458 232.669C219.085 232.552 221.703 232.282 224.298 231.861C224.458 231.881 224.62 231.863 224.772 231.809C224.924 231.755 225.061 231.666 225.172 231.549C225.283 231.432 225.366 231.291 225.413 231.137C225.46 230.983 225.47 230.82 225.442 230.661L225.47 228.111C225.526 222.933 224.242 217.983 223.742 212.827C223.584 211.202 223.598 209.559 223.201 207.966C223.037 207.299 222.799 206.645 222.654 205.972C222.53 205.314 222.452 204.648 222.421 203.978L222.057 198.842C221.884 196.465 221.636 194.172 221.454 191.8C221.354 189.49 221.019 187.196 220.455 184.954C220.049 183.553 219.204 181.966 217.742 181.793C216.962 181.704 216.206 182.045 215.463 182.283C213.638 182.858 211.68 182.85 209.86 182.26C209.297 182.038 208.711 181.881 208.113 181.793C207.812 181.752 207.505 181.792 207.225 181.908C206.944 182.025 206.7 182.214 206.516 182.456C206.335 182.821 206.25 183.226 206.269 183.633C206.049 188.298 205.643 193.103 204.359 197.637Z" fill="#00683D"/>
<path d="M196.843 197.779C194.69 195.509 192.482 193.198 189.708 191.755C188.615 191.185 187.373 190.756 186.164 190.97C184.954 191.185 183.829 192.236 183.885 193.464C183.922 194.225 184.384 194.898 184.529 195.645C184.697 196.485 184.455 197.382 184.716 198.194C184.929 198.73 185.246 199.217 185.65 199.628L188.956 203.546C190.357 205.18 191.758 206.838 193.56 207.968C195.363 209.098 197.698 209.626 199.678 208.822C201.086 208.168 202.258 207.093 203.03 205.745C203.852 204.438 204.431 203.009 205.202 201.659C206.401 199.503 207.983 197.583 209.871 195.995C208.9 195.743 207.681 195.388 207.07 194.594C206.895 194.342 206.747 194.073 206.626 193.791L205.869 192.156C205.612 192.143 205.355 192.183 205.114 192.274C204.873 192.365 204.653 192.504 204.469 192.684C204.144 193.059 203.796 193.413 203.427 193.744C202.769 194.239 201.877 194.375 201.279 194.94C201.048 195.182 200.839 195.445 200.654 195.724C200.201 196.318 199.628 196.809 198.97 197.163C198.313 197.518 197.588 197.727 196.843 197.779Z" fill="#3F3D56"/>
<path d="M210.048 188.013C211.669 185.057 211.594 181.513 212.056 178.174C212.106 177.29 212.417 176.44 212.948 175.732C213.882 174.677 215.53 174.663 216.941 174.798C217.356 174.845 217.875 175.041 217.851 175.456C217.819 175.605 217.746 175.742 217.641 175.853C216.274 177.617 215.47 179.752 215.334 181.98C216.067 182.489 217.202 181.443 217.907 181.98C218.374 182.372 218.159 183.147 217.879 183.708C217.229 185.006 216.558 186.295 215.867 187.574C215.315 188.702 214.595 189.739 213.733 190.651C213.14 191.221 212.444 191.669 211.841 192.23C210.441 193.542 209.595 195.396 208.148 196.675C208.025 196.808 207.86 196.892 207.681 196.913C207.497 196.9 207.323 196.822 207.19 196.694C206.467 196.106 205.867 195.38 205.425 194.56C204.874 193.542 204.958 193.243 205.827 192.524C207.452 191.24 209.035 189.862 210.048 188.013Z" fill="#FFA8A7"/>
<path d="M194.132 195.77C194.412 195.943 194.758 196.139 195.066 195.994C195.192 195.918 195.299 195.814 195.379 195.691C195.913 194.978 196.358 194.204 196.705 193.384C196.765 193.268 196.798 193.141 196.803 193.01C196.803 192.712 196.537 192.492 196.29 192.319C194.964 191.474 193.538 190.797 192.045 190.302C190.812 189.835 189.523 189.429 188.216 189.546C187.725 189.579 187.245 189.711 186.806 189.934C186.367 190.157 185.978 190.466 185.662 190.844C184.728 192.044 186.292 192.408 187.273 192.842C189.542 193.874 191.998 194.472 194.132 195.77Z" fill="#00683D"/>
<path opacity="0.1" d="M192.664 203.709C192.648 203.816 192.657 203.925 192.691 204.027C192.726 204.129 192.783 204.222 192.86 204.298C192.995 203.635 192.818 202.934 192.958 202.266C193.163 201.262 194.139 200.506 194.223 199.497C192.435 199.147 192.678 202.626 192.664 203.709Z" fill="black"/>
<path opacity="0.2" d="M274.999 167.191V171.791L256.012 172.944L255.438 168.34L274.999 167.191Z" fill="black"/>
<path d="M190.883 174.63C192.069 173.664 191.383 171.637 192.186 170.339C192.653 169.629 193.442 169.256 194.217 168.938C195.153 168.5 196.155 168.222 197.183 168.116C197.697 168.067 198.216 168.134 198.701 168.312C199.186 168.491 199.625 168.777 199.984 169.148C200.288 169.494 200.493 169.914 200.778 170.274C201.131 170.693 201.591 171.009 202.109 171.188C202.627 171.368 203.183 171.403 203.72 171.292C204.341 171.151 204.986 170.68 204.943 170.045C204.873 169.658 204.676 169.307 204.383 169.045L203.048 167.565C201.53 165.884 199.844 164.1 197.617 163.68C196.067 163.386 194.479 163.801 192.985 164.301C192.382 164.502 191.705 164.801 191.537 165.412C191.425 165.833 191.593 166.29 191.495 166.715C191.303 167.56 190.22 167.845 189.716 168.555C189.211 169.265 189.366 170.105 189.221 170.89C189.076 171.674 188.656 172.44 188.604 173.253C188.572 173.743 188.819 174.654 189.37 174.831C189.921 175.009 190.542 174.047 190.883 174.63Z" fill="#3F3D56"/>
<path d="M204.489 169.372C204.096 167.318 203.247 165.377 202.005 163.694C200.901 162.121 199.365 160.901 197.583 160.182C196.692 159.834 195.734 159.692 194.78 159.768C193.827 159.843 192.903 160.133 192.078 160.617C190.852 161.491 189.899 162.694 189.327 164.086C188.118 166.692 187.669 169.877 189.075 172.379C189.635 171.698 190.597 172.006 191.447 171.758C192.512 171.455 193.413 170.745 194.426 170.301C197.485 168.952 201.221 170.045 204.489 169.372Z" fill="#FED253"/>
<path opacity="0.1" d="M189.787 169.228C189.68 168.387 189.61 167.411 190.207 166.813C190.237 166.777 190.275 166.748 190.318 166.728C190.361 166.709 190.408 166.7 190.455 166.701C190.496 166.715 190.535 166.737 190.568 166.766C190.601 166.795 190.627 166.83 190.646 166.87C190.991 167.414 191.285 167.989 191.524 168.588C191.176 168.508 190.812 168.534 190.479 168.663C190.146 168.792 189.859 169.018 189.656 169.312" fill="black"/>
<path opacity="0.1" d="M200.704 166.856L200.536 165.189C200.509 165.052 200.52 164.91 200.568 164.778C200.639 164.668 200.747 164.588 200.873 164.554C200.999 164.519 201.134 164.533 201.25 164.592C201.48 164.719 201.669 164.908 201.797 165.138C202.185 165.735 202.508 166.372 202.758 167.038C202.006 166.894 201.233 166.903 200.484 167.066" fill="black"/>
<path opacity="0.1" d="M204.882 234.514V238.324L201.665 238.539H184.742V234.514H204.882Z" fill="black"/>
<path d="M204.879 234.514V238.539H184.739L131.234 171.516V168.35H142.451L204.879 234.514Z" fill="#F1C0C0"/>
<path opacity="0.1" d="M204.879 234.514V238.539H184.739L131.234 171.516V168.35H142.451L204.879 234.514Z" fill="black"/>
<path opacity="0.1" d="M204.879 234.514V238.539H184.739L131.234 171.516V168.35L185.029 234.514H204.879Z" fill="black"/>
<path d="M138.251 301.691C138.286 301.881 138.282 302.075 138.238 302.263C138.195 302.451 138.113 302.627 137.998 302.782C137.883 302.937 137.738 303.066 137.571 303.162C137.404 303.258 137.219 303.318 137.027 303.34C135.729 303.778 134.352 304.213 133.432 305.207C132.512 306.202 132.33 308.047 133.432 308.854C133.995 309.194 134.642 309.37 135.299 309.363C137.415 309.508 139.619 309.48 141.538 308.584C142.911 307.948 144.205 306.865 145.713 306.963C146.493 307.01 147.324 307.374 148.02 307.019C148.715 306.664 148.912 305.674 148.916 304.848C148.934 303.122 148.674 301.405 148.146 299.763C148.076 299.538 145.106 299.366 144.751 299.296L141.151 298.829C140.469 298.74 138.998 298.226 138.461 298.796C137.924 299.366 138.251 301.014 138.251 301.691Z" fill="#00683D"/>
<path d="M159.734 290.036C159.887 290.877 160.134 291.698 160.472 292.483C160.972 293.753 161.611 295.103 162.835 295.719C163.946 296.275 165.31 296.074 166.44 295.546C166.911 295.351 167.325 295.037 167.64 294.636C168.004 294 168.167 293.269 168.107 292.539C168.107 290.732 167.999 288.864 167.173 287.258C166.463 285.857 165.226 284.652 165.207 283.102L160.953 283.923C160.725 283.945 160.508 284.031 160.327 284.171C160.192 284.313 160.099 284.489 160.056 284.68C159.602 286.427 159.493 288.247 159.734 290.036Z" fill="#00683D"/>
<path d="M108.931 245.675C108.754 247.179 108.829 248.79 109.613 250.088C110.398 251.386 112.051 252.245 113.479 251.727C113.553 251.708 113.621 251.675 113.682 251.629C113.742 251.583 113.792 251.526 113.83 251.461C113.868 251.303 113.846 251.137 113.769 250.994C113.138 249.31 113.19 247.447 113.914 245.801C114.007 245.586 114.208 245.334 114.427 245.418C114.519 245.465 114.593 245.54 114.638 245.633C114.864 246.024 114.977 246.47 114.964 246.922C114.899 247.331 114.886 247.747 114.927 248.159C115.016 248.561 115.445 248.939 115.819 248.766C115.927 248.7 116.02 248.612 116.093 248.509C116.166 248.405 116.218 248.288 116.244 248.164C117.285 245.152 116.814 241.86 116.337 238.708C116.341 238.635 116.329 238.563 116.302 238.496C116.275 238.429 116.234 238.368 116.181 238.319C116.128 238.269 116.064 238.232 115.996 238.21C115.927 238.187 115.854 238.181 115.782 238.19C113.578 237.97 112.373 237.442 111.112 239.492C110.029 241.22 108.931 243.597 108.931 245.675Z" fill="#00683D"/>
<path d="M134.698 238.013C134.044 240.731 133.386 243.481 133.344 246.273C133.355 248.013 133.486 249.749 133.736 251.471L134.226 255.515C134.394 256.878 134.558 258.237 134.796 259.587C134.948 260.282 135.031 260.99 135.044 261.702C134.998 262.403 134.887 263.099 134.712 263.78C134.418 265.21 134.254 266.663 134.222 268.123C134.17 270.458 134.46 272.792 134.642 275.127C135.005 279.78 134.951 284.456 134.478 289.099C134.29 290.352 134.562 291.631 135.244 292.699C135.521 293.036 135.749 293.41 135.921 293.81C136.272 294.88 135.454 295.949 135.244 297.046C135.11 297.902 135.321 298.776 135.83 299.477C136.34 300.177 137.107 300.647 137.962 300.782C141.698 301.226 145.536 301.025 148.903 302.734C149.258 301.697 148.483 300.521 148.838 299.465C149.062 298.812 149.678 298.387 150.098 297.836C150.663 296.996 150.944 295.998 150.902 294.987C150.918 293.668 150.684 292.357 150.211 291.125C149.814 290.098 149.244 289.085 149.277 287.983C149.277 287.441 149.468 286.871 149.249 286.372C149.098 286.085 148.894 285.829 148.646 285.62C147.251 284.091 146.393 282.148 146.204 280.086C146.022 278.041 146.088 275.98 146.4 273.95C146.629 272.017 146.937 269.977 148.165 268.468C147.596 263.895 147.93 259.254 149.15 254.81C149.272 254.399 149.463 253.922 149.884 253.824C150.051 253.807 150.219 253.83 150.375 253.892C150.531 253.954 150.67 254.052 150.78 254.179C151.513 254.866 151.864 255.86 152.181 256.813C152.531 257.845 152.886 258.947 152.62 260.002C152.508 260.469 152.284 260.88 152.153 261.328C151.869 262.229 151.919 263.202 152.293 264.069C152.476 264.386 152.59 264.738 152.629 265.101C152.586 265.414 152.491 265.717 152.349 265.998C152.176 266.551 152.121 267.133 152.188 267.709C152.255 268.284 152.442 268.839 152.737 269.337C153.332 270.328 154.066 271.229 154.918 272.013C154.511 273.805 154.616 275.675 155.221 277.411C155.265 277.489 155.293 277.575 155.303 277.664C155.313 277.753 155.306 277.843 155.282 277.929C155.198 278.106 154.983 278.172 154.815 278.298C154.348 278.681 154.637 279.405 154.95 279.904C155.808 281.276 156.755 282.589 157.785 283.836C158.719 284.952 158.635 287.105 160.026 287.506C160.611 287.633 161.216 287.633 161.801 287.506C163.173 287.296 164.705 286.899 165.378 285.685C165.653 285.186 165.765 284.579 166.195 284.205C166.624 283.831 167.18 283.766 167.418 283.318C167.656 282.869 167.39 282.281 167.47 281.763C167.549 281.244 168.002 280.829 168.147 280.282C168.492 279.022 167.021 277.985 166.82 276.696C166.531 274.828 168.884 273.427 168.786 271.56C168.581 267.502 168.45 263.425 168.24 259.367C167.976 255.732 167.939 252.084 168.128 248.445C168.291 246.18 168.595 243.808 167.764 241.702C166.568 238.732 163.272 237.065 160.082 236.747C156.893 236.43 153.713 237.186 150.551 237.681C145.305 238.49 139.974 238.601 134.698 238.013Z" fill="#3F3D56"/>
<path d="M144.176 193.38C148.308 193.38 151.657 190.03 151.657 185.899C151.657 181.767 148.308 178.418 144.176 178.418C140.045 178.418 136.695 181.767 136.695 185.899C136.695 190.03 140.045 193.38 144.176 193.38Z" fill="#FBBEBE"/>
<path d="M141.135 194.775C140.881 195.367 140.454 195.868 139.91 196.212C139.365 196.556 138.73 196.728 138.086 196.704C137.815 197.825 138.464 198.955 139.207 199.837C140.749 201.631 142.741 202.982 144.979 203.749C147.216 204.517 149.618 204.673 151.936 204.203C152.839 204.042 153.694 203.685 154.444 203.157C155.454 202.314 156.133 201.139 156.359 199.842C156.573 198.554 156.635 197.245 156.541 195.943C156.567 195.686 156.493 195.428 156.335 195.224C156.148 195.079 155.918 195.003 155.681 195.009C154.103 194.869 152.455 194.808 151.068 194.033C149.681 193.258 148.696 191.507 149.363 190.068C149.256 190.293 146.529 190.4 146.169 190.447C145.044 190.605 143.919 190.783 142.798 190.988C142.259 191.018 141.727 191.118 141.215 191.287C140.538 191.637 140.79 191.465 140.949 192.1C141.187 193.071 141.537 193.767 141.135 194.775Z" fill="#FBBEBE"/>
<path d="M146.829 199.324C145.822 199.335 144.817 199.224 143.836 198.992C142.846 198.761 141.974 198.179 141.38 197.353C141.034 196.83 140.81 196.172 140.259 195.878C139.358 195.411 138.331 196.2 137.612 196.924C136.957 197.637 136.198 198.248 135.361 198.735C134.362 199.263 133.194 199.45 132.251 200.071C131.514 200.628 130.882 201.311 130.383 202.088L123.766 211.101C121.109 214.724 118.798 218.614 116.43 222.438C114.38 225.749 113.306 229.56 111.76 233.132C111.638 233.351 111.587 233.602 111.616 233.851C111.672 234.094 111.966 234.29 112.171 234.15C111.476 234.841 112.087 236.018 111.924 236.989C111.738 237.669 111.351 238.276 110.812 238.731C111.84 238.597 112.884 238.646 113.894 238.876C114.939 239.172 115.925 239.646 116.808 240.276C117.373 240.188 117.322 239.184 117.742 238.81C117.994 238.591 118.368 238.619 118.7 238.553C119.946 238.311 120.441 236.812 121.399 235.966C122.197 235.261 123.327 235.032 124.172 234.369C125.545 233.291 125.839 231.371 126.559 229.779C127.17 228.43 128.132 227.253 128.669 225.871C129.019 224.974 129.188 224.003 129.687 223.176C130.486 221.841 131.989 221.131 133.423 220.491C134.329 220.085 135.291 219.665 136.267 219.73C136.215 221.901 135.94 224.04 136.411 226.16C136.575 226.907 136.804 227.636 137 228.378C137.892 231.722 138.102 235.205 138.144 238.651C140.289 238.161 142.481 237.898 144.681 237.867C146.414 237.816 148.142 238.04 149.874 238.007C151.929 237.97 153.96 237.573 156.015 237.433C158.069 237.293 160.217 237.433 162.034 238.367C161.886 235.407 161.969 232.441 162.281 229.494L162.776 224.853C162.888 223.504 163.096 222.165 163.397 220.846C163.668 219.781 164.06 218.754 164.359 217.694C165.41 213.958 165.219 209.971 165.018 206.081C164.915 204.082 164.145 202.116 163.239 200.337C162.911 199.676 162.536 199.039 162.118 198.432C161.023 196.924 159.564 195.717 157.877 194.925C156.19 194.133 154.33 193.781 152.47 193.902C152.233 193.91 151.999 193.96 151.779 194.052C151.385 194.304 151.077 194.671 150.897 195.102C149.931 196.839 148.529 198.294 146.829 199.324Z" fill="#3F3D56"/>
<path d="M137.602 188.378C137.813 187.911 138.378 187.738 138.723 187.364C139.386 186.655 139.087 185.52 139.19 184.563C139.358 183.162 140.521 181.99 141.852 181.49C143.209 181.054 144.653 180.963 146.054 181.224C146.729 181.273 147.381 181.49 147.95 181.854C148.193 182.032 148.417 182.26 148.646 182.424C149.063 182.676 149.562 182.755 150.037 182.644C150.512 182.533 150.924 182.242 151.186 181.831C149.533 179.842 147.703 177.74 145.191 177.128C144.329 176.953 143.45 176.87 142.571 176.881C141.408 176.858 140.208 176.839 139.134 177.283C137.672 177.885 136.645 179.272 136.117 180.766C135.656 182.281 135.409 183.853 135.384 185.436C135.289 186.492 135.289 187.555 135.384 188.611C135.565 190.054 136.101 191.429 136.944 192.613C137.058 192.797 137.219 192.947 137.411 193.047C139.54 193.981 137.43 188.765 137.602 188.378Z" fill="#3F3D56"/>
<path d="M150.937 180.678C150.68 178.478 149.111 176.662 147.444 175.2C146.101 173.933 144.5 172.969 142.751 172.375C140.991 171.857 138.964 171.969 137.456 173.02C136.242 173.865 135.471 175.21 134.878 176.564C134.099 178.162 133.713 179.923 133.753 181.7C133.869 183.466 134.729 185.254 136.26 186.146C136.811 185.333 137.769 184.913 138.689 184.582C142.698 183.06 146.787 181.757 150.937 180.678Z" fill="#FED253"/>
<path opacity="0.1" d="M136.781 179.762C136.931 179.762 137.029 179.916 137.104 180.042C137.484 180.635 137.81 181.26 138.079 181.91C137.533 182.027 136.595 182.157 136.324 181.677C136.179 181.434 136.352 179.739 136.781 179.762Z" fill="black"/>
<path opacity="0.1" d="M147.423 178.708C147.311 178.816 147.18 178.596 147.18 178.437V176.626C147.177 176.575 147.188 176.525 147.213 176.481C147.232 176.459 147.256 176.441 147.282 176.428C147.309 176.415 147.338 176.408 147.367 176.406C147.745 176.364 148.058 176.686 148.301 176.994C148.669 177.494 148.99 178.027 149.258 178.587L147.283 178.526" fill="black"/>
<path d="M172.069 208.71C172.499 208.303 172.958 207.926 173.442 207.585C174.735 206.721 176.3 206.38 177.752 205.829C179.204 205.278 180.68 204.386 181.245 202.939C181.528 202.034 181.62 201.08 181.516 200.137C181.529 199.742 181.459 199.349 181.31 198.984C181.132 198.66 180.879 198.385 180.572 198.18C178.602 196.723 175.959 196.607 173.512 196.756C168.117 197.091 162.83 198.411 157.911 200.651C157.65 200.737 157.422 200.899 157.257 201.118C157.161 201.32 157.118 201.543 157.131 201.767C157.044 203.144 157.223 204.525 157.658 205.834C158.303 207.496 159.629 208.837 160.185 210.532C160.437 211.293 160.521 212.101 160.74 212.866C160.92 213.657 161.388 214.353 162.053 214.818C163.897 215.92 165.639 214.44 166.918 213.291L172.069 208.71Z" fill="#3F3D56"/>
<path d="M147.913 215.176L145.546 210.012C145.199 209.296 144.899 208.558 144.649 207.803C144.378 206.902 144.248 205.968 143.995 205.062C143.164 202.045 141.068 199.533 140.045 196.577C139.98 196.31 139.848 196.064 139.662 195.863C139.513 195.757 139.342 195.686 139.162 195.653C138.982 195.621 138.797 195.629 138.621 195.676C137.192 195.924 136.076 197.012 134.768 197.628C134.161 197.908 133.507 198.095 132.9 198.417C132.597 198.561 132.328 198.768 132.112 199.025C131.896 199.282 131.738 199.583 131.649 199.907C131.504 200.621 131.859 201.308 132.158 202.003C133.428 204.871 133.717 208.074 133.774 211.212C133.816 213.323 133.708 215.587 132.461 217.282C130.066 220.551 131.597 225.352 132.494 229.307C132.601 229.774 132.728 230.278 132.802 230.773C132.881 231.392 132.917 232.017 132.91 232.641C132.91 234.738 132.793 236.9 131.915 238.8C132.782 239.261 133.737 239.532 134.717 239.594C137.428 239.94 140.151 240.182 142.884 240.322C143.74 240.403 144.604 240.359 145.448 240.192C146.45 239.921 147.333 239.324 147.958 238.495C148.583 237.667 148.914 236.653 148.898 235.615C149.048 236.909 149.323 238.315 150.262 239.211C151.201 240.108 152.569 240.243 153.844 240.313C157.442 240.504 161.049 240.402 164.631 240.01C164.859 239.999 165.084 239.947 165.294 239.856C165.985 239.51 166.022 238.557 165.966 237.792C165.863 236.358 165.756 234.924 165.583 233.5C165.437 232.592 165.362 231.674 165.359 230.754C165.43 229.808 165.586 228.871 165.826 227.953C166.452 225.039 166.947 222.064 166.737 219.08C166.653 218.353 166.624 217.621 166.648 216.89C166.769 215.242 167.638 213.673 167.474 212.034C167.007 207.215 166.629 202.27 165.284 197.619C165.041 196.787 164.733 195.895 164.009 195.419C163.076 194.793 161.763 195.12 160.694 194.723C160.192 194.49 159.715 194.207 159.27 193.878C158.302 193.273 157.193 192.932 156.052 192.888C155.193 192.856 154.236 193.047 153.718 193.738C153.478 194.127 153.319 194.561 153.251 195.013C152.574 197.861 151.78 200.677 150.986 203.493L150.225 206.192L148.184 213.439C147.983 214.21 148.119 214.448 147.913 215.176Z" fill="#00683D"/>
<path d="M159.852 186.902L205.021 234.369V238.395H184.881L150.938 194.094" fill="#F1C0C0"/>
<path opacity="0.1" d="M159.852 186.902L205.021 234.369V238.395H184.881L150.938 194.094" fill="black"/>
<path opacity="0.1" d="M151.657 193.469L151.801 193.52L185.171 234.37H205.021V238.395H184.881L150.938 194.094L151.657 193.469Z" fill="black"/>
<path d="M156.861 194.467C155.227 195.182 153.41 196.097 152.92 197.815C152.823 198.117 152.803 198.438 152.859 198.749C152.979 199.116 153.207 199.437 153.513 199.671C153.819 199.906 154.188 200.042 154.573 200.061C155.342 200.08 156.107 199.94 156.819 199.65L166.462 196.466C166.724 196.382 167.023 196.256 167.088 195.999C167.105 195.837 167.072 195.674 166.994 195.532C166.696 194.803 166.401 193.314 165.776 192.805C165.262 192.394 164.244 192.539 163.623 192.548C161.232 192.567 158.986 193.533 156.861 194.467Z" fill="#00683D"/>
<path d="M165.458 196.843C167.082 196.839 168.697 197.089 170.244 197.586C171.798 198.09 173.174 199.03 174.209 200.294C174.51 200.647 174.724 201.066 174.834 201.518C174.928 201.985 176.45 202.265 176.114 202.582C177.137 202.419 176.894 202.9 177.93 202.89C178.967 202.881 180.088 202.615 180.709 201.788C181.14 201.109 181.333 200.306 181.255 199.505C181.269 198.951 181.164 198.4 180.947 197.889C180.48 196.909 179.406 196.381 178.416 195.928L170.076 192.113C169.592 191.856 169.073 191.671 168.535 191.567C168.082 191.524 167.626 191.535 167.176 191.599L163.398 192.034C164.225 192.568 164.897 193.309 165.35 194.182C165.803 195.056 166.02 196.033 165.981 197.016" fill="#3F3D56"/>
<path d="M138.5 224.719C138.634 224.638 138.667 224.519 138.651 224.434C138.636 224.356 138.586 224.3 138.518 224.281C138.512 224.427 138.506 224.573 138.5 224.719Z" fill="white"/>
<path d="M138.118 223.808C138.11 223.88 138.167 223.957 138.255 223.995C138.273 224 138.287 224.003 138.299 224.006C138.296 223.899 138.292 223.782 138.288 223.655C138.186 223.687 138.124 223.741 138.118 223.808Z" fill="white"/>
<path d="M138.198 222.013C138.014 222.029 137.896 222.18 137.891 222.31C137.885 222.448 137.997 222.55 138.189 222.582L138.192 222.583C138.217 222.589 138.238 222.591 138.257 222.592C138.251 222.41 138.246 222.215 138.24 222.007C138.226 222.009 138.212 222.011 138.198 222.013Z" fill="white"/>
<path d="M138.555 223.346C138.577 223.344 138.597 223.34 138.614 223.336C138.814 223.281 138.892 223.166 138.88 223.076C138.869 222.996 138.781 222.904 138.57 222.895C138.565 223.044 138.56 223.194 138.555 223.346Z" fill="white"/>
<path d="M138.956 222.023C138.877 222.023 138.81 221.996 138.734 221.964C138.688 221.96 138.637 221.968 138.6 221.967C138.592 222.182 138.585 222.396 138.578 222.607C138.758 222.626 138.879 222.668 138.966 222.742C139.139 222.881 139.168 223.03 139.16 223.13C139.15 223.28 139.052 223.43 138.91 223.514L138.907 223.515C138.768 223.585 138.66 223.618 138.543 223.623C138.538 223.757 138.533 223.891 138.528 224.026C138.705 224.051 138.763 224.125 138.829 224.209L138.834 224.215L138.835 224.217C138.905 224.326 138.918 224.479 138.869 224.624C138.823 224.758 138.733 224.861 138.625 224.902C138.584 224.921 138.539 224.935 138.491 224.942C138.487 225.033 138.483 225.124 138.478 225.215L138.477 225.256L138.361 225.26L138.357 225.219C138.351 225.171 138.345 225.083 138.339 224.945C138.135 224.928 137.977 224.811 137.977 224.811C137.977 224.811 138.233 224.825 138.331 224.783C138.326 224.647 138.32 224.477 138.312 224.268C138.242 224.263 138.177 224.245 138.098 224.21L138.096 224.209L138.094 224.208C137.975 224.139 137.852 223.995 137.844 223.827C137.839 223.733 137.87 223.596 138.043 223.474C138.112 223.428 138.189 223.397 138.283 223.376C138.278 223.225 138.273 223.061 138.268 222.884C138.09 222.88 137.975 222.827 137.864 222.775L137.849 222.768L137.847 222.767C137.708 222.685 137.61 222.523 137.597 222.356C137.587 222.229 137.62 222.042 137.833 221.869C137.908 221.805 138.04 221.763 138.235 221.74L138.232 221.654C138.181 221.606 138.152 221.541 138.152 221.472C138.152 221.332 138.272 221.218 138.419 221.218C138.567 221.218 138.687 221.332 138.687 221.472C138.687 221.539 138.659 221.586 138.611 221.633L138.609 221.698C138.609 221.698 138.697 221.724 138.733 221.725C138.777 221.717 138.82 221.7 138.861 221.7C139.081 221.7 139.267 221.911 139.267 221.911C139.267 221.911 139.089 222.023 138.956 222.023ZM139.514 221.942V220.406H137.304V221.942H135.422V224.245H137.304V225.781H139.514V224.245H141.514V221.942H139.514Z" fill="white"/>
<path d="M145.145 223.08V223.849C145.145 223.97 145.118 224.061 145.062 224.122C145.006 224.182 144.932 224.213 144.841 224.213C144.752 224.213 144.681 224.182 144.625 224.122C144.57 224.061 144.543 223.97 144.543 223.849V222.927C144.543 222.782 144.538 222.669 144.528 222.589C144.518 222.508 144.491 222.442 144.447 222.39C144.402 222.339 144.332 222.313 144.236 222.313C144.045 222.313 143.919 222.378 143.858 222.508C143.797 222.638 143.766 222.824 143.766 223.067V223.849C143.766 223.969 143.739 224.059 143.684 224.121C143.629 224.182 143.557 224.213 143.467 224.213C143.378 224.213 143.305 224.182 143.249 224.121C143.192 224.059 143.164 223.969 143.164 223.849V222.194C143.164 222.086 143.189 222.003 143.24 221.947C143.291 221.891 143.358 221.862 143.441 221.862C143.521 221.862 143.587 221.888 143.641 221.942C143.695 221.995 143.721 222.068 143.721 222.161V222.216C143.823 222.096 143.932 222.007 144.047 221.951C144.163 221.895 144.292 221.866 144.433 221.866C144.581 221.866 144.707 221.895 144.813 221.953C144.919 222.011 145.006 222.098 145.075 222.216C145.173 222.097 145.279 222.009 145.392 221.952C145.505 221.895 145.63 221.866 145.767 221.866C145.927 221.866 146.065 221.898 146.181 221.96C146.297 222.022 146.383 222.111 146.441 222.227C146.491 222.331 146.516 222.495 146.516 222.72V223.849C146.516 223.97 146.488 224.061 146.432 224.122C146.377 224.182 146.303 224.213 146.211 224.213C146.123 224.213 146.05 224.182 145.994 224.121C145.937 224.059 145.909 223.969 145.909 223.849V222.877C145.909 222.752 145.904 222.653 145.893 222.578C145.882 222.503 145.853 222.441 145.806 222.389C145.759 222.339 145.687 222.313 145.592 222.313C145.514 222.313 145.441 222.336 145.372 222.381C145.303 222.426 145.248 222.487 145.21 222.563C145.167 222.66 145.145 222.833 145.145 223.08Z" fill="white"/>
<path d="M147.575 222.851H148.637C148.622 222.654 148.568 222.506 148.474 222.408C148.381 222.31 148.258 222.26 148.105 222.26C147.959 222.26 147.839 222.31 147.746 222.41C147.652 222.509 147.595 222.656 147.575 222.851ZM148.72 223.18H147.575C147.576 223.311 147.603 223.427 147.655 223.527C147.707 223.627 147.777 223.703 147.863 223.753C147.95 223.804 148.045 223.83 148.15 223.83C148.22 223.83 148.284 223.822 148.342 223.805C148.399 223.789 148.455 223.764 148.51 223.729C148.564 223.695 148.614 223.657 148.66 223.618C148.706 223.579 148.765 223.525 148.838 223.457C148.868 223.432 148.911 223.419 148.967 223.419C149.027 223.419 149.076 223.435 149.113 223.468C149.15 223.5 149.168 223.546 149.168 223.605C149.168 223.657 149.148 223.719 149.106 223.789C149.065 223.858 149.002 223.925 148.919 223.99C148.835 224.054 148.73 224.107 148.603 224.15C148.477 224.192 148.331 224.213 148.167 224.213C147.791 224.213 147.498 224.107 147.29 223.895C147.081 223.684 146.977 223.396 146.977 223.033C146.977 222.863 147.002 222.704 147.054 222.558C147.105 222.412 147.18 222.287 147.279 222.182C147.377 222.078 147.499 221.998 147.644 221.942C147.788 221.886 147.948 221.858 148.124 221.858C148.352 221.858 148.549 221.906 148.713 222.001C148.876 222.096 148.999 222.22 149.08 222.37C149.162 222.522 149.203 222.676 149.203 222.832C149.203 222.978 149.16 223.072 149.076 223.115C148.992 223.158 148.873 223.18 148.72 223.18Z" fill="white"/>
<path d="M150.142 223.033C150.142 223.19 150.167 223.323 150.216 223.434C150.266 223.544 150.333 223.627 150.419 223.682C150.505 223.738 150.599 223.766 150.7 223.766C150.803 223.766 150.897 223.74 150.982 223.687C151.067 223.633 151.135 223.552 151.186 223.443C151.236 223.334 151.262 223.197 151.262 223.033C151.262 222.88 151.236 222.747 151.186 222.636C151.135 222.526 151.066 222.441 150.98 222.382C150.894 222.323 150.799 222.294 150.696 222.294C150.589 222.294 150.493 222.324 150.409 222.384C150.324 222.444 150.259 222.53 150.212 222.643C150.166 222.755 150.142 222.885 150.142 223.033ZM151.294 223.882V223.825C151.216 223.914 151.138 223.987 151.061 224.042C150.985 224.098 150.902 224.141 150.813 224.169C150.724 224.198 150.626 224.213 150.52 224.213C150.38 224.213 150.25 224.184 150.131 224.125C150.011 224.067 149.908 223.983 149.821 223.874C149.734 223.765 149.668 223.638 149.622 223.491C149.577 223.344 149.555 223.185 149.555 223.014C149.555 222.653 149.644 222.371 149.823 222.169C150.002 221.967 150.237 221.866 150.529 221.866C150.697 221.866 150.84 221.895 150.955 221.952C151.071 222.009 151.184 222.097 151.294 222.216V221.362C151.294 221.244 151.318 221.154 151.366 221.093C151.414 221.033 151.482 221.002 151.571 221.002C151.66 221.002 151.728 221.03 151.776 221.086C151.824 221.142 151.848 221.224 151.848 221.333V223.882C151.848 223.993 151.821 224.075 151.77 224.13C151.719 224.185 151.652 224.213 151.571 224.213C151.491 224.213 151.424 224.184 151.372 224.127C151.32 224.07 151.294 223.988 151.294 223.882Z" fill="white"/>
<path d="M153.894 223.948L153.377 223.109L153.06 223.406V223.865C153.06 223.977 153.03 224.063 152.971 224.123C152.911 224.183 152.843 224.213 152.766 224.213C152.676 224.213 152.605 224.183 152.554 224.124C152.502 224.065 152.477 223.977 152.477 223.861V221.396C152.477 221.268 152.501 221.17 152.551 221.103C152.602 221.036 152.673 221.002 152.766 221.002C152.856 221.002 152.927 221.033 152.98 221.093C153.033 221.154 153.06 221.244 153.06 221.362V222.764L153.718 222.082C153.8 221.998 153.862 221.94 153.905 221.909C153.948 221.878 154 221.862 154.061 221.862C154.134 221.862 154.195 221.885 154.243 221.931C154.292 221.977 154.316 222.035 154.316 222.104C154.316 222.188 154.237 222.301 154.078 222.442L153.768 222.724L154.368 223.656C154.412 223.725 154.444 223.778 154.463 223.814C154.483 223.85 154.492 223.884 154.492 223.916C154.492 224.008 154.467 224.08 154.416 224.134C154.365 224.187 154.299 224.213 154.216 224.213C154.144 224.213 154.089 224.194 154.05 224.156C154.012 224.118 153.96 224.048 153.894 223.948Z" fill="white"/>
<path d="M156.232 223.05C156.146 223.081 156.021 223.114 155.858 223.149C155.694 223.184 155.581 223.209 155.518 223.225C155.455 223.241 155.395 223.273 155.338 223.32C155.28 223.368 155.252 223.434 155.252 223.519C155.252 223.606 155.285 223.681 155.353 223.742C155.42 223.803 155.508 223.834 155.616 223.834C155.732 223.834 155.839 223.809 155.937 223.759C156.035 223.709 156.107 223.644 156.152 223.565C156.205 223.477 156.232 223.333 156.232 223.133V223.05ZM156.27 223.887C156.129 223.996 155.992 224.077 155.86 224.131C155.727 224.186 155.579 224.213 155.415 224.213C155.265 224.213 155.133 224.184 155.019 224.125C154.905 224.066 154.818 223.987 154.756 223.887C154.695 223.786 154.664 223.678 154.664 223.561C154.664 223.403 154.715 223.268 154.817 223.156C154.918 223.045 155.057 222.97 155.235 222.932C155.272 222.923 155.364 222.904 155.511 222.874C155.658 222.845 155.785 222.818 155.89 222.793C155.995 222.768 156.109 222.738 156.232 222.703C156.225 222.551 156.194 222.439 156.139 222.367C156.083 222.296 155.969 222.26 155.796 222.26C155.648 222.26 155.536 222.281 155.461 222.322C155.386 222.363 155.322 222.424 155.268 222.506C155.214 222.588 155.176 222.642 155.154 222.668C155.132 222.694 155.084 222.707 155.011 222.707C154.946 222.707 154.889 222.687 154.841 222.645C154.793 222.603 154.769 222.55 154.769 222.485C154.769 222.383 154.806 222.284 154.879 222.188C154.952 222.092 155.065 222.013 155.22 221.951C155.374 221.889 155.566 221.858 155.796 221.858C156.054 221.858 156.256 221.888 156.403 221.948C156.55 222.008 156.655 222.103 156.716 222.233C156.776 222.363 156.807 222.535 156.807 222.75C156.807 222.885 156.806 223 156.805 223.095C156.805 223.19 156.804 223.295 156.802 223.41C156.802 223.519 156.821 223.632 156.857 223.75C156.893 223.868 156.911 223.944 156.911 223.978C156.911 224.037 156.884 224.091 156.827 224.14C156.77 224.188 156.706 224.213 156.635 224.213C156.575 224.213 156.515 224.185 156.457 224.129C156.398 224.073 156.336 223.993 156.27 223.887Z" fill="white"/>
<path d="M157.976 223.378V223.861C157.976 223.979 157.948 224.066 157.893 224.125C157.837 224.184 157.766 224.213 157.68 224.213C157.596 224.213 157.527 224.183 157.472 224.124C157.418 224.065 157.391 223.977 157.391 223.861V222.252C157.391 221.992 157.486 221.862 157.676 221.862C157.774 221.862 157.843 221.893 157.886 221.953C157.929 222.014 157.953 222.104 157.957 222.222C158.027 222.104 158.099 222.014 158.173 221.953C158.246 221.893 158.344 221.862 158.468 221.862C158.59 221.862 158.71 221.893 158.826 221.953C158.941 222.014 158.999 222.094 158.999 222.195C158.999 222.265 158.975 222.323 158.925 222.369C158.876 222.415 158.823 222.438 158.766 222.438C158.744 222.438 158.692 222.425 158.61 222.399C158.528 222.373 158.455 222.36 158.392 222.36C158.306 222.36 158.237 222.382 158.182 222.427C158.128 222.471 158.086 222.537 158.056 222.624C158.026 222.712 158.005 222.816 157.994 222.937C157.982 223.058 157.976 223.205 157.976 223.378Z" fill="white"/>
<path d="M159.405 221.913H159.47V221.566C159.47 221.473 159.472 221.399 159.477 221.346C159.482 221.294 159.496 221.248 159.519 221.21C159.542 221.17 159.575 221.138 159.617 221.114C159.66 221.089 159.708 221.077 159.761 221.077C159.835 221.077 159.903 221.104 159.963 221.159C160.003 221.196 160.028 221.241 160.039 221.294C160.05 221.346 160.055 221.422 160.055 221.519V221.913H160.27C160.352 221.913 160.416 221.932 160.459 221.971C160.503 222.01 160.525 222.06 160.525 222.12C160.525 222.198 160.493 222.253 160.431 222.284C160.369 222.315 160.28 222.33 160.164 222.33H160.055V223.393C160.055 223.484 160.058 223.553 160.065 223.602C160.071 223.651 160.088 223.69 160.116 223.72C160.144 223.751 160.189 223.766 160.252 223.766C160.286 223.766 160.333 223.76 160.392 223.748C160.45 223.736 160.496 223.73 160.529 223.73C160.576 223.73 160.618 223.749 160.656 223.786C160.694 223.823 160.713 223.87 160.713 223.925C160.713 224.018 160.662 224.089 160.559 224.139C160.456 224.188 160.308 224.213 160.115 224.213C159.932 224.213 159.793 224.182 159.699 224.122C159.605 224.061 159.543 223.977 159.513 223.87C159.484 223.763 159.47 223.619 159.47 223.44V222.33H159.392C159.308 222.33 159.244 222.31 159.199 222.271C159.155 222.232 159.133 222.181 159.133 222.12C159.133 222.06 159.156 222.01 159.202 221.971C159.249 221.932 159.317 221.913 159.405 221.913Z" fill="white"/>
<path d="M152.322 225.583C152.322 225.516 152.312 225.459 152.291 225.411C152.27 225.363 152.242 225.326 152.205 225.3C152.169 225.275 152.128 225.262 152.084 225.262C152.013 225.262 151.953 225.289 151.905 225.344C151.857 225.399 151.832 225.48 151.832 225.587C151.832 225.688 151.856 225.766 151.905 225.822C151.953 225.878 152.012 225.906 152.084 225.906C152.126 225.906 152.166 225.894 152.202 225.869C152.238 225.845 152.267 225.808 152.289 225.759C152.311 225.711 152.322 225.652 152.322 225.583ZM151.82 225.215V225.245C151.868 225.187 151.918 225.144 151.97 225.116C152.022 225.089 152.081 225.075 152.147 225.075C152.225 225.075 152.298 225.095 152.364 225.135C152.431 225.175 152.483 225.234 152.521 225.311C152.56 225.388 152.579 225.48 152.579 225.585C152.579 225.663 152.568 225.735 152.546 225.8C152.524 225.865 152.493 225.92 152.454 225.964C152.416 226.008 152.37 226.042 152.317 226.066C152.264 226.089 152.207 226.101 152.147 226.101C152.073 226.101 152.012 226.087 151.962 226.058C151.912 226.029 151.865 225.986 151.82 225.93V226.31C151.82 226.421 151.779 226.477 151.697 226.477C151.649 226.477 151.617 226.462 151.601 226.434C151.586 226.405 151.578 226.363 151.578 226.308V225.217C151.578 225.168 151.589 225.132 151.61 225.109C151.631 225.085 151.66 225.073 151.697 225.073C151.733 225.073 151.763 225.085 151.786 225.11C151.809 225.134 151.82 225.169 151.82 225.215Z" fill="white"/>
<path d="M153.029 224.851V225.226C153.062 225.189 153.094 225.16 153.125 225.138C153.156 225.116 153.19 225.1 153.227 225.089C153.265 225.079 153.305 225.073 153.349 225.073C153.414 225.073 153.471 225.087 153.522 225.114C153.572 225.141 153.611 225.181 153.64 225.233C153.658 225.263 153.671 225.297 153.677 225.334C153.683 225.371 153.686 225.414 153.686 225.463V225.948C153.686 225.998 153.675 226.037 153.651 226.063C153.628 226.089 153.596 226.102 153.558 226.102C153.473 226.102 153.431 226.05 153.431 225.948V225.521C153.431 225.44 153.419 225.378 153.394 225.334C153.37 225.29 153.324 225.269 153.256 225.269C153.21 225.269 153.169 225.282 153.132 225.307C153.096 225.333 153.068 225.368 153.05 225.412C153.036 225.45 153.029 225.517 153.029 225.613V225.948C153.029 225.998 153.018 226.036 152.995 226.062C152.972 226.088 152.941 226.102 152.9 226.102C152.816 226.102 152.773 226.05 152.773 225.948V224.851C152.773 224.8 152.784 224.761 152.807 224.736C152.829 224.71 152.86 224.697 152.9 224.697C152.941 224.697 152.972 224.71 152.995 224.736C153.018 224.762 153.029 224.8 153.029 224.851Z" fill="white"/>
<path d="M154.576 225.593C154.539 225.607 154.484 225.621 154.413 225.636C154.341 225.651 154.291 225.662 154.264 225.669C154.236 225.677 154.21 225.69 154.185 225.711C154.16 225.732 154.148 225.761 154.148 225.798C154.148 225.836 154.162 225.869 154.192 225.895C154.221 225.922 154.26 225.936 154.307 225.936C154.358 225.936 154.405 225.925 154.447 225.903C154.49 225.881 154.522 225.853 154.542 225.818C154.565 225.78 154.576 225.717 154.576 225.629V225.593ZM154.593 225.959C154.531 226.007 154.472 226.042 154.414 226.066C154.356 226.09 154.291 226.102 154.219 226.102C154.153 226.102 154.096 226.089 154.046 226.063C153.996 226.038 153.958 226.003 153.931 225.959C153.904 225.915 153.891 225.868 153.891 225.816C153.891 225.747 153.913 225.688 153.957 225.639C154.002 225.591 154.063 225.558 154.14 225.541C154.156 225.537 154.197 225.529 154.261 225.516C154.326 225.503 154.381 225.491 154.427 225.48C154.473 225.47 154.523 225.456 154.576 225.441C154.573 225.374 154.56 225.325 154.536 225.294C154.512 225.263 154.462 225.247 154.386 225.247C154.321 225.247 154.272 225.256 154.239 225.274C154.206 225.292 154.178 225.319 154.155 225.355C154.131 225.391 154.115 225.414 154.105 225.426C154.095 225.437 154.074 225.443 154.043 225.443C154.014 225.443 153.989 225.434 153.968 225.416C153.947 225.397 153.937 225.374 153.937 225.346C153.937 225.301 153.953 225.258 153.984 225.216C154.016 225.174 154.066 225.139 154.134 225.112C154.201 225.085 154.285 225.071 154.386 225.071C154.499 225.071 154.587 225.084 154.652 225.111C154.716 225.137 154.761 225.179 154.788 225.235C154.815 225.292 154.828 225.368 154.828 225.461C154.828 225.521 154.828 225.571 154.827 225.612C154.827 225.654 154.827 225.7 154.826 225.75C154.826 225.798 154.834 225.848 154.85 225.899C154.866 225.951 154.874 225.984 154.874 225.999C154.874 226.025 154.861 226.048 154.837 226.07C154.812 226.091 154.784 226.102 154.753 226.102C154.727 226.102 154.701 226.089 154.675 226.065C154.649 226.041 154.622 226.005 154.593 225.959Z" fill="white"/>
<path d="M155.342 225.737V225.948C155.342 225.999 155.33 226.038 155.305 226.063C155.281 226.089 155.25 226.102 155.213 226.102C155.176 226.102 155.145 226.089 155.122 226.063C155.098 226.037 155.086 225.998 155.086 225.948V225.244C155.086 225.13 155.127 225.073 155.211 225.073C155.253 225.073 155.284 225.086 155.303 225.113C155.321 225.14 155.332 225.179 155.334 225.231C155.364 225.179 155.396 225.14 155.428 225.113C155.46 225.086 155.503 225.073 155.557 225.073C155.611 225.073 155.663 225.086 155.714 225.113C155.764 225.14 155.79 225.175 155.79 225.219C155.79 225.25 155.779 225.275 155.757 225.295C155.736 225.315 155.712 225.325 155.687 225.325C155.678 225.325 155.655 225.319 155.619 225.308C155.583 225.297 155.552 225.291 155.524 225.291C155.487 225.291 155.456 225.301 155.432 225.32C155.408 225.34 155.39 225.368 155.377 225.407C155.364 225.445 155.355 225.491 155.35 225.543C155.345 225.596 155.342 225.661 155.342 225.737Z" fill="white"/>
<path d="M156.781 225.606V225.942C156.781 225.995 156.769 226.035 156.744 226.062C156.72 226.088 156.688 226.102 156.648 226.102C156.609 226.102 156.578 226.088 156.553 226.062C156.529 226.035 156.517 225.995 156.517 225.942V225.539C156.517 225.476 156.515 225.426 156.511 225.391C156.506 225.356 156.495 225.327 156.475 225.304C156.456 225.282 156.425 225.271 156.383 225.271C156.299 225.271 156.244 225.299 156.218 225.356C156.191 225.413 156.178 225.494 156.178 225.6V225.942C156.178 225.995 156.166 226.034 156.142 226.061C156.117 226.088 156.086 226.102 156.046 226.102C156.008 226.102 155.976 226.088 155.951 226.061C155.926 226.034 155.914 225.995 155.914 225.942V225.219C155.914 225.171 155.925 225.135 155.947 225.11C155.97 225.086 155.999 225.073 156.035 225.073C156.07 225.073 156.099 225.085 156.123 225.108C156.146 225.131 156.158 225.163 156.158 225.204V225.228C156.202 225.175 156.25 225.137 156.301 225.112C156.351 225.087 156.408 225.075 156.47 225.075C156.534 225.075 156.589 225.088 156.636 225.113C156.682 225.138 156.72 225.177 156.75 225.228C156.793 225.176 156.839 225.138 156.889 225.113C156.938 225.088 156.993 225.075 157.053 225.075C157.123 225.075 157.184 225.089 157.234 225.116C157.285 225.143 157.323 225.182 157.348 225.233C157.37 225.278 157.38 225.35 157.38 225.448V225.942C157.38 225.995 157.368 226.035 157.344 226.062C157.32 226.088 157.287 226.102 157.247 226.102C157.208 226.102 157.177 226.088 157.152 226.061C157.127 226.034 157.115 225.995 157.115 225.942V225.517C157.115 225.463 157.113 225.419 157.108 225.386C157.103 225.354 157.091 225.326 157.07 225.304C157.049 225.282 157.018 225.271 156.976 225.271C156.942 225.271 156.91 225.28 156.88 225.3C156.85 225.32 156.826 225.347 156.809 225.38C156.79 225.422 156.781 225.498 156.781 225.606Z" fill="white"/>
<path d="M158.256 225.593C158.219 225.607 158.164 225.621 158.092 225.636C158.021 225.651 157.971 225.662 157.944 225.669C157.916 225.677 157.89 225.69 157.865 225.711C157.84 225.732 157.827 225.761 157.827 225.798C157.827 225.836 157.842 225.869 157.871 225.895C157.901 225.922 157.939 225.936 157.987 225.936C158.038 225.936 158.084 225.925 158.127 225.903C158.17 225.881 158.201 225.853 158.221 225.818C158.245 225.78 158.256 225.717 158.256 225.629V225.593ZM158.273 225.959C158.211 226.007 158.151 226.042 158.093 226.066C158.035 226.09 157.971 226.102 157.899 226.102C157.833 226.102 157.775 226.089 157.726 226.063C157.676 226.038 157.638 226.003 157.611 225.959C157.584 225.915 157.57 225.868 157.57 225.816C157.57 225.747 157.592 225.688 157.637 225.639C157.681 225.591 157.742 225.558 157.82 225.541C157.836 225.537 157.876 225.529 157.941 225.516C158.005 225.503 158.061 225.491 158.106 225.48C158.153 225.47 158.202 225.456 158.256 225.441C158.253 225.374 158.239 225.325 158.215 225.294C158.191 225.263 158.141 225.247 158.066 225.247C158.001 225.247 157.952 225.256 157.919 225.274C157.886 225.292 157.858 225.319 157.834 225.355C157.811 225.391 157.794 225.414 157.785 225.426C157.775 225.437 157.754 225.443 157.722 225.443C157.694 225.443 157.669 225.434 157.648 225.416C157.627 225.397 157.616 225.374 157.616 225.346C157.616 225.301 157.632 225.258 157.664 225.216C157.696 225.174 157.746 225.139 157.813 225.112C157.881 225.085 157.965 225.071 158.066 225.071C158.178 225.071 158.267 225.084 158.331 225.111C158.396 225.137 158.441 225.179 158.468 225.235C158.494 225.292 158.508 225.368 158.508 225.461C158.508 225.521 158.507 225.571 158.507 225.612C158.507 225.654 158.506 225.7 158.506 225.75C158.506 225.798 158.514 225.848 158.53 225.899C158.546 225.951 158.554 225.984 158.554 225.999C158.554 226.025 158.541 226.048 158.516 226.07C158.492 226.091 158.464 226.102 158.432 226.102C158.406 226.102 158.38 226.089 158.355 226.065C158.329 226.041 158.302 226.005 158.273 225.959Z" fill="white"/>
<path d="M159.687 225.788C159.687 225.82 159.677 225.854 159.658 225.889C159.639 225.925 159.61 225.959 159.571 225.992C159.532 226.024 159.483 226.05 159.423 226.07C159.364 226.09 159.297 226.1 159.223 226.1C159.064 226.1 158.941 226.054 158.852 225.963C158.763 225.872 158.719 225.75 158.719 225.597C158.719 225.493 158.739 225.401 158.78 225.321C158.82 225.242 158.879 225.18 158.956 225.137C159.033 225.093 159.125 225.071 159.232 225.071C159.298 225.071 159.359 225.081 159.414 225.1C159.47 225.119 159.517 225.144 159.555 225.174C159.594 225.204 159.623 225.237 159.643 225.271C159.664 225.305 159.674 225.337 159.674 225.367C159.674 225.397 159.662 225.423 159.64 225.444C159.617 225.465 159.589 225.475 159.556 225.475C159.535 225.475 159.518 225.47 159.503 225.459C159.489 225.448 159.474 225.431 159.456 225.407C159.425 225.36 159.392 225.324 159.358 225.301C159.324 225.278 159.281 225.266 159.228 225.266C159.153 225.266 159.091 225.295 159.045 225.353C158.999 225.412 158.976 225.492 158.976 225.593C158.976 225.64 158.982 225.684 158.994 225.724C159.006 225.764 159.023 225.798 159.045 225.826C159.068 225.854 159.095 225.875 159.127 225.89C159.159 225.904 159.194 225.912 159.232 225.912C159.283 225.912 159.327 225.9 159.364 225.876C159.4 225.853 159.433 225.817 159.461 225.769C159.476 225.74 159.493 225.718 159.512 225.702C159.53 225.686 159.552 225.678 159.578 225.678C159.609 225.678 159.635 225.69 159.656 225.713C159.677 225.737 159.687 225.762 159.687 225.788Z" fill="white"/>
<path d="M160.1 226.133L160.123 226.076L159.808 225.293C159.789 225.247 159.779 225.215 159.779 225.194C159.779 225.173 159.785 225.153 159.796 225.134C159.807 225.116 159.823 225.101 159.842 225.09C159.862 225.079 159.883 225.073 159.904 225.073C159.941 225.073 159.969 225.085 159.987 225.108C160.006 225.131 160.023 225.164 160.037 225.207L160.254 225.83L160.459 225.251C160.476 225.204 160.49 225.167 160.503 225.141C160.516 225.114 160.53 225.096 160.545 225.087C160.56 225.078 160.581 225.073 160.607 225.073C160.627 225.073 160.645 225.078 160.663 225.088C160.681 225.098 160.695 225.112 160.705 225.129C160.714 225.147 160.719 225.165 160.719 225.184C160.717 225.196 160.713 225.213 160.707 225.234C160.701 225.256 160.694 225.278 160.686 225.3L160.352 226.163C160.324 226.239 160.295 226.299 160.268 226.342C160.24 226.385 160.204 226.419 160.159 226.442C160.113 226.465 160.052 226.477 159.975 226.477C159.9 226.477 159.844 226.469 159.806 226.452C159.769 226.436 159.75 226.407 159.75 226.364C159.75 226.335 159.759 226.313 159.777 226.297C159.794 226.282 159.821 226.274 159.856 226.274C159.87 226.274 159.883 226.276 159.896 226.279C159.913 226.283 159.927 226.285 159.939 226.285C159.968 226.285 159.991 226.28 160.008 226.272C160.025 226.263 160.04 226.248 160.053 226.227C160.067 226.206 160.082 226.174 160.1 226.133Z" fill="white"/>
<path d="M199.203 216.781C199.338 216.701 199.37 216.582 199.354 216.496C199.339 216.418 199.289 216.362 199.221 216.344C199.215 216.489 199.209 216.635 199.203 216.781Z" fill="white"/>
<path d="M198.821 215.871C198.814 215.943 198.87 216.02 198.959 216.058C198.976 216.062 198.991 216.066 199.003 216.068C198.999 215.961 198.996 215.845 198.991 215.718C198.889 215.749 198.828 215.804 198.821 215.871Z" fill="white"/>
<path d="M198.901 214.075C198.717 214.092 198.599 214.243 198.594 214.373C198.588 214.511 198.7 214.612 198.892 214.644L198.895 214.645C198.92 214.651 198.941 214.654 198.96 214.654C198.954 214.472 198.949 214.278 198.943 214.07C198.929 214.072 198.915 214.073 198.901 214.075Z" fill="white"/>
<path d="M199.258 215.408C199.28 215.406 199.3 215.403 199.317 215.399C199.517 215.344 199.595 215.228 199.583 215.138C199.572 215.059 199.484 214.966 199.273 214.957C199.268 215.107 199.263 215.257 199.258 215.408Z" fill="white"/>
<path d="M199.659 214.085C199.58 214.085 199.513 214.058 199.437 214.026C199.391 214.022 199.34 214.03 199.303 214.03C199.295 214.244 199.288 214.458 199.281 214.669C199.461 214.688 199.582 214.73 199.669 214.804C199.843 214.944 199.871 215.092 199.864 215.193C199.853 215.342 199.755 215.493 199.613 215.576L199.61 215.578C199.471 215.648 199.363 215.68 199.246 215.686C199.241 215.82 199.236 215.954 199.231 216.089C199.408 216.113 199.466 216.187 199.532 216.272L199.537 216.277L199.538 216.279C199.608 216.388 199.621 216.541 199.572 216.686C199.526 216.82 199.436 216.924 199.329 216.964C199.287 216.983 199.242 216.997 199.194 217.004C199.19 217.095 199.186 217.186 199.182 217.278L199.18 217.318L199.064 217.322L199.06 217.282C199.054 217.234 199.048 217.146 199.042 217.008C198.838 216.99 198.68 216.873 198.68 216.873C198.68 216.873 198.937 216.887 199.035 216.846C199.029 216.709 199.023 216.54 199.015 216.331C198.945 216.326 198.88 216.308 198.801 216.273L198.799 216.272L198.797 216.27C198.678 216.202 198.555 216.057 198.547 215.89C198.543 215.796 198.573 215.659 198.746 215.537C198.815 215.49 198.892 215.459 198.986 215.439C198.981 215.288 198.976 215.124 198.971 214.947C198.793 214.942 198.678 214.889 198.567 214.838L198.552 214.831L198.55 214.83C198.411 214.747 198.313 214.586 198.3 214.419C198.29 214.292 198.323 214.105 198.536 213.932C198.612 213.868 198.743 213.825 198.938 213.802L198.935 213.716C198.884 213.669 198.856 213.603 198.856 213.535C198.856 213.395 198.975 213.281 199.123 213.281C199.27 213.281 199.39 213.395 199.39 213.535C199.39 213.601 199.362 213.648 199.314 213.695L199.312 213.76C199.312 213.76 199.401 213.787 199.437 213.788C199.481 213.779 199.523 213.762 199.564 213.762C199.785 213.762 199.97 213.973 199.97 213.973C199.97 213.973 199.792 214.085 199.659 214.085ZM200.217 214.004V212.468H198.007V214.004H196.125V216.308H198.007V217.844H200.217V216.308H202.217V214.004H200.217Z" fill="white"/>
<path d="M205.849 215.142V215.911C205.849 216.033 205.821 216.124 205.765 216.184C205.709 216.245 205.636 216.275 205.544 216.275C205.456 216.275 205.384 216.245 205.328 216.184C205.273 216.124 205.246 216.033 205.246 215.911V214.99C205.246 214.845 205.241 214.732 205.231 214.651C205.221 214.57 205.194 214.505 205.15 214.453C205.105 214.402 205.035 214.376 204.939 214.376C204.748 214.376 204.622 214.441 204.561 214.57C204.5 214.701 204.47 214.887 204.47 215.13V215.911C204.47 216.031 204.442 216.122 204.387 216.183C204.332 216.245 204.26 216.275 204.17 216.275C204.081 216.275 204.008 216.245 203.952 216.183C203.895 216.122 203.867 216.031 203.867 215.911V214.257C203.867 214.149 203.892 214.066 203.943 214.009C203.994 213.953 204.061 213.925 204.144 213.925C204.224 213.925 204.291 213.951 204.344 214.004C204.398 214.057 204.425 214.13 204.425 214.223V214.278C204.526 214.158 204.635 214.07 204.751 214.014C204.866 213.957 204.995 213.929 205.137 213.929C205.284 213.929 205.41 213.958 205.516 214.016C205.622 214.074 205.709 214.161 205.778 214.278C205.876 214.16 205.982 214.072 206.095 214.015C206.208 213.958 206.333 213.929 206.47 213.929C206.631 213.929 206.768 213.96 206.884 214.022C207 214.084 207.087 214.173 207.144 214.289C207.194 214.394 207.219 214.558 207.219 214.783V215.911C207.219 216.033 207.191 216.124 207.135 216.184C207.08 216.245 207.006 216.275 206.914 216.275C206.826 216.275 206.753 216.245 206.697 216.183C206.64 216.122 206.612 216.031 206.612 215.911V214.939C206.612 214.815 206.607 214.715 206.596 214.641C206.585 214.566 206.556 214.503 206.509 214.452C206.462 214.401 206.391 214.376 206.295 214.376C206.218 214.376 206.144 214.398 206.075 214.444C206.006 214.489 205.952 214.549 205.913 214.626C205.87 214.723 205.849 214.895 205.849 215.142Z" fill="white"/>
<path d="M208.278 214.914H209.34C209.325 214.716 209.271 214.568 209.178 214.47C209.084 214.372 208.961 214.323 208.808 214.323C208.662 214.323 208.542 214.373 208.449 214.472C208.355 214.572 208.298 214.719 208.278 214.914ZM209.423 215.242H208.278C208.279 215.373 208.306 215.489 208.358 215.589C208.411 215.69 208.48 215.765 208.566 215.816C208.653 215.867 208.748 215.892 208.853 215.892C208.923 215.892 208.987 215.884 209.045 215.868C209.103 215.852 209.159 215.826 209.213 215.792C209.268 215.757 209.317 215.72 209.363 215.68C209.409 215.641 209.468 215.587 209.541 215.519C209.571 215.494 209.614 215.481 209.67 215.481C209.73 215.481 209.779 215.498 209.816 215.53C209.853 215.563 209.871 215.608 209.871 215.668C209.871 215.72 209.851 215.781 209.809 215.851C209.768 215.921 209.706 215.988 209.622 216.052C209.538 216.116 209.433 216.17 209.306 216.212C209.18 216.254 209.034 216.275 208.87 216.275C208.494 216.275 208.202 216.17 207.993 215.958C207.784 215.746 207.68 215.459 207.68 215.096C207.68 214.925 207.706 214.767 207.757 214.621C207.808 214.474 207.883 214.349 207.982 214.245C208.081 214.14 208.202 214.06 208.347 214.004C208.491 213.948 208.651 213.921 208.827 213.921C209.056 213.921 209.252 213.968 209.416 214.064C209.579 214.159 209.702 214.282 209.784 214.433C209.865 214.584 209.906 214.738 209.906 214.895C209.906 215.04 209.864 215.134 209.779 215.178C209.695 215.221 209.576 215.242 209.423 215.242Z" fill="white"/>
<path d="M210.846 215.096C210.846 215.253 210.87 215.386 210.92 215.496C210.969 215.606 211.036 215.689 211.122 215.745C211.208 215.801 211.302 215.829 211.403 215.829C211.506 215.829 211.6 215.802 211.685 215.749C211.77 215.696 211.838 215.615 211.889 215.506C211.94 215.396 211.965 215.26 211.965 215.096C211.965 214.942 211.94 214.81 211.889 214.699C211.838 214.588 211.77 214.503 211.683 214.445C211.597 214.386 211.502 214.357 211.399 214.357C211.292 214.357 211.196 214.386 211.112 214.447C211.027 214.507 210.962 214.593 210.915 214.705C210.869 214.818 210.846 214.948 210.846 215.096ZM211.997 215.945V215.888C211.919 215.977 211.841 216.049 211.765 216.105C211.688 216.161 211.605 216.203 211.516 216.232C211.427 216.261 211.329 216.275 211.223 216.275C211.083 216.275 210.953 216.246 210.834 216.187C210.714 216.129 210.611 216.045 210.524 215.936C210.437 215.828 210.371 215.7 210.326 215.553C210.28 215.407 210.258 215.247 210.258 215.077C210.258 214.715 210.347 214.434 210.526 214.232C210.705 214.03 210.94 213.929 211.232 213.929C211.4 213.929 211.543 213.958 211.658 214.015C211.774 214.072 211.887 214.16 211.997 214.278V213.425C211.997 213.306 212.021 213.217 212.069 213.156C212.117 213.095 212.185 213.065 212.274 213.065C212.363 213.065 212.431 213.093 212.479 213.149C212.527 213.204 212.551 213.287 212.551 213.395V215.945C212.551 216.055 212.525 216.138 212.473 216.193C212.422 216.248 212.356 216.275 212.274 216.275C212.194 216.275 212.128 216.247 212.076 216.19C212.024 216.133 211.997 216.051 211.997 215.945Z" fill="white"/>
<path d="M214.597 216.011L214.08 215.172L213.763 215.468V215.928C213.763 216.04 213.733 216.125 213.674 216.185C213.614 216.245 213.546 216.275 213.469 216.275C213.379 216.275 213.308 216.246 213.257 216.186C213.205 216.127 213.18 216.04 213.18 215.924V213.459C213.18 213.33 213.204 213.232 213.254 213.165C213.305 213.098 213.376 213.065 213.469 213.065C213.559 213.065 213.631 213.095 213.683 213.156C213.737 213.217 213.763 213.306 213.763 213.425V214.827L214.421 214.145C214.503 214.06 214.565 214.002 214.608 213.971C214.651 213.94 214.703 213.925 214.764 213.925C214.837 213.925 214.898 213.948 214.947 213.993C214.995 214.039 215.019 214.097 215.019 214.166C215.019 214.251 214.94 214.364 214.781 214.505L214.471 214.786L215.071 215.718C215.116 215.788 215.147 215.84 215.166 215.876C215.186 215.912 215.195 215.947 215.195 215.979C215.195 216.071 215.17 216.143 215.119 216.196C215.068 216.249 215.002 216.275 214.919 216.275C214.847 216.275 214.792 216.256 214.754 216.218C214.715 216.18 214.663 216.111 214.597 216.011Z" fill="white"/>
<path d="M216.935 215.113C216.849 215.144 216.724 215.177 216.561 215.211C216.397 215.246 216.284 215.271 216.221 215.287C216.158 215.304 216.098 215.336 216.041 215.383C215.984 215.43 215.955 215.496 215.955 215.581C215.955 215.668 215.988 215.743 216.056 215.804C216.123 215.865 216.211 215.896 216.319 215.896C216.435 215.896 216.542 215.871 216.64 215.821C216.738 215.771 216.81 215.707 216.856 215.627C216.908 215.54 216.935 215.396 216.935 215.195V215.113ZM216.974 215.949C216.832 216.058 216.695 216.139 216.563 216.194C216.431 216.248 216.282 216.275 216.118 216.275C215.968 216.275 215.836 216.246 215.722 216.188C215.608 216.129 215.521 216.049 215.459 215.949C215.398 215.849 215.367 215.741 215.367 215.623C215.367 215.465 215.418 215.33 215.52 215.219C215.621 215.107 215.76 215.032 215.938 214.994C215.975 214.986 216.067 214.967 216.214 214.937C216.362 214.907 216.488 214.88 216.593 214.856C216.698 214.831 216.812 214.801 216.935 214.765C216.928 214.613 216.897 214.501 216.842 214.43C216.787 214.359 216.672 214.323 216.499 214.323C216.351 214.323 216.239 214.343 216.164 214.384C216.089 214.425 216.025 214.487 215.971 214.569C215.917 214.65 215.88 214.704 215.857 214.73C215.835 214.756 215.788 214.77 215.715 214.77C215.649 214.77 215.592 214.749 215.544 214.707C215.496 214.666 215.472 214.612 215.472 214.547C215.472 214.446 215.509 214.347 215.582 214.251C215.655 214.155 215.768 214.076 215.923 214.014C216.077 213.952 216.269 213.921 216.499 213.921C216.757 213.921 216.959 213.95 217.106 214.01C217.254 214.07 217.358 214.165 217.419 214.295C217.479 214.425 217.51 214.597 217.51 214.812C217.51 214.948 217.509 215.063 217.509 215.157C217.508 215.252 217.507 215.357 217.505 215.473C217.505 215.581 217.524 215.695 217.56 215.813C217.597 215.931 217.615 216.006 217.615 216.04C217.615 216.1 217.587 216.154 217.53 216.202C217.473 216.251 217.409 216.275 217.338 216.275C217.278 216.275 217.218 216.247 217.16 216.192C217.101 216.136 217.039 216.055 216.974 215.949Z" fill="white"/>
<path d="M218.68 215.441V215.924C218.68 216.041 218.651 216.129 218.596 216.187C218.54 216.246 218.469 216.275 218.383 216.275C218.299 216.275 218.23 216.246 218.175 216.187C218.121 216.127 218.094 216.04 218.094 215.924V214.314C218.094 214.055 218.189 213.925 218.38 213.925C218.477 213.925 218.546 213.955 218.589 214.016C218.632 214.076 218.656 214.166 218.66 214.285C218.73 214.166 218.802 214.076 218.876 214.016C218.949 213.955 219.048 213.925 219.171 213.925C219.293 213.925 219.413 213.955 219.529 214.016C219.644 214.076 219.702 214.157 219.702 214.257C219.702 214.328 219.678 214.386 219.628 214.432C219.579 214.478 219.526 214.501 219.469 214.501C219.447 214.501 219.395 214.488 219.313 214.461C219.231 214.435 219.158 214.422 219.095 214.422C219.01 214.422 218.94 214.445 218.885 214.489C218.831 214.533 218.789 214.6 218.759 214.687C218.729 214.775 218.708 214.879 218.697 215C218.685 215.12 218.68 215.267 218.68 215.441Z" fill="white"/>
<path d="M220.108 213.976H220.173V213.628C220.173 213.535 220.175 213.462 220.18 213.409C220.185 213.356 220.199 213.311 220.222 213.272C220.245 213.233 220.278 213.201 220.321 213.176C220.364 213.152 220.412 213.139 220.464 213.139C220.539 213.139 220.606 213.167 220.666 213.222C220.706 213.258 220.731 213.303 220.742 213.356C220.753 213.409 220.758 213.484 220.758 213.582V213.976H220.973C221.055 213.976 221.119 213.995 221.162 214.034C221.206 214.073 221.228 214.122 221.228 214.183C221.228 214.261 221.197 214.315 221.135 214.346C221.072 214.377 220.983 214.393 220.867 214.393H220.758V215.456C220.758 215.546 220.761 215.616 220.768 215.664C220.774 215.713 220.791 215.752 220.819 215.783C220.847 215.813 220.893 215.829 220.955 215.829C220.99 215.829 221.036 215.822 221.095 215.81C221.153 215.799 221.199 215.792 221.232 215.792C221.279 215.792 221.322 215.811 221.359 215.848C221.397 215.886 221.416 215.932 221.416 215.987C221.416 216.081 221.365 216.152 221.262 216.201C221.159 216.251 221.011 216.275 220.818 216.275C220.635 216.275 220.496 216.245 220.402 216.184C220.308 216.124 220.246 216.04 220.217 215.932C220.187 215.825 220.173 215.682 220.173 215.502V214.393H220.095C220.011 214.393 219.947 214.373 219.902 214.334C219.858 214.294 219.836 214.244 219.836 214.183C219.836 214.122 219.859 214.073 219.906 214.034C219.952 213.995 220.02 213.976 220.108 213.976Z" fill="white"/>
<path d="M213.025 217.645C213.025 217.578 213.015 217.521 212.994 217.473C212.974 217.425 212.945 217.389 212.908 217.363C212.872 217.337 212.831 217.324 212.787 217.324C212.716 217.324 212.657 217.352 212.608 217.407C212.56 217.462 212.536 217.543 212.536 217.65C212.536 217.75 212.559 217.829 212.608 217.885C212.656 217.94 212.716 217.968 212.787 217.968C212.829 217.968 212.869 217.956 212.905 217.932C212.941 217.907 212.97 217.871 212.992 217.822C213.014 217.773 213.025 217.714 213.025 217.645ZM212.523 217.277V217.308C212.571 217.249 212.621 217.206 212.673 217.179C212.725 217.151 212.784 217.137 212.85 217.137C212.929 217.137 213.001 217.157 213.067 217.198C213.134 217.238 213.186 217.296 213.225 217.374C213.263 217.451 213.282 217.542 213.282 217.648C213.282 217.726 213.271 217.797 213.249 217.862C213.227 217.927 213.196 217.982 213.157 218.026C213.119 218.07 213.073 218.104 213.02 218.128C212.967 218.152 212.91 218.164 212.85 218.164C212.777 218.164 212.715 218.149 212.665 218.12C212.616 218.091 212.568 218.049 212.523 217.992V218.372C212.523 218.484 212.482 218.539 212.4 218.539C212.352 218.539 212.32 218.525 212.305 218.496C212.289 218.467 212.281 218.425 212.281 218.37V217.279C212.281 217.231 212.292 217.195 212.313 217.171C212.334 217.147 212.363 217.135 212.4 217.135C212.437 217.135 212.466 217.148 212.489 217.172C212.512 217.196 212.523 217.232 212.523 217.277Z" fill="white"/>
<path d="M213.733 216.913V217.289C213.765 217.252 213.797 217.222 213.828 217.201C213.859 217.179 213.893 217.163 213.931 217.152C213.968 217.141 214.008 217.136 214.052 217.136C214.117 217.136 214.174 217.149 214.225 217.176C214.275 217.204 214.315 217.243 214.343 217.295C214.362 217.325 214.374 217.359 214.38 217.397C214.386 217.434 214.389 217.477 214.389 217.526V218.01C214.389 218.061 214.378 218.099 214.354 218.125C214.331 218.151 214.3 218.164 214.261 218.164C214.176 218.164 214.134 218.113 214.134 218.01V217.583C214.134 217.502 214.122 217.44 214.098 217.397C214.073 217.353 214.027 217.331 213.959 217.331C213.913 217.331 213.872 217.344 213.835 217.37C213.799 217.395 213.771 217.43 213.753 217.475C213.74 217.512 213.733 217.579 213.733 217.676V218.01C213.733 218.06 213.721 218.098 213.698 218.125C213.676 218.151 213.644 218.164 213.603 218.164C213.519 218.164 213.477 218.113 213.477 218.01V216.913C213.477 216.862 213.488 216.824 213.51 216.798C213.532 216.772 213.563 216.76 213.603 216.76C213.644 216.76 213.676 216.773 213.698 216.799C213.721 216.824 213.733 216.863 213.733 216.913Z" fill="white"/>
<path d="M215.28 217.655C215.242 217.669 215.188 217.683 215.116 217.699C215.044 217.714 214.995 217.725 214.967 217.732C214.94 217.739 214.913 217.753 214.888 217.774C214.863 217.794 214.851 217.823 214.851 217.86C214.851 217.898 214.865 217.931 214.895 217.958C214.924 217.985 214.963 217.998 215.01 217.998C215.061 217.998 215.108 217.987 215.151 217.965C215.193 217.943 215.225 217.915 215.245 217.881C215.268 217.842 215.28 217.779 215.28 217.692V217.655ZM215.297 218.021C215.235 218.069 215.175 218.105 215.117 218.128C215.059 218.152 214.994 218.164 214.922 218.164C214.856 218.164 214.799 218.151 214.749 218.126C214.699 218.1 214.661 218.065 214.634 218.021C214.607 217.978 214.594 217.93 214.594 217.879C214.594 217.81 214.616 217.751 214.66 217.702C214.705 217.653 214.766 217.62 214.843 217.604C214.86 217.6 214.9 217.592 214.964 217.579C215.029 217.566 215.084 217.554 215.13 217.543C215.176 217.532 215.226 217.519 215.28 217.504C215.276 217.437 215.263 217.388 215.239 217.357C215.215 217.325 215.165 217.31 215.089 217.31C215.024 217.31 214.975 217.319 214.942 217.337C214.909 217.355 214.881 217.382 214.858 217.417C214.834 217.453 214.818 217.477 214.808 217.488C214.798 217.5 214.778 217.505 214.746 217.505C214.717 217.505 214.692 217.496 214.671 217.478C214.65 217.46 214.64 217.437 214.64 217.408C214.64 217.364 214.656 217.32 214.688 217.278C214.719 217.236 214.769 217.202 214.837 217.175C214.904 217.147 214.988 217.134 215.089 217.134C215.202 217.134 215.29 217.147 215.355 217.173C215.419 217.199 215.465 217.241 215.491 217.298C215.518 217.355 215.531 217.43 215.531 217.524C215.531 217.583 215.531 217.634 215.531 217.675C215.53 217.716 215.53 217.762 215.529 217.813C215.529 217.861 215.537 217.91 215.553 217.962C215.569 218.013 215.577 218.046 215.577 218.061C215.577 218.087 215.565 218.111 215.54 218.132C215.515 218.153 215.487 218.164 215.456 218.164C215.43 218.164 215.404 218.152 215.378 218.127C215.352 218.103 215.325 218.068 215.297 218.021Z" fill="white"/>
<path d="M216.045 217.799V218.01C216.045 218.062 216.033 218.1 216.009 218.126C215.984 218.151 215.953 218.164 215.916 218.164C215.879 218.164 215.848 218.151 215.825 218.125C215.801 218.099 215.789 218.061 215.789 218.01V217.306C215.789 217.193 215.831 217.136 215.914 217.136C215.956 217.136 215.987 217.149 216.006 217.176C216.025 217.202 216.035 217.241 216.037 217.293C216.067 217.241 216.099 217.202 216.131 217.176C216.163 217.149 216.206 217.136 216.26 217.136C216.314 217.136 216.366 217.149 216.417 217.176C216.467 217.202 216.493 217.237 216.493 217.281C216.493 217.312 216.482 217.338 216.46 217.358C216.439 217.378 216.415 217.388 216.39 217.388C216.381 217.388 216.358 217.382 216.322 217.371C216.286 217.359 216.255 217.353 216.227 217.353C216.19 217.353 216.159 217.363 216.135 217.383C216.111 217.402 216.093 217.431 216.08 217.469C216.067 217.508 216.058 217.553 216.053 217.606C216.048 217.659 216.045 217.723 216.045 217.799Z" fill="white"/>
<path d="M217.484 217.668V218.005C217.484 218.058 217.472 218.098 217.448 218.124C217.423 218.151 217.391 218.164 217.351 218.164C217.312 218.164 217.281 218.151 217.257 218.124C217.233 218.098 217.221 218.058 217.221 218.005V217.602C217.221 217.538 217.218 217.489 217.214 217.454C217.209 217.418 217.198 217.389 217.178 217.367C217.159 217.344 217.128 217.333 217.086 217.333C217.003 217.333 216.947 217.361 216.921 217.418C216.894 217.475 216.881 217.557 216.881 217.663V218.005C216.881 218.057 216.869 218.097 216.845 218.124C216.821 218.151 216.789 218.164 216.749 218.164C216.711 218.164 216.679 218.151 216.654 218.124C216.63 218.097 216.617 218.057 216.617 218.005V217.281C216.617 217.234 216.628 217.197 216.651 217.173C216.673 217.148 216.702 217.136 216.738 217.136C216.773 217.136 216.802 217.147 216.826 217.17C216.849 217.194 216.861 217.226 216.861 217.266V217.29C216.906 217.238 216.953 217.199 217.004 217.175C217.054 217.15 217.111 217.138 217.173 217.138C217.237 217.138 217.292 217.15 217.339 217.176C217.385 217.201 217.423 217.239 217.453 217.29C217.496 217.239 217.543 217.2 217.592 217.175C217.641 217.15 217.696 217.138 217.756 217.138C217.826 217.138 217.887 217.151 217.937 217.178C217.988 217.206 218.026 217.244 218.051 217.295C218.073 217.341 218.084 217.413 218.084 217.511V218.005C218.084 218.058 218.071 218.098 218.047 218.124C218.023 218.151 217.99 218.164 217.95 218.164C217.912 218.164 217.88 218.151 217.855 218.124C217.83 218.097 217.818 218.057 217.818 218.005V217.579C217.818 217.525 217.816 217.482 217.811 217.449C217.806 217.416 217.794 217.389 217.773 217.366C217.752 217.344 217.721 217.333 217.679 217.333C217.645 217.333 217.613 217.343 217.583 217.363C217.553 217.382 217.529 217.409 217.512 217.442C217.493 217.485 217.484 217.56 217.484 217.668Z" fill="white"/>
<path d="M218.959 217.655C218.922 217.669 218.867 217.683 218.796 217.699C218.724 217.714 218.674 217.725 218.647 217.732C218.619 217.739 218.593 217.753 218.568 217.774C218.543 217.794 218.53 217.823 218.53 217.86C218.53 217.898 218.545 217.931 218.575 217.958C218.604 217.985 218.642 217.998 218.69 217.998C218.741 217.998 218.787 217.987 218.83 217.965C218.873 217.943 218.905 217.915 218.925 217.881C218.948 217.842 218.959 217.779 218.959 217.692V217.655ZM218.976 218.021C218.914 218.069 218.854 218.105 218.797 218.128C218.739 218.152 218.674 218.164 218.602 218.164C218.536 218.164 218.478 218.151 218.429 218.126C218.379 218.1 218.341 218.065 218.314 218.021C218.287 217.978 218.273 217.93 218.273 217.879C218.273 217.81 218.296 217.751 218.34 217.702C218.384 217.653 218.445 217.62 218.523 217.604C218.539 217.6 218.58 217.592 218.644 217.579C218.708 217.566 218.764 217.554 218.81 217.543C218.856 217.532 218.906 217.519 218.959 217.504C218.956 217.437 218.943 217.388 218.919 217.357C218.894 217.325 218.844 217.31 218.769 217.31C218.704 217.31 218.655 217.319 218.622 217.337C218.589 217.355 218.561 217.382 218.538 217.417C218.514 217.453 218.498 217.477 218.488 217.488C218.478 217.5 218.457 217.505 218.425 217.505C218.397 217.505 218.372 217.496 218.351 217.478C218.33 217.46 218.319 217.437 218.319 217.408C218.319 217.364 218.335 217.32 218.367 217.278C218.399 217.236 218.449 217.202 218.516 217.175C218.584 217.147 218.668 217.134 218.769 217.134C218.881 217.134 218.97 217.147 219.034 217.173C219.099 217.199 219.144 217.241 219.171 217.298C219.197 217.355 219.211 217.43 219.211 217.524C219.211 217.583 219.211 217.634 219.21 217.675C219.21 217.716 219.209 217.762 219.209 217.813C219.209 217.861 219.217 217.91 219.233 217.962C219.249 218.013 219.257 218.046 219.257 218.061C219.257 218.087 219.244 218.111 219.22 218.132C219.195 218.153 219.167 218.164 219.136 218.164C219.109 218.164 219.083 218.152 219.058 218.127C219.032 218.103 219.005 218.068 218.976 218.021Z" fill="white"/>
<path d="M220.39 217.851C220.39 217.882 220.381 217.916 220.361 217.952C220.342 217.988 220.313 218.022 220.274 218.054C220.235 218.087 220.186 218.113 220.126 218.132C220.067 218.152 220 218.162 219.926 218.162C219.767 218.162 219.644 218.117 219.555 218.025C219.466 217.934 219.422 217.812 219.422 217.659C219.422 217.555 219.442 217.464 219.483 217.384C219.523 217.304 219.582 217.243 219.659 217.199C219.736 217.156 219.828 217.134 219.935 217.134C220.001 217.134 220.062 217.143 220.117 217.163C220.173 217.182 220.22 217.206 220.258 217.237C220.297 217.267 220.326 217.299 220.346 217.333C220.367 217.368 220.377 217.4 220.377 217.429C220.377 217.46 220.366 217.485 220.343 217.506C220.32 217.527 220.292 217.538 220.26 217.538C220.238 217.538 220.221 217.532 220.207 217.521C220.193 217.511 220.177 217.493 220.159 217.469C220.128 217.422 220.095 217.387 220.061 217.364C220.027 217.34 219.984 217.328 219.931 217.328C219.856 217.328 219.795 217.357 219.748 217.416C219.702 217.474 219.679 217.554 219.679 217.655C219.679 217.703 219.685 217.747 219.697 217.786C219.709 217.826 219.726 217.86 219.748 217.888C219.771 217.916 219.798 217.938 219.83 217.952C219.862 217.967 219.897 217.974 219.935 217.974C219.986 217.974 220.03 217.962 220.067 217.939C220.103 217.915 220.136 217.88 220.164 217.831C220.18 217.803 220.196 217.781 220.215 217.765C220.233 217.749 220.255 217.741 220.281 217.741C220.313 217.741 220.338 217.752 220.359 217.776C220.38 217.799 220.39 217.824 220.39 217.851Z" fill="white"/>
<path d="M220.803 218.195L220.827 218.139L220.511 217.355C220.492 217.31 220.482 217.277 220.482 217.257C220.482 217.235 220.488 217.215 220.499 217.197C220.51 217.178 220.526 217.163 220.545 217.152C220.565 217.141 220.586 217.135 220.607 217.135C220.644 217.135 220.672 217.147 220.691 217.17C220.709 217.193 220.726 217.227 220.74 217.27L220.957 217.892L221.162 217.313C221.179 217.266 221.193 217.23 221.207 217.203C221.22 217.177 221.234 217.159 221.248 217.149C221.263 217.14 221.284 217.135 221.311 217.135C221.33 217.135 221.349 217.141 221.366 217.151C221.384 217.161 221.398 217.175 221.408 217.192C221.417 217.209 221.422 217.228 221.422 217.247C221.42 217.258 221.416 217.275 221.41 217.297C221.404 217.318 221.398 217.34 221.389 217.362L221.055 218.226C221.027 218.302 220.998 218.362 220.971 218.405C220.943 218.448 220.907 218.481 220.862 218.504C220.816 218.527 220.755 218.539 220.678 218.539C220.603 218.539 220.547 218.531 220.509 218.515C220.472 218.499 220.453 218.47 220.453 218.427C220.453 218.398 220.462 218.376 220.48 218.36C220.498 218.344 220.524 218.336 220.559 218.336C220.573 218.336 220.586 218.338 220.599 218.342C220.616 218.345 220.63 218.347 220.642 218.347C220.671 218.347 220.694 218.343 220.711 218.334C220.728 218.326 220.743 218.311 220.757 218.289C220.77 218.268 220.786 218.237 220.803 218.195Z" fill="white"/>
</g>
<defs>
<clipPath id="clip0_259_27512">
<rect width="550" height="338.302" fill="white"/>
</clipPath>
</defs>
</svg>
